<?xml version="1.0" encoding="utf-8"?>
<!-- Generator: Adobe Illustrator 21.0.0, SVG Export Plug-In . SVG Version: 6.00 Build 0)  -->
<svg version="1.1" id="Layer_1" xmlns="http://www.w3.org/2000/svg" xmlns:xlink="http://www.w3.org/1999/xlink" x="0px" y="0px"
	 viewBox="0 0 16 16" style="enable-background:new 0 0 16 16;" width="16" height="16" xml:space="preserve">
<style type="text/css">
	.st0{fill:#AAAAAA;}
</style>
<g>
	<path class="st0" d="M7.6,8.2C7.5,8.2,7.5,8.1,7.5,8c-0.1-0.4,0-0.8,0.3-1.1C8,6.7,8.1,6.4,8.1,6c0-0.5,0.2-0.9,0.6-1.3
		C9.3,4.1,9.8,3.6,10.4,3c0.3-0.3,0.5-0.5,0.8-0.8c-0.1-0.1-0.4-0.5-0.4-0.6c0-0.1,0-0.3,0.2-0.4C11,1.1,11.1,1,11.2,1
		c0.2,0,0.6,0.3,0.7,0.5c0,0,0,0,0,0c0.2-0.2,0.5-0.5,0.7-0.7c0.3-0.3,0.6-0.5,1-0.6c0.1,0,0.1,0,0.2-0.1c0.1,0,0.3,0,0.4,0
		c0.1,0,0.2,0,0.3,0c0.8,0.1,1.4,0.8,1.5,1.6c0,0.6-0.2,1.2-0.6,1.6c-0.2,0.2-0.5,0.5-0.7,0.7c0,0,0,0-0.1,0.1
		c0.1,0.1,0.5,0.5,0.5,0.7c0,0.1-0.1,0.3-0.2,0.4c-0.1,0.1-0.3,0.2-0.4,0.2c-0.2,0-0.5-0.4-0.6-0.5c-0.1,0.1-0.2,0.2-0.3,0.3
		c-0.7,0.7-1.4,1.4-2.2,2.2c-0.4,0.4-0.9,0.6-1.5,0.6C9.6,7.9,9.4,8,9.2,8.1C9.1,8.3,8.9,8.4,8.8,8.5C8.5,8.6,8.3,8.6,8,8.6
		c0,0,0,0-0.1,0L7.6,8.2z M11.6,2.8C11.6,2.8,11.6,2.8,11.6,2.8c-0.3,0.3-0.6,0.6-0.9,0.8c-0.5,0.5-1,1-1.5,1.5
		C9.1,5.3,8.9,5.4,8.9,5.7c0,0.1,0,0.3,0,0.4c0,0.4-0.2,0.8-0.5,1.2C8.3,7.3,8.3,7.4,8.2,7.5C8.1,7.6,8.1,7.7,8.3,7.8
		c0.1,0.1,0.2,0.1,0.3,0c0.1-0.1,0.2-0.2,0.3-0.2c0.4-0.3,0.8-0.4,1.2-0.4c0.3,0,0.5-0.1,0.7-0.3c0.1-0.1,0.2-0.2,0.4-0.4
		c0.5-0.5,1.1-1.1,1.6-1.6c0.2-0.2,0.3-0.3,0.5-0.5C12.7,3.9,12.2,3.3,11.6,2.8z"/>
	<g>
		<path class="st0" d="M9.2,11.9c0,0.7-0.6,1.3-1.3,1.3s-1.3-0.6-1.3-1.3s0.6-1.1,1.4-1.1C8.6,10.8,9.2,11.1,9.2,11.9z"/>
		<polygon class="st0" points="7.9,9.4 9.1,11.4 7.9,12.1 6.7,11.3 		"/>
	</g>
	<g>
		<g>
			<path class="st0" d="M13.4,11.6l0.4,0.1L12.4,16H0v-0.4h0.6c0.7,0,1.2-0.2,1.5-0.7c0.2-0.3,0.2-0.8,0.2-1.7V2.8
				c0-1-0.1-1.6-0.3-1.9C1.7,0.6,1.2,0.4,0.6,0.4H0V0h7.2v0.4c-0.8,0-1.4,0.1-1.8,0.2C5.1,0.8,4.9,1,4.8,1.3
				C4.6,1.5,4.6,2.2,4.6,3.1v10.1c0,0.7,0.1,1.1,0.2,1.3c0.1,0.2,0.2,0.3,0.4,0.4C5.4,14.9,6,15,7,15h1.2c1.2,0,2.1-0.1,2.6-0.3
				c0.5-0.2,0.9-0.5,1.4-1C12.6,13.3,13,12.6,13.4,11.6z"/>
		</g>
	</g>
</g>
</svg>
