<?xml version="1.0" encoding="utf-8"?>
<!-- Generator: Adobe Illustrator 18.0.0, SVG Export Plug-In . SVG Version: 6.00 Build 0)  -->
<!DOCTYPE svg PUBLIC "-//W3C//DTD SVG 1.1//EN" "http://www.w3.org/Graphics/SVG/1.1/DTD/svg11.dtd">
<svg version="1.1" id="Layer_1" xmlns="http://www.w3.org/2000/svg" xmlns:xlink="http://www.w3.org/1999/xlink" x="0px" y="0px"
	 viewBox="0 0 24 24" enable-background="new 0 0 24 24" xml:space="preserve">
<line fill="none" stroke="#A53700" stroke-miterlimit="10" x1="101.1" y1="56.9" x2="101.1" y2="56.9"/>
<g>
	<path fill="none" d="M15.9,9.1c0.1,0,0.2,0,0.3,0c0.3,0,0.6-0.2,0.8-0.4c0.5-0.5,0.5-1.5,0-2c-0.6-0.6-1.4-0.6-2,0
		c-0.6,0.6-0.6,1.4,0,2C15.3,8.9,15.6,9,15.9,9.1z"/>
	<path fill="#91BBF6" d="M23.1,18.8c-0.1-0.2-0.1-0.5-0.2-0.7c-0.6-1.5-1.3-3-2.3-4.3l-0.1-0.1c-0.6,0.3-1.2,0.5-1.8,0.6
		c-1.5,0.4-3,0.5-4.6,0.1c-0.1,0-0.2,0-0.3,0c-0.7,2.1-1.3,4.2-1.9,6.2c0.6,0.2,1.3,0.2,2,0.3c0.1,0,0.3,0,0.4,0c0.1,0,0.3,0,0.4,0
		c0.1,0,0.2,0,0.3,0c1,0,2,0,3.1-0.1c0.2,0,0.3,0,0.4,0l0.1,0c0.2,0,0.3,0,0.5-0.1c1.3-0.2,2.4-0.6,3.4-1.1
		C23.1,19.5,23.3,19.2,23.1,18.8z"/>
	<path fill="#E6F3FC" d="M13.7,14.4c0.1,0,0.2,0,0.2,0.1c0.1,0,0.2,0,0.3,0c1.5,0.4,3,0.3,4.6-0.1c0.6-0.2,1.2-0.4,1.8-0.6l0,0
		l0-0.7c0-0.5,0-1,0-1.5c0-0.3,0-0.5-0.1-0.7c-0.4-0.9-1-1.5-1.8-2C17.8,9.5,17,9.9,16,9.9c-1,0-1.8-0.5-2.4-0.9
		c-0.1-0.1-0.2-0.1-0.3-0.2c-1.5,1-2.2,2.6-1.9,4.1c0,0.1,0,0.3,0.1,0.4l0,0.4l0,0c0.1,0.1,0.2,0.2,0.4,0.2
		C12.5,14.3,13.1,14.4,13.7,14.4z"/>
	<path fill="#C2DFF9" d="M13.7,14.4c-0.6,0-1.3-0.1-1.8-0.4c-0.1-0.1-0.2-0.1-0.4-0.2l-0.1,0.1c-0.1,0.1-0.2,0.3-0.3,0.5L11,14.5
		c-0.9,1.4-1.6,2.8-2,4.3c-0.2,0.5,0,0.8,0.4,1.1c0.8,0.4,1.7,0.8,2.7,1c0,0,0,0,0,0c0.6-2.1,1.2-4.2,1.9-6.2
		C13.9,14.4,13.8,14.4,13.7,14.4z"/>
	<path fill="#699AE2" d="M23.9,18.5c-0.1-0.3-0.2-0.5-0.3-0.8c-0.6-1.6-1.3-3-2.3-4.3l0-0.4c0-0.5,0-1,0-1.5c0-0.4-0.1-0.7-0.2-1.1
		c-0.5-1.1-1.3-2-2.4-2.6l-0.3-0.1c0-0.8-0.4-1.6-1.2-2.2C16.6,5,15.1,4.9,14.1,6c-0.5,0.5-0.7,1.2-0.7,1.8L13.1,8
		c-0.1,0-0.1,0.1-0.2,0.1c-1.8,1.2-2.6,3.1-2.3,5c0,0.1,0,0.2,0,0.3l0,0c-0.1,0.1-0.2,0.3-0.3,0.4L10.3,14c-0.9,1.4-1.7,2.9-2.1,4.5
		c-0.3,0.9,0,1.6,0.8,2c0.9,0.5,1.9,0.8,2.9,1c0.5,0.1,1,0.2,1.6,0.3c0,0.1,0,0.1,0,0.2c0.1,0.7,0.6,1.2,1.2,1.7
		c0.4,0.3,0.9,0.4,1.4,0.4c0.9,0,1.7-0.4,2.2-1.2c0.3-0.3,0.4-0.7,0.4-1.1l0.2,0c0.2,0,0.3,0,0.5-0.1c1.4-0.2,2.5-0.6,3.6-1.2
		C23.9,20.1,24.2,19.3,23.9,18.5z M18.9,20.9l-0.1,0c-0.1,0-0.2,0-0.4,0c-1.1,0.1-2.1,0.2-3.1,0.1c-0.1,0-0.2,0-0.3,0
		c-0.1,0-0.3,0-0.4,0c-0.1,0-0.3,0-0.4,0c-0.7-0.1-1.4-0.2-2-0.3c0,0,0,0,0,0c-0.9-0.2-1.8-0.5-2.7-1C9,19.5,8.8,19.2,9,18.7
		c0.4-1.5,1.1-2.9,2-4.3l0.1-0.1c0.1-0.2,0.2-0.3,0.3-0.5l0.1-0.1l0,0l0-0.4c0-0.1,0-0.3-0.1-0.4c-0.3-1.6,0.4-3.2,1.9-4.1
		C13.5,8.9,13.5,9,13.6,9C14.2,9.4,15,9.9,16,9.9c1,0,1.8-0.4,2.7-1.1c0.8,0.5,1.4,1.1,1.8,2c0.1,0.2,0.1,0.5,0.1,0.7
		c0,0.5,0,1,0,1.5l0,0.7l0,0l0.1,0.1c0.9,1.3,1.7,2.7,2.3,4.3c0.1,0.2,0.2,0.5,0.2,0.7c0.1,0.5,0,0.8-0.4,1c-1,0.5-2.1,0.9-3.4,1.1
		C19.2,20.9,19,20.9,18.9,20.9z M15,6.6c0.6-0.6,1.4-0.6,2,0c0.6,0.6,0.6,1.5,0,2C16.8,8.9,16.5,9,16.3,9c-0.1,0-0.2,0-0.3,0
		c-0.3,0-0.7-0.1-0.9-0.4C14.4,8.1,14.4,7.2,15,6.6z"/>
</g>
<g>
	<path fill="none" d="M10.3,2.8C10.4,2.9,10.6,3,10.9,3C11.5,3,12,2.5,12,1.9c0-0.6-0.5-1.1-1.1-1.1c-0.6,0-1.1,0.5-1.1,1.1
		c0,0.3,0.1,0.5,0.3,0.7C10.1,2.7,10.2,2.8,10.3,2.8z"/>
	<path fill="#DB470F" d="M6.2,4.7c0-0.1-0.1-0.1-0.1-0.1c-1.5,0.8-3,1.6-4.4,2.4c0.3,0.4,0.6,0.8,0.9,1.3c0.1,0.1,0.2,0.1,0.2,0.2
		C2.9,8.5,2.9,8.6,3,8.7c0,0.1,0.1,0.1,0.1,0.2c0.5,0.6,1.1,1.1,1.7,1.6c0.1,0.1,0.2,0.1,0.2,0.2l0.1,0.1c0.1,0.1,0.2,0.2,0.3,0.2
		c0.8,0.6,1.6,1,2.4,1.2c0.3,0.1,0.6,0,0.8-0.3c0.1-0.2,0.2-0.3,0.3-0.5C9.5,10.2,9.9,9,10,7.8l0-0.1C9.6,7.6,9.2,7.4,8.7,7.1
		C7.7,6.5,6.8,5.7,6.2,4.7z"/>
	<path fill="#FCBCA9" d="M9.7,3.2C9.1,2.6,8.9,1.9,8.8,1.4c0-0.1,0-0.2,0-0.3C7.5,0.8,6.2,1.3,5.5,2.3C5.5,2.4,5.4,2.5,5.3,2.6
		L5.1,2.8l-0.1,0c0,0.1,0,0.2,0.1,0.3C5.3,3.6,5.6,4,5.9,4.4C6,4.4,6,4.5,6,4.5c0.1,0,0.1,0.1,0.1,0.1c0.6,1,1.5,1.8,2.5,2.4
		c0.4,0.2,0.9,0.5,1.3,0.6l0,0l0.4-0.4c0.3-0.3,0.5-0.5,0.8-0.8c0.1-0.1,0.2-0.3,0.3-0.5c0.3-0.7,0.3-1.4,0.1-2.1
		C10.8,3.9,10.2,3.7,9.7,3.2z"/>
	<path fill="#F07D4F" d="M5.9,4.4C5.6,4,5.3,3.6,5.2,3.2c0-0.1-0.1-0.2-0.1-0.3L5,2.8c-0.1,0-0.3,0-0.4,0.1l-0.1,0
		C3.2,3.2,2.1,3.6,1,4.1C0.7,4.3,0.6,4.6,0.7,4.9c0.2,0.7,0.5,1.4,0.9,2c0,0,0,0,0,0C3.1,6.1,4.6,5.3,6,4.5C6,4.5,6,4.4,5.9,4.4z"/>
	<path fill="#B35420" d="M12.2,3.4c0.5-0.4,0.7-1.1,0.5-1.8c-0.1-0.8-0.9-1.6-2-1.6c-0.5,0-1,0.3-1.3,0.6L9.1,0.5
		c-0.1,0-0.1,0-0.2,0C7.3,0.2,5.8,0.7,5,2c0,0.1-0.1,0.1-0.2,0.2l0,0c-0.1,0-0.3,0-0.4,0.1l-0.1,0C3,2.6,1.8,3,0.7,3.6
		C0.1,3.9-0.1,4.5,0.1,5.1c0.2,0.8,0.6,1.5,1,2.1c0.2,0.3,0.4,0.7,0.7,1c0,0,0,0.1-0.1,0.1c-0.3,0.4-0.4,1-0.2,1.6
		c0.1,0.4,0.3,0.7,0.5,1c0.5,0.5,1.2,0.7,1.9,0.6c0.3,0,0.6-0.2,0.8-0.3l0.1,0.1c0.1,0.1,0.2,0.2,0.3,0.2c0.9,0.6,1.7,1,2.6,1.3
		c0.6,0.2,1.2,0,1.5-0.6c0.1-0.2,0.2-0.4,0.3-0.6c0.5-1.2,0.9-2.4,1.1-3.6l0.2-0.2c0.3-0.3,0.5-0.5,0.8-0.8c0.2-0.2,0.4-0.4,0.5-0.7
		c0.3-0.9,0.4-1.8,0.1-2.7L12.2,3.4z M11.6,6.1c-0.1,0.2-0.2,0.3-0.3,0.5c-0.3,0.3-0.6,0.5-0.8,0.8l-0.4,0.4l0,0l0,0.1
		C9.9,9,9.5,10.2,9,11.4c-0.1,0.2-0.2,0.3-0.3,0.5c-0.2,0.3-0.4,0.4-0.8,0.3c-0.8-0.2-1.6-0.6-2.4-1.2c-0.1-0.1-0.2-0.1-0.3-0.2
		l-0.1-0.1c0-0.1-0.1-0.1-0.2-0.2C4.2,9.9,3.7,9.4,3.2,8.8c0-0.1-0.1-0.1-0.1-0.2C2.9,8.6,2.9,8.5,2.8,8.4C2.7,8.3,2.6,8.3,2.6,8.2
		C2.2,7.8,1.9,7.4,1.6,6.9c0,0,0,0,0,0c-0.4-0.6-0.7-1.3-0.9-2C0.6,4.6,0.7,4.3,1,4.1c1-0.6,2.2-1,3.4-1.2l0.1,0
		c0.2,0,0.3-0.1,0.4-0.1l0.1,0l0.1,0l0.2-0.2c0.1-0.1,0.1-0.2,0.2-0.3c0.7-1,2-1.5,3.3-1.2c0,0.1,0,0.2,0,0.3
		c0.1,0.5,0.3,1.2,0.8,1.8c0.5,0.5,1.2,0.8,2.1,0.9C11.9,4.7,11.9,5.4,11.6,6.1z M10.9,0.8c0.6,0,1.1,0.5,1.1,1.1
		C12,2.5,11.5,3,10.9,3c-0.2,0-0.4-0.1-0.6-0.2c-0.1-0.1-0.1-0.1-0.2-0.2C9.9,2.5,9.8,2.2,9.8,1.9C9.8,1.3,10.3,0.8,10.9,0.8z"/>
</g>
<line fill="none" stroke="#A53700" stroke-miterlimit="10" x1="6.2" y1="12.8" x2="6.2" y2="12.8"/>
</svg>
