<svg id="Layer_1" data-name="Layer 1" xmlns="http://www.w3.org/2000/svg" viewBox="0 0 50 50"><defs><style>.cls-1{fill:#fff;}</style></defs><title>dock_icon_10</title><rect class="cls-1" x="13" y="23" width="4" height="1" transform="translate(30 47) rotate(-180)"/><rect class="cls-1" x="13" y="25" width="16" height="1" transform="translate(42 51) rotate(-180)"/><rect class="cls-1" x="13" y="21" width="4" height="1" transform="translate(30 43) rotate(-180)"/><polygon class="cls-1" points="15.02 32.49 23.76 41.24 25.74 39.26 17 30.52 13.5 29 15.02 32.49"/><rect class="cls-1" x="23" y="28" width="10" height="1" transform="translate(67.95 28.85) rotate(135)"/><rect class="cls-1" x="30" y="29" width="1" height="3"/><rect class="cls-1" x="30" y="32" width="4" height="1"/><rect class="cls-1" x="33" y="29" width="1" height="6"/><rect class="cls-1" x="16" y="19" width="3" height="1"/><rect class="cls-1" x="18" y="20" width="1" height="3"/><rect class="cls-1" x="18" y="23" width="3" height="1"/><polygon class="cls-1" points="11 15 11 16 38 16 38 37 39 37 39 15 11 15"/><rect class="cls-1" x="20" y="21" width="9" height="1" transform="translate(49 43) rotate(-180)"/><rect class="cls-1" x="22" y="23" width="7" height="1" transform="translate(51 47) rotate(-180)"/><path class="cls-1" d="M9,16V39H38V16ZM37,38H10V17H37Z"/><polygon class="cls-1" points="13 14 13 15 39 15 39 35 40 35 40 14 13 14"/><polygon class="cls-1" points="15 13 15 14 40 14 40 33 41 33 41 13 15 13"/></svg>