<svg id="Layer_1" data-name="Layer 1" xmlns="http://www.w3.org/2000/svg" viewBox="0 0 50 50"><defs><style>.cls-1{fill:#6d6d6d;}.cls-2{fill:#8e8e8e;}.cls-3{fill:#d1d1d1;}.cls-4{fill:#56a000;}</style></defs><title>dock_icon_07</title><rect class="cls-1" x="11" y="9" width="31" height="27"/><rect class="cls-2" x="9" y="11" width="31" height="27"/><rect class="cls-3" x="7" y="13" width="31" height="27" transform="translate(45 53) rotate(-180)"/><rect class="cls-2" x="12" y="21" width="16" height="1" transform="translate(40 43) rotate(-180)"/><rect class="cls-2" x="12" y="23" width="16" height="1" transform="translate(40 47) rotate(-180)"/><rect class="cls-2" x="12" y="19" width="16" height="1" transform="translate(40 39) rotate(-180)"/><rect class="cls-1" x="7" y="13" width="2" height="27" transform="translate(16 53) rotate(-180)"/><rect class="cls-2" x="19" y="31" width="9" height="1" transform="translate(47 63) rotate(-180)"/><rect class="cls-2" x="21" y="33" width="7" height="1" transform="translate(49 67) rotate(-180)"/><rect class="cls-2" x="17" y="29" width="11" height="1" transform="translate(45 59) rotate(-180)"/><polygon class="cls-1" points="12.34 31.82 22.2 41.68 24.18 39.7 14.32 29.84 10.5 28 12.34 31.82"/><rect class="cls-4" x="25" y="31" width="10" height="1" transform="translate(73.49 32.56) rotate(135)"/><rect class="cls-4" x="32" y="33" width="1" height="2"/><rect class="cls-4" x="32" y="35" width="3" height="1"/><rect class="cls-4" x="34" y="33" width="1" height="5"/><rect class="cls-4" x="17" y="25" width="3" height="1" transform="translate(37 51) rotate(180)"/><rect class="cls-4" x="15" y="17" width="3" height="1"/><rect class="cls-4" x="17" y="18" width="1" height="3"/><rect class="cls-4" x="17" y="21" width="3" height="1"/></svg>