<?xml version="1.0" encoding="utf-8"?>
<!-- Generator: Adobe Illustrator 21.0.0, SVG Export Plug-In . SVG Version: 6.00 Build 0)  -->
<svg version="1.1" id="Layer_1" xmlns="http://www.w3.org/2000/svg" xmlns:xlink="http://www.w3.org/1999/xlink" x="0px" y="0px"
	 viewBox="0 0 32 32" style="enable-background:new 0 0 32 32;" width="16" height="16" xml:space="preserve">
<style type="text/css">
	.st0{fill:#999999;}
	.st1{fill:#7A7A7A;}
	.st2{fill:#FFFFFF;}
</style>
<rect class="st0" width="32" height="32"/>
<polygon class="st1" points="0,32 11.8,32 26,18 26,10 12,4 0,16 "/>
<g>
	<path class="st2" d="M26.1,10c0.7,0.4,1.1,0.9,1.4,1.4c0.3,0.7,0.5,1.3,0.5,2.2c0,2-0.8,3.7-2.6,5c-1.8,1.2-4.2,1.8-7.3,1.8h-0.7
		c-0.8,0-1.5,0.5-1.6,1.3l-0.7,2.9C15,25.3,14.2,26,13.5,26h-2.1c-0.7,0-1.3-0.5-1.1-1.4l0.3-1.4h0.6c0.7,0,1.5-0.5,1.6-1.3l0.7-2.9
		c0.1-0.6,0.9-1.3,1.6-1.3h0.9c3.1,0,5.5-0.7,7.3-1.8c1.8-1.3,2.6-2.9,2.6-5c0-0.4,0-0.9-0.1-1.3C25.8,9.9,26,9.9,26.1,10z
		 M23.8,6.7c-0.3-0.7-0.9-1.1-1.5-1.6c-0.7-0.4-1.5-0.7-2.3-0.9c-1-0.1-1.9-0.3-1.9-0.3h-6.6c-0.7,0-1.6,0.6-1.7,1.4L6,20.5
		c-0.1,0.7,0.3,1.4,1.1,1.4h2.1c0.7,0,1.5-0.5,1.6-1.3l0.7-2.9c0.1-0.6,0.9-1.3,1.6-1.3h0.4c3.4,0,6-0.7,7.9-2
		c1.9-1.4,2.8-3.1,2.8-5.3C24.2,8.1,24.1,7.3,23.8,6.7z M17.8,11.3c-0.9,0.6-2,0.7-2,0.7c-0.7,0.1-1.7,0.1-2.3,0.1
		c-0.4,0-0.7-0.6-0.6-1.4l0.7-2.6c0.1-0.7,1-1.4,1.7-1.4H16c1,0,1.8,0.1,2.3,0.6c0.6,0.3,0.9,0.8,0.9,1.5
		C19.1,9.9,18.7,10.7,17.8,11.3z"/>
</g>
</svg>
