<svg id="Layer_1" data-name="Layer 1" xmlns="http://www.w3.org/2000/svg" viewBox="0 0 50 50"><defs><style>.cls-1{fill:#00aeb7;}.cls-2{fill:#fff;}</style></defs><title>dock_icon_05</title><polygon class="cls-1" points="24.5 11.13 26.94 15.51 31.86 16.48 28.45 20.15 29.05 25.13 24.5 23.02 19.95 25.13 20.55 20.15 17.14 16.48 22.06 15.51 24.5 11.13"/><polygon class="cls-2" points="12.36 11.13 14.8 15.51 19.73 16.48 16.31 20.15 16.91 25.13 12.36 23.02 7.81 25.13 8.41 20.15 5 16.48 9.92 15.51 12.36 11.13"/><polygon class="cls-2" points="36.64 11.13 39.08 15.51 44 16.48 40.59 20.15 41.19 25.13 36.64 23.02 32.09 25.13 32.69 20.15 29.27 16.48 34.2 15.51 36.64 11.13"/><rect class="cls-2" x="6" y="25" width="37" height="17"/><rect class="cls-1" x="18" y="25" width="13" height="17"/></svg>