<svg id="Layer_1" data-name="Layer 1" xmlns="http://www.w3.org/2000/svg" viewBox="0 0 50 50"><defs><style>.cls-1{fill:#d1d1d1;}.cls-2{fill:#8e8e8e;}.cls-3{fill:#495257;}.cls-4{fill:#556365;}.cls-5{fill:#fff;}.cls-6{fill:#6d6d6d;}</style></defs><title>dock_icon_14</title><rect class="cls-1" x="6" y="13" width="38" height="27"/><rect class="cls-2" x="6" y="30" width="38" height="10"/><polygon class="cls-3" points="9.5 23 10.33 25.67 13 25.67 10.84 27.33 11.66 30 9.5 28.35 7.34 30 8.16 27.33 6 25.67 8.67 25.67 9.5 23"/><polygon class="cls-3" points="17.1 23 17.93 25.67 20.6 25.67 18.44 27.33 19.26 30 17.1 28.35 14.94 30 15.76 27.33 13.6 25.67 16.27 25.67 17.1 23"/><polygon class="cls-4" points="24.7 23 25.53 25.67 28.2 25.67 26.04 27.33 26.86 30 24.7 28.35 22.54 30 23.36 27.33 21.2 25.67 23.87 25.67 24.7 23"/><polygon class="cls-5" points="32.3 23 33.13 25.67 35.8 25.67 33.64 27.33 34.46 30 32.3 28.35 30.14 30 30.96 27.33 28.8 25.67 31.47 25.67 32.3 23"/><polygon class="cls-5" points="39.9 23 40.73 25.67 43.4 25.67 41.24 27.33 42.06 30 39.9 28.35 37.74 30 38.56 27.33 36.4 25.67 39.07 25.67 39.9 23"/><rect class="cls-6" x="6" y="38" width="38" height="2"/><rect class="cls-6" x="6" y="36" width="6" height="1"/><rect class="cls-6" x="6" y="34" width="6" height="1"/><rect class="cls-6" x="6" y="32" width="6" height="1"/><rect class="cls-6" x="14" y="32" width="6" height="1"/><rect class="cls-6" x="14" y="34" width="6" height="1"/><rect class="cls-6" x="14" y="36" width="6" height="1"/><rect class="cls-6" x="22" y="36" width="6" height="1"/><rect class="cls-6" x="22" y="34" width="6" height="1"/><rect class="cls-6" x="22" y="32" width="6" height="1"/><rect class="cls-5" x="30" y="36" width="6" height="1"/><rect class="cls-5" x="30" y="34" width="6" height="1"/><rect class="cls-5" x="30" y="32" width="6" height="1"/><rect class="cls-5" x="38" y="36" width="6" height="1"/><rect class="cls-5" x="38" y="34" width="6" height="1"/><rect class="cls-5" x="38" y="32" width="6" height="1"/></svg>