<svg id="Layer_1" data-name="Layer 1" xmlns="http://www.w3.org/2000/svg" viewBox="0 0 50 50"><defs><style>.cls-1{fill:#007ac5;}</style></defs><title>dock_icon_12</title><polygon class="cls-1" points="13.46 14.59 14.52 18 17.93 18 15.17 20.11 16.22 23.52 13.46 21.41 10.71 23.52 11.76 20.11 9 18 12.41 18 13.46 14.59"/><polygon class="cls-1" points="21.15 14.59 22.21 18 25.62 18 22.86 20.11 23.91 23.52 21.15 21.41 18.4 23.52 19.45 20.11 16.69 18 20.1 18 21.15 14.59"/><polygon class="cls-1" points="29.85 14.59 30.9 18 34.31 18 31.55 20.11 32.6 23.52 29.85 21.41 27.09 23.52 28.14 20.11 25.38 18 28.79 18 29.85 14.59"/><path class="cls-1" d="M37.54,18l.1.32.22.7H39l-.41.31-.55.42.21.67.13.42-.27-.21-.61-.46-.61.46-.27.21.13-.42.21-.67-.55-.42L36,19h1.19l.22-.7.1-.32m0-3.39L36.48,18H33.07l2.76,2.11-1.05,3.41,2.76-2.11,2.76,2.11-1.05-3.41L42,18H38.59l-1.05-3.41Z"/><rect class="cls-1" x="10" y="25" width="7" height="12"/><rect class="cls-1" x="18" y="25" width="7" height="12"/><rect class="cls-1" x="26" y="25" width="7" height="12"/><path class="cls-1" d="M40,26V36H35V26h5m1-1H34V37h7V25Z"/><polygon class="cls-1" points="41 38 10 38 10 39 41 39 41 38 41 38"/></svg>