<svg id="Layer_1" data-name="Layer 1" xmlns="http://www.w3.org/2000/svg" viewBox="0 0 50 50"><defs><style>.cls-1{fill:#797979;}</style></defs><title>dock_icon_09</title><polygon class="cls-1" points="29.19 16.09 30.09 19 33 19 30.65 20.8 31.55 23.71 29.19 21.91 26.84 23.71 27.74 20.8 25.38 19 28.29 19 29.19 16.09"/><rect class="cls-1" x="26" y="25" width="6" height="3"/><path class="cls-1" d="M39,26v1H35V26h4m1-1H34v3h6V25Z"/><path class="cls-1" d="M39,30v1H35V30h4m1-1H34v3h6V29Z"/><path class="cls-1" d="M39,34v1H35V34h4m1-1H34v3h6V33Z"/><rect class="cls-1" x="26" y="29" width="6" height="3"/><rect class="cls-1" x="26" y="33" width="6" height="3"/><rect class="cls-1" x="18" y="25" width="6" height="3"/><rect class="cls-1" x="18" y="29" width="6" height="3"/><rect class="cls-1" x="18" y="33" width="6" height="3"/><rect class="cls-1" x="10" y="25" width="6" height="3"/><rect class="cls-1" x="10" y="29" width="6" height="3"/><rect class="cls-1" x="10" y="33" width="6" height="3"/><polygon class="cls-1" points="21.19 16.09 22.09 19 25 19 22.65 20.8 23.55 23.71 21.19 21.91 18.84 23.71 19.74 20.8 17.38 19 20.29 19 21.19 16.09"/><polygon class="cls-1" points="13.19 16.09 14.09 19 17 19 14.65 20.8 15.54 23.71 13.19 21.91 10.84 23.71 11.74 20.8 9.38 19 12.29 19 13.19 16.09"/><path class="cls-1" d="M41,19H38.09l-.9-2.91L36.29,19H33.38l2.35,1.8-.9,2.91,2.35-1.8,2.35,1.8-.9-2.91Zm-2.94,2.8-.86-.66-.86.66.33-1.07-.86-.66h1.07L37.19,19l.33,1.07h1.07l-.86.66Z"/></svg>