<svg id="Layer_1" data-name="Layer 1" xmlns="http://www.w3.org/2000/svg" width="24" height="24" viewBox="0 0 24 24"><defs><style>.cls-1{fill:#cfdbdb;}.cls-2{fill:#b5c3c3;}.cls-3{fill:#acbabb;}.cls-4{fill:#fff;}</style></defs><title>br_notavailable</title><rect class="cls-1" width="24" height="24"/><path class="cls-2" d="M20,12A8,8,0,0,0,6.28,6.39h0L0,12.58V24H11.18L17,18.23A8,8,0,0,0,20,12Z"/><polygon class="cls-3" points="14 7 0 20.5 0 24 4 24 14 14 14 7"/><rect class="cls-4" x="3" y="10" width="7" height="7"/><rect class="cls-4" x="14" y="7" width="7" height="7"/><path class="cls-4" d="M12,4a8,8,0,1,0,8,8A8,8,0,0,0,12,4Zm5.09,9.79c-.73,4.34-5.24,6.86-8.24,5.58S6.69,11,7,9.67c.87-4,5.13-6.3,8.13-5,1.81.77,2.1,3.53,2.2,6A12.76,12.76,0,0,1,17.07,13.79Z"/><polygon class="cls-3" points="4 12.13 6.06 14.52 8.02 11 9 11 9 12.1 6.19 16 4 13.94 4 12.13"/><polygon class="cls-3" points="15 9.13 17.06 11.52 19.02 8 20 8 20 9.1 17.19 13 15 10.94 15 9.13"/><polygon class="cls-4" points="8.8 19.35 12.73 17.64 12.73 21.45 8.8 19.35"/><polygon class="cls-4" points="15 4.6 11.08 6.32 11.08 2.5 15 4.6"/></svg>