<svg id="Layer_1" data-name="Layer 1" xmlns="http://www.w3.org/2000/svg" viewBox="0 0 50 50"><defs><style>.cls-1{fill:#007ac5;}.cls-2{fill:#fff;}</style></defs><title>dock_icon_12</title><path class="cls-1" d="M37,18V37H12V18H37m1-1H11V38H38V17Z"/><rect class="cls-1" x="18" y="32" width="16" height="1"/><rect class="cls-1" x="18" y="34" width="16" height="1"/><rect class="cls-1" x="18" y="28" width="4" height="1"/><rect class="cls-1" x="18" y="30" width="16" height="1"/><rect class="cls-1" x="18" y="24" width="4" height="1"/><rect class="cls-1" x="18" y="26" width="4" height="1"/><rect class="cls-1" x="18" y="20" width="4" height="1"/><rect class="cls-1" x="18" y="22" width="4" height="1"/><rect class="cls-1" x="24" y="13" width="16" height="15"/><polygon class="cls-2" points="34.88 21.83 32.99 20.54 32.99 17.2 31.52 17.2 31.52 21.37 33.97 23.07 34.88 21.83"/><path class="cls-2" d="M32.26,15a5.5,5.5,0,0,0-5.09,7.57l1.19-.47a4.23,4.23,0,1,1,2.18,2.25L30,25.52A5.5,5.5,0,1,0,32.26,15Z"/><polygon class="cls-2" points="28.21 24.39 25.42 21.32 27.6 21.45 29.73 20.58 28.21 24.39"/><rect class="cls-1" x="15" y="20" width="1" height="1"/><rect class="cls-1" x="15" y="22" width="1" height="1"/><rect class="cls-1" x="15" y="24" width="1" height="1"/><rect class="cls-1" x="15" y="26" width="1" height="1"/><rect class="cls-1" x="15" y="28" width="1" height="1"/><rect class="cls-1" x="15" y="30" width="1" height="1"/><rect class="cls-1" x="15" y="32" width="1" height="1"/><rect class="cls-1" x="15" y="34" width="1" height="1"/></svg>