<svg id="Layer_1" data-name="Layer 1" xmlns="http://www.w3.org/2000/svg" viewBox="0 0 50 50"><defs><style>.cls-1{fill:#fff;}</style></defs><title>dock_icon_10</title><rect class="cls-1" x="16" y="31" width="17" height="1"/><rect class="cls-1" x="16" y="33" width="17" height="1"/><rect class="cls-1" x="16" y="27" width="4" height="1"/><rect class="cls-1" x="16" y="29" width="4" height="1"/><rect class="cls-1" x="16" y="23" width="4" height="1"/><rect class="cls-1" x="16" y="25" width="4" height="1"/><rect class="cls-1" x="16" y="19" width="4" height="1"/><rect class="cls-1" x="16" y="21" width="4" height="1"/><path class="cls-1" d="M22,11V30H41V11Zm9.39,16.11a6.58,6.58,0,0,1-2.69-.58l.63-1.4a5.16,5.16,0,1,0-2.92-3.74l1.94-.79-1.82,4.58-3.36-3.69,1.7.1a6.54,6.54,0,0,1-.1-1.08,6.61,6.61,0,1,1,6.61,6.61Zm3.15-5-1.1,1.49-2.94-2v-5h1.76v4Z"/><rect class="cls-1" x="13" y="19" width="1" height="1"/><rect class="cls-1" x="13" y="21" width="1" height="1"/><rect class="cls-1" x="13" y="23" width="1" height="1"/><rect class="cls-1" x="13" y="25" width="1" height="1"/><rect class="cls-1" x="13" y="27" width="1" height="1"/><rect class="cls-1" x="13" y="29" width="1" height="1"/><rect class="cls-1" x="13" y="31" width="1" height="1"/><rect class="cls-1" x="13" y="33" width="1" height="1"/><rect class="cls-1" x="9" y="16" width="2" height="21"/><polygon class="cls-1" points="36 30 36 36 10 36 10 17 22 17 22 16 9 16 9 37 37 37 37 30 36 30"/></svg>