<svg id="Layer_1" data-name="Layer 1" xmlns="http://www.w3.org/2000/svg" viewBox="0 0 50 50"><defs><style>.cls-1{fill:#d1d1d1;}.cls-2{fill:#8e8e8e;}.cls-3{fill:#495257;}.cls-4{fill:#556365;}.cls-5{fill:#fff;}.cls-6{fill:#6d6d6d;}</style></defs><title>dock_icon_14</title><rect class="cls-1" x="6" y="16" width="34" height="25"/><rect class="cls-2" x="13" y="35" width="23" height="1"/><rect class="cls-2" x="13" y="37" width="23" height="1"/><rect class="cls-2" x="13" y="31" width="23" height="1"/><rect class="cls-2" x="13" y="33" width="23" height="1"/><rect class="cls-2" x="13" y="27" width="23" height="1"/><rect class="cls-2" x="13" y="29" width="23" height="1"/><rect class="cls-2" x="13" y="23" width="23" height="1"/><rect class="cls-2" x="13" y="25" width="23" height="1"/><rect class="cls-2" x="13" y="19" width="23" height="1"/><rect class="cls-2" x="13" y="21" width="23" height="1"/><rect class="cls-3" x="24" y="11" width="20" height="19"/><rect class="cls-4" x="6" y="40" width="34" height="1"/><polygon class="cls-5" points="38.08 22.31 35.5 20.56 35.5 16 33.5 16 33.5 21.69 36.84 24 38.08 22.31"/><path class="cls-5" d="M34.5,13a7.49,7.49,0,0,0-6.95,10.32l1.63-.64a5.76,5.76,0,1,1,3,3.06l-.72,1.59A7.5,7.5,0,1,0,34.5,13Z"/><polygon class="cls-5" points="28.99 25.81 25.18 21.62 28.16 21.79 31.05 20.61 28.99 25.81"/><rect class="cls-5" x="10" y="19" width="1" height="1"/><polygon class="cls-6" points="11 19 10 19 10 20 11 20 11 19 11 19"/><rect class="cls-5" x="10" y="21" width="1" height="1"/><polygon class="cls-6" points="11 21 10 21 10 22 11 22 11 21 11 21"/><rect class="cls-5" x="10" y="23" width="1" height="1"/><polygon class="cls-6" points="11 23 10 23 10 24 11 24 11 23 11 23"/><rect class="cls-5" x="10" y="25" width="1" height="1"/><polygon class="cls-6" points="11 25 10 25 10 26 11 26 11 25 11 25"/><rect class="cls-5" x="10" y="27" width="1" height="1"/><polygon class="cls-6" points="11 27 10 27 10 28 11 28 11 27 11 27"/><rect class="cls-5" x="10" y="29" width="1" height="1"/><polygon class="cls-6" points="11 29 10 29 10 30 11 30 11 29 11 29"/><rect class="cls-5" x="10" y="31" width="1" height="1"/><polygon class="cls-6" points="11 31 10 31 10 32 11 32 11 31 11 31"/><rect class="cls-5" x="10" y="33" width="1" height="1"/><polygon class="cls-6" points="11 33 10 33 10 34 11 34 11 33 11 33"/><rect class="cls-5" x="10" y="35" width="1" height="1"/><polygon class="cls-6" points="11 35 10 35 10 36 11 36 11 35 11 35"/><rect class="cls-5" x="10" y="37" width="1" height="1"/><polygon class="cls-6" points="11 37 10 37 10 38 11 38 11 37 11 37"/></svg>