<?xml version="1.0" encoding="utf-8"?>
<!-- Generator: Adobe Illustrator 18.0.0, SVG Export Plug-In . SVG Version: 6.00 Build 0)  -->
<!DOCTYPE svg PUBLIC "-//W3C//DTD SVG 1.1//EN" "http://www.w3.org/Graphics/SVG/1.1/DTD/svg11.dtd">
<svg version="1.1" xmlns="http://www.w3.org/2000/svg" xmlns:xlink="http://www.w3.org/1999/xlink" x="0px" y="0px"
	 viewBox="0 0 23 23" enable-background="new 0 0 23 23" xml:space="preserve" width="23" height="23">
<g id="switch_x5F_minus" display="none">
	<g display="inline">
		<g>
			<path fill="#757575" d="M23,19.5c0,1.9-1.6,3.5-3.5,3.5h-16C1.6,23,0,21.4,0,19.5v-16C0,1.6,1.6,0,3.5,0h16C21.4,0,23,1.6,23,3.5
				V19.5z M22,3.5C22,2.1,20.9,1,19.5,1h-16C2.1,1,1,2.1,1,3.5v16C1,20.9,2.1,22,3.5,22h16c1.4,0,2.5-1.1,2.5-2.5V3.5z"/>
		</g>
	</g>
	<rect x="5" y="11" display="inline" fill="#757575" width="13" height="1"/>
</g>
<g id="switch_x5F_plus">
	<g>
		<g>
			<g>
				<path fill="#757575" d="M19.5,23h-16C1.6,23,0,21.4,0,19.5v-16C0,1.6,1.6,0,3.5,0h16C21.4,0,23,1.6,23,3.5v16
					C23,21.4,21.4,23,19.5,23z M3.5,1C2.1,1,1,2.1,1,3.5v16C1,20.9,2.1,22,3.5,22h16c1.4,0,2.5-1.1,2.5-2.5v-16
					C22,2.1,20.9,1,19.5,1H3.5z"/>
			</g>
		</g>
		<rect x="5" y="11" fill="#757575" width="13" height="1"/>
		<rect x="11" y="5" fill="#757575" width="1" height="13"/>
	</g>
</g>
<g id="dockclose" display="none">
	<g display="inline">
		<g>
			<g>
				<path fill="#757575" d="M19.5,23h-16C1.6,23,0,21.4,0,19.5v-16C0,1.6,1.6,0,3.5,0h16C21.4,0,23,1.6,23,3.5v16
					C23,21.4,21.4,23,19.5,23z M3.5,1C2.1,1,1,2.1,1,3.5v16C1,20.9,2.1,22,3.5,22h16c1.4,0,2.5-1.1,2.5-2.5v-16
					C22,2.1,20.9,1,19.5,1H3.5z"/>
			</g>
		</g>
		<rect x="11" y="5.2" transform="matrix(0.7071 0.7071 -0.7071 0.7071 11.6715 -4.692)" fill="#757575" width="1" height="13"/>
		<rect x="5" y="11.2" transform="matrix(0.7071 0.7071 -0.7071 0.7071 11.6715 -4.692)" fill="#757575" width="13" height="1"/>
	</g>
</g>
<g id="dockclose_1_" display="none">
	<g display="inline">
		<g>
			<g>
				<path fill="#757575" d="M19.5,23h-16C1.6,23,0,21.4,0,19.5v-16C0,1.6,1.6,0,3.5,0h16C21.4,0,23,1.6,23,3.5v16
					C23,21.4,21.4,23,19.5,23z M3.5,1C2.1,1,1,2.1,1,3.5v16C1,20.9,2.1,22,3.5,22h16c1.4,0,2.5-1.1,2.5-2.5v-16
					C22,2.1,20.9,1,19.5,1H3.5z"/>
			</g>
		</g>
		<polygon fill="#757575" points="18,12 17,12 17,6 11,6 11,5 18,5 		"/>
		<polygon fill="#757575" points="12,18 5,18 5,11 6,11 6,17 12,17 		"/>
	</g>
</g>
<g id="block_x5F_to_x5F_dock" display="none">
	<g display="inline">
		<g>
			<path fill="#757575" d="M19.5,23h-16C1.6,23,0,21.4,0,19.5v-16C0,1.6,1.6,0,3.5,0h16C21.4,0,23,1.6,23,3.5v16
				C23,21.4,21.4,23,19.5,23z M3.5,1C2.1,1,1,2.1,1,3.5v16C1,20.9,2.1,22,3.5,22h16c1.4,0,2.5-1.1,2.5-2.5v-16C22,2.1,20.9,1,19.5,1
				H3.5z"/>
		</g>
	</g>
	<polygon display="inline" fill="#757575" points="17.5,15.2 11.5,9.2 5.5,15.2 4.8,14.5 11.5,7.8 18.2,14.5 	"/>
</g>
<g id="dock_x5F_to_x5F_block" display="none">
	<g display="inline">
		<g>
			<path fill="#757575" d="M19.5,23h-16C1.6,23,0,21.4,0,19.5v-16C0,1.6,1.6,0,3.5,0h16C21.4,0,23,1.6,23,3.5v16
				C23,21.4,21.4,23,19.5,23z M3.5,1C2.1,1,1,2.1,1,3.5v16C1,20.9,2.1,22,3.5,22h16c1.4,0,2.5-1.1,2.5-2.5v-16C22,2.1,20.9,1,19.5,1
				H3.5z"/>
		</g>
	</g>
	<polygon display="inline" fill="#757575" points="11.5,15.2 4.8,8.5 5.5,7.8 11.5,13.8 17.5,7.8 18.2,8.5 	"/>
</g>
</svg>
