<?xml version="1.0" encoding="utf-8"?>
<!-- Generator: Adobe Illustrator 18.0.0, SVG Export Plug-In . SVG Version: 6.00 Build 0)  -->
<!DOCTYPE svg PUBLIC "-//W3C//DTD SVG 1.1//EN" "http://www.w3.org/Graphics/SVG/1.1/DTD/svg11.dtd">
<svg version="1.1" id="Layer_1" xmlns="http://www.w3.org/2000/svg" xmlns:xlink="http://www.w3.org/1999/xlink" x="0px" y="0px"
	 viewBox="0 0 23 23" enable-background="new 0 0 23 23" width="23" height="23" xml:space="preserve">
<g>
	<g>
		<rect x="11" y="17" fill="#757575" width="1" height="1"/>
		<path fill="#757575" d="M16,9V8c0-3-4-3-4-3h-1c0,0-4-0.2-4,3v1h1V8c0,0-0.1-2,3-2h1c3.1,0,3,2,3,2v1c0,0,0.1,1-2,1.7
			c-1.3,0.4-2,1.5-2,3.3v1h1v-1c0,0-0.1-1.9,1.6-2.5C16.3,10.5,16,9,16,9z"/>
	</g>
	<g>
		<g>
			<g>
				<path fill="#757575" d="M22,1v21H1V1H22 M23,0H0v23h23V0L23,0z"/>
			</g>
		</g>
	</g>
</g>
</svg>
