<?xml version="1.0" encoding="utf-8"?>
<!-- Generator: Adobe Illustrator 21.0.0, SVG Export Plug-In . SVG Version: 6.00 Build 0)  -->
<svg version="1.1" id="Layer_1" xmlns="http://www.w3.org/2000/svg" xmlns:xlink="http://www.w3.org/1999/xlink" x="0px" y="0px"
	 viewBox="0 0 30 30" style="enable-background:new 0 0 30 30;" width="30" height="30" xml:space="preserve">
<style type="text/css">
	.st0{fill:#999999;}
</style>
<g>
	<path class="st0" d="M18.9,21c1.4,0,2.8,0,4.3,0c-0.7-2-1.4-2.8-2.1-4.3C20.3,18.2,19.6,19,18.9,21z"/>
	<path class="st0" d="M0,0v30h30V0H0z M10.5,16.6C9.3,17.4,8,18,6.7,18.4c-0.7,0.2-1.3-0.1-1.5-0.7c-0.2-0.6,0.1-1.2,0.7-1.4
		c0.9-0.4,1.7-0.8,2.6-1.1c0.1,0,0.2-0.1,0.2-0.1c-0.7-0.7-1.4-1.4-2.1-2.1c-0.5-0.5-0.9-1.1-1.3-1.6C4.9,10.7,5.1,10,5.6,9.6
		C6.2,9.2,6.8,9.4,7.2,10c0.9,1.4,2,2.5,3.4,3.5C12.3,11.7,12.9,10,13,7c-0.1,0-0.2,0-0.3,0C9.9,7,7.2,7,4.4,7.1
		C3.7,7.1,3,6.9,3,6.3c0-0.2,0-0.4,0-0.5c0-0.7,0.7-0.8,1.4-0.8C6.1,5,7.7,5,9.4,5c0.1,0,0.2,0,0.3,0c0,0,0-0.5,0-0.7
		C9.6,3.6,9.9,3,10.6,3c0.2,0,0.3,0,0.5,0C11.7,3,12,3.6,12,4.3c0,0.3,0,0.7,0,0.7c0.1,0,0.2,0,0.3,0c1.8,0,3.6,0,5.3,0
		c0.5,0,0.8,0.1,1,0.5c0.2,0.4,0.2,0.7-0.1,1.1C18.3,7,18,7.1,17.6,7.1c-0.7,0-1.3-0.1-2-0.1c-0.1,0-0.2,0-0.3,0
		c-0.1,3-0.8,5.6-2.8,7.8c0.7,0.3,1.4,0.7,2.1,1c0.4,0.2,0.8,0.3,1.1,0.4c0.6,0.2,0.9,0.9,0.7,1.5c-0.2,0.6-0.8,0.9-1.4,0.7
		c-1.4-0.5-2.8-1.1-4-1.9C10.8,16.4,10.7,16.4,10.5,16.6z M27,26.3c-0.5,0.1-1-0.1-1.3-0.6c-0.4-0.8-0.9-1.7-1.3-2.5
		c-0.1-0.2-0.2-0.2-0.4-0.2c-2,0-4,0-6,0c-0.2,0-0.3,0.1-0.4,0.3c-0.4,0.8-0.8,1.7-1.3,2.5c-0.2,0.5-0.6,0.7-1.1,0.6
		c-0.5,0-0.8-0.3-0.9-0.7c-0.1-0.4-0.1-0.7,0.1-1c1.1-2.3,2.3-4.6,3.4-6.8c0.7-1.4,1.4-2.9,2.2-4.3c0.2-0.5,0.6-0.7,1.1-0.7
		c0.5,0,0.9,0.3,1.1,0.7c1.8,3.7,3.7,7.4,5.5,11.1c0.1,0.2,0.2,0.4,0.2,0.7C27.9,25.7,27.5,26.1,27,26.3z"/>
</g>
</svg>
