<svg id="Layer_1" data-name="Layer 1" xmlns="http://www.w3.org/2000/svg" viewBox="0 0 50 50"><defs><style>.cls-1{fill:#6d6d6d;}</style></defs><title>dock_icon_13</title><path class="cls-1" d="M40,14V37H10V14H40m1-1H9V38H41V13Z"/><rect class="cls-1" x="28" y="31" width="10" height="1"/><rect class="cls-1" x="12" y="31" width="13" height="1"/><rect class="cls-1" x="26" y="31" width="2" height="1"/><rect class="cls-1" x="29" y="28" width="7" height="2"/><rect class="cls-1" x="15" y="28" width="13" height="2"/><rect class="cls-1" x="12" y="24" width="11" height="3"/><rect class="cls-1" x="24" y="24" width="4" height="3"/><rect class="cls-1" x="29" y="24" width="9" height="3"/><rect class="cls-1" x="15" y="21" width="8" height="2"/><rect class="cls-1" x="24" y="21" width="12" height="2"/><rect class="cls-1" x="28" y="19" width="10" height="1"/><rect class="cls-1" x="12" y="19" width="8" height="1"/><rect class="cls-1" x="26" y="19" width="2" height="1"/><rect class="cls-1" x="21" y="19" width="4" height="1"/><rect class="cls-1" x="12" y="16" width="3" height="1"/><rect class="cls-1" x="15" y="16" width="4" height="1"/><rect class="cls-1" x="20" y="16" width="3" height="1"/><rect class="cls-1" x="23" y="16" width="5" height="1"/><rect class="cls-1" x="29" y="16" width="6" height="1"/><rect class="cls-1" x="32" y="34" width="6" height="1"/><rect class="cls-1" x="29" y="34" width="2" height="1"/><rect class="cls-1" x="23" y="34" width="5" height="1"/><rect class="cls-1" x="15" y="34" width="7" height="1"/></svg>