<svg id="Layer_1" data-name="Layer 1" xmlns="http://www.w3.org/2000/svg" viewBox="0 0 50 50"><defs><style>.cls-1{fill:#d1d1d1;}.cls-2{fill:#6d6d6d;}.cls-3{fill:#00aeb7;}.cls-4{fill:#8e8e8e;}.cls-5{fill:#0089a0;}.cls-6{fill:#fff;}</style></defs><title>dock_icon_08</title><rect class="cls-1" x="6" y="14" width="38" height="27"/><rect class="cls-2" x="32" y="33" width="10" height="1"/><rect class="cls-3" x="15" y="33" width="13" height="1"/><rect class="cls-2" x="29" y="33" width="2" height="1"/><rect class="cls-2" x="33" y="30" width="7" height="2"/><rect class="cls-2" x="19" y="30" width="13" height="2"/><rect class="cls-2" x="15" y="26" width="11" height="3"/><rect class="cls-2" x="27" y="26" width="5" height="3"/><rect class="cls-3" x="33" y="26" width="9" height="3"/><rect class="cls-3" x="19" y="23" width="7" height="2" transform="translate(45 48) rotate(180)"/><rect class="cls-2" x="27" y="23" width="13" height="2" transform="translate(67 48) rotate(180)"/><rect class="cls-3" x="32" y="21" width="10" height="1"/><rect class="cls-2" x="15" y="21" width="7" height="1"/><rect class="cls-2" x="29" y="21" width="2" height="1"/><rect class="cls-2" x="23" y="21" width="5" height="1"/><rect class="cls-4" x="15" y="19" width="3" height="1"/><rect class="cls-4" x="19" y="19" width="2" height="1"/><rect class="cls-4" x="22" y="19" width="3" height="1"/><rect class="cls-4" x="25" y="19" width="6" height="1"/><rect class="cls-4" x="32" y="19" width="6" height="1"/><rect class="cls-4" x="36" y="35" width="6" height="1" transform="translate(78 71) rotate(180)"/><rect class="cls-4" x="33" y="35" width="2" height="1" transform="translate(68 71) rotate(180)"/><rect class="cls-4" x="26" y="35" width="6" height="1" transform="translate(58 71) rotate(180)"/><rect class="cls-4" x="19" y="35" width="6" height="1" transform="translate(44 71) rotate(180)"/><rect class="cls-4" x="6" y="28" width="7" height="13"/><rect class="cls-5" x="6" y="14" width="7" height="14"/><rect class="cls-6" x="8" y="16" width="3" height="3"/></svg>