<svg id="Layer_1" data-name="Layer 1" xmlns="http://www.w3.org/2000/svg" viewBox="0 0 50 50"><defs><style>.cls-1{fill:#007ac5;}</style></defs><title>dock_icon_12</title><path class="cls-1" d="M38,14V35H11V14H38m1-1H10V37H39V13Z"/><rect class="cls-1" x="27" y="30" width="9" height="1"/><rect class="cls-1" x="13" y="30" width="11" height="1"/><rect class="cls-1" x="25" y="30" width="2" height="1"/><rect class="cls-1" x="28" y="27" width="6" height="2"/><rect class="cls-1" x="16" y="27" width="11" height="2"/><rect class="cls-1" x="13" y="23" width="9" height="3"/><rect class="cls-1" x="23" y="23" width="4" height="3"/><rect class="cls-1" x="28" y="23" width="8" height="3"/><rect class="cls-1" x="16" y="20" width="6" height="2" transform="translate(38 42) rotate(180)"/><rect class="cls-1" x="23" y="20" width="11" height="2" transform="translate(57 42) rotate(180)"/><rect class="cls-1" x="27" y="18" width="9" height="1"/><rect class="cls-1" x="13" y="18" width="6" height="1"/><rect class="cls-1" x="25" y="18" width="2" height="1"/><rect class="cls-1" x="20" y="18" width="4" height="1"/><rect class="cls-1" x="13" y="16" width="3" height="1"/><rect class="cls-1" x="16" y="16" width="2" height="1"/><rect class="cls-1" x="19" y="16" width="3" height="1"/><rect class="cls-1" x="22" y="16" width="5" height="1"/><rect class="cls-1" x="28" y="16" width="5" height="1"/><rect class="cls-1" x="31" y="32" width="5" height="1" transform="translate(67 65) rotate(180)"/><rect class="cls-1" x="28" y="32" width="2" height="1" transform="translate(58 65) rotate(180)"/><rect class="cls-1" x="22" y="32" width="5" height="1" transform="translate(49 65) rotate(180)"/><rect class="cls-1" x="16" y="32" width="5" height="1" transform="translate(37 65) rotate(180)"/></svg>