<svg id="Layer_1" data-name="Layer 1" xmlns="http://www.w3.org/2000/svg" viewBox="0 0 50 50"><defs><style>.cls-1{fill:#d1d1d1;}.cls-2,.cls-7{fill:#fff;}.cls-3{fill:#6d6d6d;}.cls-4{fill:#c60021;}.cls-5{fill:#8e8e8e;}.cls-6{fill:#d8414c;}.cls-7{font-size:12px;font-family:OpenSans-Extrabold, Open Sans;font-weight:700;}</style></defs><title>dock_icon_01</title><rect class="cls-1" x="8" y="16" width="36" height="22"/><rect class="cls-2" x="19" y="10" width="25" height="25"/><path class="cls-3" d="M43,11V34H20V11H43m1-1H19V35H44V10Z"/><path class="cls-3" d="M40.12,31.09c-.2-.1-4.32-2.3-4.63-2.45a.12.12,0,0,1-.08-.12,4.17,4.17,0,0,0-.36-1.45A.16.16,0,0,0,35,27l-.49-.19c-.13,0-.25-.12-.25-.27,0-.48,0-1-.06-1.43a.45.45,0,0,1,0-.19c0-.1.1-.19.15-.28a7.5,7.5,0,0,0,.6-1.56c0-.16.08-.32.12-.49a.29.29,0,0,0,.33-.19,2,2,0,0,0,.15-.35c.11-.38.22-.76.32-1.14A2.78,2.78,0,0,0,36,20c0-.23-.09-.3-.33-.29,0,0,0-.1,0-.15l.15-1.6c0-.26,0-.52.07-.78a2.82,2.82,0,0,0-.23-1.47.77.77,0,0,0-.5-.49.16.16,0,0,1-.12-.16.7.7,0,0,0-.19-.42,4.22,4.22,0,0,0-.91-.72A4.14,4.14,0,0,0,32,13.35c-.35,0-.7,0-1,0a1.91,1.91,0,0,1-1.1-.32,1.11,1.11,0,0,0,.5.58,2.43,2.43,0,0,1-.42-.05l-.4-.12v0l.35.21c-.31.1-.66.2-1,.31a1.77,1.77,0,0,0-.64.42,1.93,1.93,0,0,0-.43.74.76.76,0,0,1-.25.38,1.59,1.59,0,0,0-.47.54,1.84,1.84,0,0,0-.25,1c0,.39.07.78.11,1.17l.11,1.19c0,.1,0,.2,0,.31-.22,0-.32.05-.33.27,0,.06,0,.13,0,.19a3.59,3.59,0,0,0,.12.83,7.39,7.39,0,0,0,.38,1.26c.07.17.16.34.4.31,0,.1,0,.2.06.29.1.34.19.68.31,1s.26.58.4.87a1.27,1.27,0,0,1,.12.27,1.44,1.44,0,0,1,0,.33c0,.37,0,.74,0,1.1a.36.36,0,0,1-.26.35l-.48.18a.17.17,0,0,0-.08.08c0,.1-.09.21-.12.31a3.94,3.94,0,0,0-.24,1.16.1.1,0,0,1-.07.1c-.34.16-4.39,2.34-4.51,2.39a1.58,1.58,0,0,0-.86.71,3.06,3.06,0,0,0-.16.46V33H41v-.82a3.47,3.47,0,0,0-.16-.45A1.5,1.5,0,0,0,40.12,31.09Z"/><rect class="cls-4" x="24" y="13" width="15" height="1"/><rect class="cls-5" x="8" y="38" width="36" height="1"/><rect class="cls-4" x="27" y="13" width="9" height="5"/><ellipse class="cls-6" cx="16.5" cy="32.31" rx="11.5" ry="9.58"/><polygon class="cls-6" points="14.31 39.58 6.64 44.08 8.28 36.38 14.31 39.58"/><text class="cls-7" transform="translate(10 37.13)">..?</text><rect class="cls-5" x="8" y="13" width="11" height="3"/></svg>