<svg id="Layer_1" data-name="Layer 1" xmlns="http://www.w3.org/2000/svg" viewBox="0 0 50 50"><defs><style>.cls-1{fill:#a6a6a6;}</style></defs><title>dock_icon_11</title><rect class="cls-1" x="26" y="14" width="12" height="1"/><rect class="cls-1" x="28.73" y="14" width="6.53" height="4"/><path class="cls-1" d="M18.5,18.72C12.15,18.72,7,23,7,28.31s5.15,9.58,11.5,9.58S30,33.6,30,28.31,24.85,18.72,18.5,18.72ZM14.63,33a1.25,1.25,0,0,1-.88.3,1.34,1.34,0,0,1-.91-.29,1,1,0,0,1-.33-.83,1.07,1.07,0,0,1,.32-.83,1.33,1.33,0,0,1,.93-.29,1.25,1.25,0,0,1,.89.29,1.09,1.09,0,0,1,.31.83A1.07,1.07,0,0,1,14.63,33Zm3.47,0a1.25,1.25,0,0,1-.88.3,1.34,1.34,0,0,1-.91-.29,1,1,0,0,1-.33-.83,1.07,1.07,0,0,1,.32-.83,1.33,1.33,0,0,1,.93-.29,1.25,1.25,0,0,1,.89.29,1.09,1.09,0,0,1,.31.83A1.07,1.07,0,0,1,18.1,33Zm4.44,0a1.28,1.28,0,0,1-.89.29,1.32,1.32,0,0,1-.91-.29,1,1,0,0,1-.33-.83,1.08,1.08,0,0,1,.31-.83,1.31,1.31,0,0,1,.92-.29,1.26,1.26,0,0,1,.9.3,1.09,1.09,0,0,1,.31.83A1.05,1.05,0,0,1,22.54,33Zm1.91-5.18a3.37,3.37,0,0,1-1.06,1,4.09,4.09,0,0,0-.77.58.66.66,0,0,0-.16.44v.3h-1.8v-.5a1.87,1.87,0,0,1,.23-1,2.46,2.46,0,0,1,.83-.77,3.12,3.12,0,0,0,.68-.54.82.82,0,0,0,.21-.55.44.44,0,0,0-.22-.39,1.05,1.05,0,0,0-.58-.14,4.56,4.56,0,0,0-2.07.63l-.81-1.59a6.07,6.07,0,0,1,3-.83A3.28,3.28,0,0,1,24,25a1.87,1.87,0,0,1,.74,1.56A2.23,2.23,0,0,1,24.45,27.8Z"/><polygon class="cls-1" points="16.31 35.58 8.64 40.08 10.28 32.38 16.31 35.58"/><path class="cls-1" d="M22,12v6.15c.34.08.67.18,1,.29V13H41V31H30.57a9.36,9.36,0,0,1-.38,1H42V12Z"/><path class="cls-1" d="M38.88,29a1.13,1.13,0,0,0-.52-.51c-.14-.08-3.14-1.84-3.36-2a.09.09,0,0,1-.06-.09,3.61,3.61,0,0,0-.26-1.16.13.13,0,0,0-.06-.07L34.27,25a.25.25,0,0,1-.19-.22c0-.38,0-.76,0-1.15a.39.39,0,0,1,0-.15c0-.08.07-.15.11-.23a6.38,6.38,0,0,0,.43-1.25c0-.13.06-.26.09-.39.12,0,.19-.05.24-.15a1.64,1.64,0,0,0,.11-.28c.08-.3.16-.61.23-.92a2.43,2.43,0,0,0,.07-.72c0-.18-.07-.24-.24-.23,0,0,0-.08,0-.12L35.22,18c0-.21,0-.42.05-.63a2.46,2.46,0,0,0-.17-1.17.59.59,0,0,0-.36-.39c-.07,0-.08-.06-.09-.13a.59.59,0,0,0-.14-.33,3.27,3.27,0,0,0-.73-.62,2.3,2.3,0,0,0-1-.38,7.36,7.36,0,0,0-1.13-.06,1.29,1.29,0,0,1-.8-.25.87.87,0,0,0,.36.47,1.62,1.62,0,0,1-.31,0l-.29-.09h0l.25.17c-.23.08-.48.16-.72.25a1.28,1.28,0,0,0-.46.33,1.59,1.59,0,0,0-.31.59.62.62,0,0,1-.18.31,1.24,1.24,0,0,0-.34.43,1.59,1.59,0,0,0-.18.81c0,.31.05.62.08.94l.08,1c0,.08,0,.16,0,.25-.16,0-.23,0-.24.21s0,.1,0,.15a3.15,3.15,0,0,0,.09.67,6.36,6.36,0,0,0,.28,1c.05.13.11.28.29.25,0,.08,0,.16,0,.23.07.27.14.54.23.8s.19.46.29.7a1.07,1.07,0,0,1,.09.22,1.26,1.26,0,0,1,0,.26c0,.07,0,.14,0,.21a9.16,9.16,0,0,1,1,4.21A9,9,0,0,1,30.82,30H39v-.66A3,3,0,0,0,38.88,29Z"/><path class="cls-1" d="M29.69,33a11,11,0,0,1-2.63,3H42V33Z"/></svg>