<svg id="Layer_1" data-name="Layer 1" xmlns="http://www.w3.org/2000/svg" viewBox="0 0 50 50"><defs><style>.cls-1,.cls-3{fill:#fff;}.cls-2{fill:#007ac5;}.cls-3{font-size:12px;font-family:OpenSans-Extrabold, Open Sans;font-weight:700;}</style></defs><title>dock_icon_12</title><rect class="cls-1" x="17.5" y="13.5" width="24" height="24"/><path class="cls-2" d="M41,14V37H18V14H41m1-1H17V38H42V13Z"/><path class="cls-2" d="M38.12,34.09c-.2-.1-4.32-2.3-4.63-2.45a.12.12,0,0,1-.08-.12,4.17,4.17,0,0,0-.36-1.45A.16.16,0,0,0,33,30l-.49-.19c-.13,0-.25-.12-.25-.27,0-.48,0-1-.06-1.43a.45.45,0,0,1,0-.19c0-.1.1-.19.15-.28a7.5,7.5,0,0,0,.6-1.56c0-.16.08-.32.12-.49a.29.29,0,0,0,.33-.19,2,2,0,0,0,.15-.35c.11-.38.22-.76.32-1.14A2.78,2.78,0,0,0,34,23c0-.23-.09-.3-.33-.29,0,0,0-.1,0-.15l.15-1.6c0-.26,0-.52.07-.78a2.82,2.82,0,0,0-.23-1.47.77.77,0,0,0-.5-.49.16.16,0,0,1-.12-.16.7.7,0,0,0-.19-.42,4.22,4.22,0,0,0-.91-.72A4.14,4.14,0,0,0,30,16.35c-.35,0-.7,0-1,0a1.91,1.91,0,0,1-1.1-.32,1.11,1.11,0,0,0,.5.58,2.43,2.43,0,0,1-.42-.05l-.4-.12v0l.35.21c-.31.1-.66.2-1,.31a1.77,1.77,0,0,0-.64.42,1.93,1.93,0,0,0-.43.74.76.76,0,0,1-.25.38,1.59,1.59,0,0,0-.47.54,1.84,1.84,0,0,0-.25,1c0,.39.07.78.11,1.17l.11,1.19c0,.1,0,.2,0,.31-.22,0-.32.05-.33.27,0,.06,0,.13,0,.19a3.59,3.59,0,0,0,.12.83,7.39,7.39,0,0,0,.38,1.26c.07.17.16.34.4.31,0,.1,0,.2.06.29.1.34.19.68.31,1s.26.58.4.87a1.27,1.27,0,0,1,.12.27,1.44,1.44,0,0,1,0,.33c0,.37,0,.74,0,1.1a.36.36,0,0,1-.26.35l-.48.18a.17.17,0,0,0-.08.08c0,.1-.09.21-.12.31a3.94,3.94,0,0,0-.24,1.16.1.1,0,0,1-.07.1c-.34.16-4.39,2.34-4.51,2.39a1.58,1.58,0,0,0-.86.71,3.06,3.06,0,0,0-.16.46V36H39v-.82a3.47,3.47,0,0,0-.16-.45A1.5,1.5,0,0,0,38.12,34.09Z"/><rect class="cls-2" x="22" y="16" width="15" height="1"/><rect class="cls-2" x="25" y="16" width="9" height="5"/><path class="cls-2" d="M17.5,38.39c-6.07,0-11-4.15-11-9.25s4.93-9.25,11-9.25,11,4.15,11,9.25S23.57,38.39,17.5,38.39Z"/><path class="cls-1" d="M17.5,20.39c5.8,0,10.5,3.92,10.5,8.75s-4.7,8.75-10.5,8.75S7,34,7,29.14s4.7-8.75,10.5-8.75m0-1C11.16,19.39,6,23.76,6,29.14s5.16,9.75,11.5,9.75S29,34.52,29,29.14s-5.16-9.75-11.5-9.75Z"/><polygon class="cls-2" points="16.31 35.58 8.64 40.08 10.28 32.38 16.31 35.58"/><text class="cls-3" transform="translate(11 34.13)">..?</text></svg>