<svg id="Layer_1" data-name="Layer 1" xmlns="http://www.w3.org/2000/svg" viewBox="0 0 50 50"><defs><style>.cls-1{fill:#fff;}.cls-2{fill:#56a000;}</style></defs><title>dock_icon_06</title><ellipse class="cls-1" cx="26" cy="24" rx="18" ry="15"/><path class="cls-2" d="M15,30.89a2.19,2.19,0,0,1,.65-1.7,2.71,2.71,0,0,1,1.9-.6,2.55,2.55,0,0,1,1.82.6,2.23,2.23,0,0,1,.63,1.7,2.18,2.18,0,0,1-.65,1.68,2.55,2.55,0,0,1-1.8.6,2.73,2.73,0,0,1-1.87-.6A2.12,2.12,0,0,1,15,30.89Z"/><path class="cls-2" d="M22.08,30.89a2.19,2.19,0,0,1,.65-1.7,2.71,2.71,0,0,1,1.9-.6,2.55,2.55,0,0,1,1.82.6,2.23,2.23,0,0,1,.63,1.7,2.18,2.18,0,0,1-.65,1.68,2.55,2.55,0,0,1-1.8.6,2.73,2.73,0,0,1-1.87-.6A2.12,2.12,0,0,1,22.08,30.89Z"/><path class="cls-2" d="M29.84,26.71v-1a3.83,3.83,0,0,1,.48-2A5,5,0,0,1,32,22.12,6.39,6.39,0,0,0,33.41,21a1.67,1.67,0,0,0,.42-1.12.9.9,0,0,0-.45-.8,2.15,2.15,0,0,0-1.18-.29A9.32,9.32,0,0,0,28,20.09l-1.66-3.25a12.39,12.39,0,0,1,6.22-1.7,6.7,6.7,0,0,1,4.19,1.17,3.82,3.82,0,0,1,1.52,3.19A4.56,4.56,0,0,1,37.56,22a6.88,6.88,0,0,1-2.16,2,8.37,8.37,0,0,0-1.57,1.19,1.34,1.34,0,0,0-.32.89v.61Zm-.51,4.19A2.21,2.21,0,0,1,30,29.2a2.66,2.66,0,0,1,1.88-.6,2.58,2.58,0,0,1,1.84.6,2.22,2.22,0,0,1,.64,1.69,2.16,2.16,0,0,1-.66,1.69,2.61,2.61,0,0,1-1.81.6A2.7,2.7,0,0,1,30,32.59,2.14,2.14,0,0,1,29.32,30.89Z"/><polygon class="cls-1" points="21 36.95 9 44 11.56 31.95 21 36.95"/></svg>