<svg id="Layer_1" data-name="Layer 1" xmlns="http://www.w3.org/2000/svg" viewBox="0 0 50 50"><defs><style>.cls-1{fill:#fff;}</style></defs><title>dock_icon_15</title><path class="cls-1" d="M24.5,16c-5.25,0-9.5,3.54-9.5,7.92s4.25,7.92,9.5,7.92S34,28.29,34,23.92,29.75,16,24.5,16ZM21,28.44a1.35,1.35,0,0,1-1,.32,1.44,1.44,0,0,1-1-.32,1.12,1.12,0,0,1-.36-.89,1.16,1.16,0,0,1,.34-.9,1.43,1.43,0,0,1,1-.32,1.35,1.35,0,0,1,1,.32,1.17,1.17,0,0,1,.33.9A1.15,1.15,0,0,1,21,28.44Zm3.74,0a1.35,1.35,0,0,1-1,.32,1.44,1.44,0,0,1-1-.32,1.12,1.12,0,0,1-.36-.89,1.16,1.16,0,0,1,.34-.9,1.43,1.43,0,0,1,1-.32,1.35,1.35,0,0,1,1,.32,1.17,1.17,0,0,1,.33.9A1.15,1.15,0,0,1,24.73,28.44Zm3.81,0a1.38,1.38,0,0,1-1,.32,1.43,1.43,0,0,1-1-.31,1.13,1.13,0,0,1-.35-.89,1.17,1.17,0,0,1,.34-.9,1.41,1.41,0,0,1,1-.32,1.36,1.36,0,0,1,1,.32,1.17,1.17,0,0,1,.34.89A1.14,1.14,0,0,1,28.54,28.45Zm2.06-5.58a3.63,3.63,0,0,1-1.14,1.06,4.42,4.42,0,0,0-.83.63.71.71,0,0,0-.17.47v.32H26.52V24.8a2,2,0,0,1,.25-1,2.65,2.65,0,0,1,.9-.83,3.37,3.37,0,0,0,.74-.58.88.88,0,0,0,.22-.59.48.48,0,0,0-.24-.42,1.13,1.13,0,0,0-.63-.15,4.92,4.92,0,0,0-2.23.68l-.88-1.72a6.54,6.54,0,0,1,3.28-.9,3.54,3.54,0,0,1,2.21.62,2,2,0,0,1,.8,1.69A2.41,2.41,0,0,1,30.6,22.87Z"/><polygon class="cls-1" points="21.86 30.75 15.53 34.47 16.88 28.11 21.86 30.75"/></svg>