<svg id="Layer_1" data-name="Layer 1" xmlns="http://www.w3.org/2000/svg" viewBox="0 0 36 36"><defs><style>.cls-1{fill:#b94a48;}</style></defs><title>3</title><polygon class="cls-1" points="18 0 17 0 17 7 18 7 19 7 19 0 18 0"/><polygon class="cls-1" points="7 18 7 17 0 17 0 18 0 19 7 19 7 18"/><polygon class="cls-1" points="36 18 36 17 28 17 28 18 28 19 36 19 36 18"/><polygon class="cls-1" points="18 28 17 28 17 36 18 36 19 36 19 28 18 28"/><path class="cls-1" d="M34.5,18a16.43,16.43,0,0,0-1.4-6.63L31.17,13.3A13.94,13.94,0,0,1,32,18c0,.34,0,.67-.05,1h2.5C34.47,18.67,34.5,18.34,34.5,18Z"/><path class="cls-1" d="M18,4a13.94,13.94,0,0,1,4.7.83L24.63,2.9A16.43,16.43,0,0,0,18,1.5c-.34,0-.67,0-1,.05v2.5C17.33,4,17.66,4,18,4Z"/><path class="cls-1" d="M4.33,21H1.79A16.5,16.5,0,0,0,15,34.21V31.67A14,14,0,0,1,4.33,21Z"/><path class="cls-1" d="M27,21a9.5,9.5,0,0,1-9,6.5,9.6,9.6,0,0,1-1-.05v7c.33,0,.66.05,1,.05A16.5,16.5,0,0,0,34.21,21Z"/><path class="cls-1" d="M18,8.5A9.46,9.46,0,0,1,21.15,9V6.43A12,12,0,0,0,18,6c-.34,0-.67,0-1,.05v2.5A9.6,9.6,0,0,1,18,8.5Z"/><path class="cls-1" d="M15,29.61V27a9.51,9.51,0,0,1-6-6H6.39A12,12,0,0,0,15,29.61Z"/><path class="cls-1" d="M30,18a12,12,0,0,0-.43-3.15H27A9.46,9.46,0,0,1,27.5,18a9.6,9.6,0,0,1-.05,1h2.5C30,18.67,30,18.34,30,18Z"/><path class="cls-1" d="M1.5,18c0,.34,0,.67.05,1h7a9.6,9.6,0,0,1-.05-1A9.5,9.5,0,0,1,15,9V1.79A16.49,16.49,0,0,0,1.5,18Z"/><path class="cls-1" d="M17.79,13,20,10.79A7.52,7.52,0,1,0,25.21,16L23,18.2A5,5,0,1,1,17.79,13Z"/><path class="cls-1" d="M23.09,7.25v3.47L16.83,17a1.4,1.4,0,0,0,0,2l.21.21a1.4,1.4,0,0,0,2,0l6.26-6.26h3.47l.07-.07L36,6H30V0L23.16,7.18Z"/></svg>