<svg id="Layer_1" data-name="Layer 1" xmlns="http://www.w3.org/2000/svg" viewBox="0 0 36 36"><defs><style>.cls-1{fill:#8e7526;}</style></defs><title>8</title><path class="cls-1" d="M9.75,12.82C6,12,3.13,7.81,3.13,3.57H5.69c-.08-.51-.14-1-.19-1.57H0C0,8.73,4.91,14.52,11,14.52l.48,0A13.63,13.63,0,0,1,9.75,12.82Z"/><path class="cls-1" d="M30.5,2c0,.53-.11,1.05-.19,1.57h2.56c0,4.25-2.87,8.48-6.62,9.25a13.63,13.63,0,0,1-1.7,1.67l.48,0c6.05,0,11-5.79,11-12.52Z"/><rect class="cls-1" x="16" y="16" width="4" height="10.61"/><path class="cls-1" d="M18,23.87c-3.89,0-8,1.57-8,3.13H26C26,25.43,21.89,23.87,18,23.87Z"/><rect class="cls-1" x="9" y="28" width="8" height="8"/><rect class="cls-1" x="19" y="28" width="8" height="8"/><path class="cls-1" d="M6.65,0c0,9.45,5.08,17.12,11.35,17.12S29.35,9.45,29.35,0ZM18,15c-1.66,0-3-5.82-3-13h6C21,9.18,19.66,15,18,15Z"/></svg>