<svg id="Layer_1" data-name="Layer 1" xmlns="http://www.w3.org/2000/svg" viewBox="0 0 50 50"><defs><style>.cls-1{fill:#fff;}.cls-2{fill:#c60021;}</style></defs><title>dock_icon_02</title><path class="cls-1" d="M32.57,38c-.3-.15-5.69-3.57-6.17-3.79a.18.18,0,0,1-.12-.18,6.46,6.46,0,0,0-.55-2.25.26.26,0,0,0-.12-.13l-.76-.29c-.2-.08-.38-.19-.39-.42,0-.74-.07-1.48-.09-2.22a.7.7,0,0,1,.07-.29c.07-.15.15-.29.22-.44a11.62,11.62,0,0,0,.92-2.42c.07-.25.12-.5.19-.76a.46.46,0,0,0,.51-.3,3,3,0,0,0,.24-.54c.18-.59.34-1.18.5-1.77a4.3,4.3,0,0,0,.14-1.39c0-.35-.15-.46-.51-.44,0-.08,0-.15,0-.23l.23-2.48c0-.4.07-.81.11-1.21a4.37,4.37,0,0,0-.35-2.27,1.2,1.2,0,0,0-.77-.76.24.24,0,0,1-.19-.25,1.08,1.08,0,0,0-.29-.65A6.54,6.54,0,0,0,24,11.45a6.42,6.42,0,0,0-3-.91c-.54,0-1.08-.06-1.62,0A3,3,0,0,1,17.68,10a1.72,1.72,0,0,0,.78.9,3.77,3.77,0,0,1-.65-.08c-.21,0-.41-.12-.62-.18v0l.54.33c-.49.15-1,.3-1.54.49a2.74,2.74,0,0,0-1,.65,3,3,0,0,0-.67,1.14,1.17,1.17,0,0,1-.38.6,2.46,2.46,0,0,0-.73.84A2.85,2.85,0,0,0,13,16.28c0,.61.11,1.21.17,1.81l.18,1.85c0,.16,0,.32,0,.48-.34,0-.49.08-.51.41,0,.1,0,.2,0,.29a5.57,5.57,0,0,0,.19,1.29,11.46,11.46,0,0,0,.6,2c.11.26.24.53.62.48,0,.16.06.31.1.45.16.52.3,1,.49,1.55s.41.9.61,1.35a2,2,0,0,1,.18.42,2.23,2.23,0,0,1,0,.51c0,.57-.07,1.14-.07,1.71a.56.56,0,0,1-.4.55l-.75.28a.26.26,0,0,0-.13.12c-.07.16-.13.32-.19.48a6.1,6.1,0,0,0-.37,1.8.15.15,0,0,1-.1.15c-.53.24-5.81,3.63-6,3.71A2.45,2.45,0,0,0,6.32,39a4.75,4.75,0,0,0-.25.71V41H33.93V39.73a5.37,5.37,0,0,0-.25-.7A2.32,2.32,0,0,0,32.57,38Z"/><rect class="cls-1" x="23" y="21" width="20" height="20"/><rect class="cls-2" x="25" y="23" width="16" height="16"/><path class="cls-1" d="M29.79,31.06c0-.58,0-1.22,0-1.77,1.27-.08,4.25-.56,4.43-.56s0-.22.42-.08c0,2.24,0,5.58,0,7.64h1.7V38H29.6c0-.54,0-1.16,0-1.7l1.6,0c.07,0,.09,0,.09-.08V31.1Zm4.91-5.39a1.85,1.85,0,0,1-3.71,0A1.81,1.81,0,0,1,32.89,24,1.67,1.67,0,0,1,34.7,25.67Z"/></svg>