<svg id="Layer_1" data-name="Layer 1" xmlns="http://www.w3.org/2000/svg" viewBox="0 0 50 50"><defs><style>.cls-1{fill:#a6a6a6;}</style></defs><title>dock_icon_17</title><path class="cls-1" d="M25.59,23s0,0,0-.07c0-.18-.07-.23-.26-.22,0,0,0-.08,0-.11l.12-1.24c0-.2,0-.4.06-.61a2.17,2.17,0,0,0-.18-1.14.6.6,0,0,0-.39-.38.12.12,0,0,1-.1-.13.54.54,0,0,0-.15-.32,3.49,3.49,0,0,0-.8-.62,2.53,2.53,0,0,0-1-.35,8.69,8.69,0,0,0-1.24-.07,1.49,1.49,0,0,1-.86-.25.86.86,0,0,0,.39.45,1.9,1.9,0,0,1-.33,0l-.31-.09h0l.27.17c-.25.08-.51.15-.77.24a1.38,1.38,0,0,0-.5.32,1.5,1.5,0,0,0-.34.57.59.59,0,0,1-.19.3,1.23,1.23,0,0,0-.37.42,1.42,1.42,0,0,0-.19.79c0,.3.05.6.08.91l.09.93c0,.08,0,.16,0,.24-.17,0-.25,0-.26.21s0,.1,0,.15a2.77,2.77,0,0,0,.09.65,5.7,5.7,0,0,0,.3,1c.06.13.12.27.31.24,0,.08,0,.15,0,.23.08.26.15.52.24.78s.21.45.31.67a1,1,0,0,1,.09.21,1.11,1.11,0,0,1,0,.25c0,.29,0,.57,0,.86a.28.28,0,0,1-.2.27l-.38.14a.13.13,0,0,0-.06.06c0,.08-.07.16-.1.24a3,3,0,0,0-.19.9.07.07,0,0,1-.05.07c-.27.12-2.92,1.82-3,1.85a1.23,1.23,0,0,0-.67.55,2.37,2.37,0,0,0-.13.36V33H34V23ZM33,32H25V24h8Z"/><path class="cls-1" d="M31,30v1H27c0-.27,0-.73,0-1h1V27h2v3Zm-1-4H28V25h2Z"/></svg>