<?xml version="1.0" encoding="utf-8"?>
<!-- Generator: Adobe Illustrator 18.0.0, SVG Export Plug-In . SVG Version: 6.00 Build 0)  -->
<!DOCTYPE svg PUBLIC "-//W3C//DTD SVG 1.1//EN" "http://www.w3.org/Graphics/SVG/1.1/DTD/svg11.dtd">
<svg version="1.1" id="Layer_1" xmlns="http://www.w3.org/2000/svg" xmlns:xlink="http://www.w3.org/1999/xlink" x="0px" y="0px"
	 viewBox="0 0 12 12" enable-background="new 0 0 12 12" xml:space="preserve" width="23px" height="23px">
<path fill="#FFFFFF" d="M10.6,1.4C9.7,0.5,8.5,0,7.2,0S4.7,0.5,3.8,1.4C2,3.2,1.9,6,3.4,7.9L0,11.3L0.7,12l3.4-3.4
	C5,9.3,6,9.7,7.2,9.7c1.3,0,2.5-0.5,3.4-1.4C12.5,6.4,12.5,3.3,10.6,1.4z M9.9,7.6C9.2,8.3,8.2,8.7,7.2,8.7s-2-0.4-2.7-1.1
	c-1.5-1.5-1.5-4,0-5.5C5.2,1.4,6.1,1,7.2,1s2,0.4,2.7,1.1C11.4,3.6,11.4,6.1,9.9,7.6z"/>
</svg>
