<?xml version="1.0" encoding="utf-8"?>
<!-- Generator: Adobe Illustrator 21.0.0, SVG Export Plug-In . SVG Version: 6.00 Build 0)  -->
<svg version="1.1" id="Layer_1" xmlns="http://www.w3.org/2000/svg" xmlns:xlink="http://www.w3.org/1999/xlink" x="0px" y="0px"
	 viewBox="0 0 32 32" style="enable-background:new 0 0 32 32;" width="16" height="16" xml:space="preserve">
<style type="text/css">
	.st0{fill:#999999;}
	.st1{fill:#7A7A7A;}
	.st2{fill:#FFFFFF;}
	.st3{fill:#D8D8D8;}
	.st4{fill:#0985B3;}
	.st5{fill:#076D8C;}
</style>
<rect y="0" class="st0" width="32" height="32"/>
<polygon class="st1" points="6,6 0,12 0,32 17.6,32 24,26 "/>
<path class="st2" d="M28,19c0-3.3-1.7-6.1-4.3-7.7L13.1,4.9c-0.1-0.1-0.3-0.1-0.4-0.2C11.9,4.2,11,4,10,4c-3.3,0-6,2.7-6,6
	c0,1.1,0.3,2.2,0.9,3.1l6.4,10.6c0.2,0.3,0.4,0.6,0.6,0.9c1.6,2.1,4.2,3.4,7,3.4C24,28,28,24,28,19z"/>
<polygon class="st3" points="12.1,6.6 22.6,13 13,22.6 6.6,12.1 "/>
<path class="st4" d="M19,26c-2.5,0-4.8-1.3-6-3.4c-0.6-1.1-1-2.3-1-3.6c0-3.9,3.1-7,7-7c1.3,0,2.6,0.4,3.6,1c2,1.2,3.4,3.4,3.4,6
	C26,22.9,22.9,26,19,26z"/>
<path class="st5" d="M10,14c-1.4,0-2.7-0.8-3.4-1.9C6.2,11.5,6,10.8,6,10c0-2.2,1.8-4,4-4c0.8,0,1.5,0.2,2.1,0.6
	c1.2,0.7,1.9,2,1.9,3.4C14,12.2,12.2,14,10,14z"/>
</svg>
