<?xml version="1.0" encoding="utf-8"?>
<!-- Generator: Adobe Illustrator 18.0.0, SVG Export Plug-In . SVG Version: 6.00 Build 0)  -->
<!DOCTYPE svg PUBLIC "-//W3C//DTD SVG 1.1//EN" "http://www.w3.org/Graphics/SVG/1.1/DTD/svg11.dtd">
<svg version="1.1" id="Layer_1" xmlns="http://www.w3.org/2000/svg" xmlns:xlink="http://www.w3.org/1999/xlink" x="0px" y="0px"
	 viewBox="0 0 23 23" enable-background="new 0 0 23 23" width="23" height="23" xml:space="preserve">
<g>
	<path fill="#757575" d="M16.5,6.5C15.6,5.5,14.4,5,13,5s-2.6,0.5-3.5,1.5c-1.8,1.8-1.9,4.7-0.3,6.6l-3.5,3.5l0.7,0.7l3.5-3.5
		c0.9,0.7,2,1.1,3.1,1.1c1.3,0,2.6-0.5,3.5-1.5C18.5,11.5,18.5,8.4,16.5,6.5z M15.9,12.8c-0.8,0.8-1.8,1.2-2.8,1.2s-2.1-0.4-2.8-1.2
		c-1.6-1.6-1.6-4.1,0-5.6C11,6.4,12,6,13,6s2.1,0.4,2.8,1.2C17.4,8.7,17.4,11.2,15.9,12.8z"/>
	<g>
		<path fill="#757575" d="M22,1v21H1V1H22 M23,0H0v23h23V0L23,0z"/>
	</g>
</g>
</svg>
