<svg id="Layer_1" data-name="Layer 1" xmlns="http://www.w3.org/2000/svg" viewBox="0 0 50 50"><defs><style>.cls-1{fill:#a6a6a6;}</style></defs><title>dock_icon_11</title><polygon class="cls-1" points="34 27 34 18 40 18 40 29 40 31 40 36.28 34.86 31 17 31 17 27.14 34 27"/><path class="cls-1" d="M34,14V27H15.42l-.29.3L11,31.54V14H34m1-1H10V34l5.84-6H35V13Z"/><rect class="cls-1" x="14" y="16" width="11" height="2"/><polygon class="cls-1" points="31 20 14 20 14 21 31 21 31 20 31 20"/><polygon class="cls-1" points="31 22 14 22 14 23 31 23 31 22 31 22"/><polygon class="cls-1" points="31 24 14 24 14 25 31 25 31 24 31 24"/></svg>