<svg id="Layer_1" data-name="Layer 1" xmlns="http://www.w3.org/2000/svg" viewBox="0 0 50 50"><defs><style>.cls-1{fill:#8e8e8e;}.cls-2{fill:#d1d1d1;}.cls-3{fill:#96ba00;}.cls-4{fill:#56a000;}.cls-5{fill:#6d6d6d;}</style></defs><title>dock_icon_07</title><rect class="cls-1" x="6" y="11" width="25" height="15"/><polyline class="cls-1" points="11.06 26.08 6 31.28 6 26"/><rect class="cls-2" x="16" y="20" width="28" height="17" transform="translate(60 57) rotate(-180)"/><polyline class="cls-2" points="38.33 37.18 44 43 44 37"/><rect class="cls-3" x="19" y="23" width="11" height="2"/><rect class="cls-1" x="19" y="27" width="20" height="1"/><rect class="cls-1" x="19" y="29" width="20" height="1"/><rect class="cls-3" x="32" y="23" width="7" height="2"/><rect class="cls-1" x="19" y="31" width="20" height="1"/><rect class="cls-1" x="19" y="33" width="20" height="1"/><rect class="cls-4" x="10" y="14" width="17" height="2"/><rect class="cls-5" x="10" y="18" width="17" height="1"/><rect class="cls-5" x="10" y="20" width="4" height="1"/><rect class="cls-5" x="10" y="22" width="4" height="1"/></svg>