<svg id="Layer_1" data-name="Layer 1" xmlns="http://www.w3.org/2000/svg" viewBox="0 0 50 50"><defs><style>.cls-1{fill:#007ac5;}.cls-2{fill:#fff;}</style></defs><title>dock_icon_12</title><polygon class="cls-1" points="20 19 40 19 40 30 40 32 40 37.28 34.86 33 20 33 20 19"/><polygon class="cls-2" points="10.5 14.5 31.5 14.5 31.5 29.5 15.66 29.5 10.5 33.91 10.5 14.5"/><path class="cls-1" d="M31,15V29H15.47l-.28.24L11,32.83V15H31m1-1H10V35l5.84-5H32V14Z"/><rect class="cls-1" x="14" y="19" width="14" height="1" transform="translate(42 39) rotate(-180)"/><rect class="cls-1" x="14" y="21" width="14" height="1" transform="translate(42 43) rotate(-180)"/><rect class="cls-1" x="14" y="23" width="14" height="1" transform="translate(42 47) rotate(-180)"/><rect class="cls-2" x="32" y="23" width="4" height="1"/><rect class="cls-2" x="32" y="25" width="4" height="1"/><rect class="cls-2" x="32" y="27" width="4" height="1"/></svg>