<svg id="Layer_1" data-name="Layer 1" xmlns="http://www.w3.org/2000/svg" viewBox="0 0 23 23"><defs><style>.cls-1{fill:#fff;}.cls-2{fill:#ff5000;}</style></defs><title>Artboard 42</title><path class="cls-1" d="M4.06,8.06a1.5,1.5,0,0,0,0-3,1.5,1.5,0,0,0,0,3Z"/><rect class="cls-2" width="23" height="23"/><path class="cls-1" d="M5,16v3h5V16Zm4,2H6V17H9Z"/><path class="cls-1" d="M13,16v3h5V16Zm4,2H14V17h3Z"/><rect class="cls-1" x="10" y="17" width="3" height="1"/><path class="cls-1" d="M5,4v9h9V4Zm8,5H10v3H9V9H6V8H9V5h1V8h3Z"/></svg>