<svg id="Layer_1" data-name="Layer 1" xmlns="http://www.w3.org/2000/svg" viewBox="0 0 23 23"><defs><style>.cls-1{fill:#f05423;}.cls-2{fill:#fff;}</style></defs><title>архив</title><rect class="cls-1" width="23" height="23"/><rect class="cls-2" x="11" y="11" width="1" height="9" transform="translate(27 4) rotate(90)"/><path class="cls-2" d="M18,8V18H5V8H18m1-1H4V19H19V7Z"/><polygon class="cls-2" points="6.9 7.5 9.5 7.5 9.5 4.5 13.5 4.5 13.5 7.5 16.1 7.5 11.5 12.76 6.9 7.5"/><path class="cls-1" d="M13,5V8h2l-3.5,4L8,8h2V5h3m1-1H9V7H5.8L7.25,8.66l3.5,4,.75.86.75-.86,3.5-4L17.2,7H14V4Z"/><rect class="cls-2" x="11" y="9" width="1" height="9" transform="translate(25 2) rotate(90)"/></svg>