<svg id="Layer_1" data-name="Layer 1" xmlns="http://www.w3.org/2000/svg" viewBox="0 0 23 23"><defs><style>.cls-1{fill:#ff5000;}.cls-2{fill:#fff;}</style></defs><title>Artboard 20</title><rect class="cls-1" width="23" height="23"/><path class="cls-2" d="M4,12v7h7V12Zm6,6H5V13h5Z"/><path class="cls-2" d="M12,12v7h7V12Zm6,6H13V13h5Z"/><rect class="cls-2" x="7" y="4" width="1" height="6"/><rect class="cls-2" x="7" y="4" width="9" height="1"/><rect class="cls-2" x="15" y="4.86" width="1" height="5.14"/><polygon class="cls-2" points="5 8 10 8 7.5 11 5 8"/><polygon class="cls-2" points="13 8 18 8 15.5 11 13 8"/><polygon class="cls-2" points="15.65 17.45 13.29 15.1 14 14.39 15.65 16.04 18.29 13.39 19 14.1 15.65 17.45"/></svg>