<svg id="Layer_1" data-name="Layer 1" xmlns="http://www.w3.org/2000/svg" viewBox="0 0 23 23"><defs><style>.cls-1{fill:#ff5000;}.cls-2{fill:#fff;}</style></defs><title>Artboard 24</title><rect class="cls-1" width="23" height="23"/><path class="cls-2" d="M9,9h6V4H4V17H9ZM6,6h7V7H6Zm1.73,7H6.1V12H7.73Zm0-2H6.1V10H7.73ZM6.1,9V8H7.73V9Z"/><path class="cls-2" d="M10,10v9h9V10Zm8,8H11V11h7Z"/><rect class="cls-2" x="16" y="16" width="1" height="1" transform="translate(33 33) rotate(-180)"/><rect class="cls-2" x="14" y="16" width="1" height="1" transform="translate(29 33) rotate(-180)"/><rect class="cls-2" x="12" y="16" width="1" height="1" transform="translate(25 33) rotate(-180)"/></svg>