<svg id="Layer_1" data-name="Layer 1" xmlns="http://www.w3.org/2000/svg" viewBox="0 0 24 26" width="24px" height="26px"><defs><style>.cls-1{fill:#999;}</style></defs><title>control</title><path class="cls-1" d="M2,0V26H5V0ZM4,25H3V1H4Z"/><path class="cls-1" d="M10,0V26h3V0Zm2,25H11V1h1Z"/><rect class="cls-1" y="10" width="7" height="7"/><rect class="cls-1" x="8" y="3" width="7" height="7"/><path class="cls-1" d="M17,16v7h7V16Zm5,5H19V18h3Z"/><polygon class="cls-1" points="19 0 19 18 20 18 20 1 21 1 21 18 22 18 22 0 19 0"/><polygon class="cls-1" points="21 25 20 25 20 21 19 21 19 26 22 26 22 21 21 21 21 25"/></svg>