<svg id="Layer_1" data-name="Layer 1" xmlns="http://www.w3.org/2000/svg" viewBox="0 0 23 23"><defs><style>.cls-1{fill:#ff5000;}.cls-2{fill:#fff;}</style></defs><title>Artboard 43</title><rect class="cls-1" width="23" height="23" transform="translate(23 23) rotate(-180)"/><path class="cls-2" d="M17,6l2-2H8V9h2V8h1V9h1V8h1V9h1V8h1V9H14v1h1v1H14v1h1v1H14v3h5l-2-2,2-1.81L17,10l2-2ZM11,7H10V6h1Zm2,0H12V6h1Zm2,0H14V6h1Z"/><path class="cls-2" d="M4,10v9h9V10Zm7.33,6.62-.71.71L8.5,15.21,6.38,17.33l-.71-.71L7.79,14.5,5.67,12.38l.71-.71L8.5,13.79l2.12-2.12.71.71L9.21,14.5Z"/></svg>