<svg id="Layer_1" data-name="Layer 1" xmlns="http://www.w3.org/2000/svg" viewBox="0 0 23 23"><defs><style>.cls-1{fill:#ff5000;}.cls-2{fill:#fff;}</style></defs><title>Artboard 44</title><rect class="cls-1" width="23" height="23"/><rect class="cls-2" x="7" y="15" width="6" height="3"/><polygon class="cls-2" points="12 20 16 16.5 12 13 12 20"/><path class="cls-2" d="M3,4,5,6,3,8l2,2L3,12.19,5,14h5V4ZM7,9H6V8H7ZM7,7H6V6H7ZM9,9H8V8H9ZM9,7H8V6H9Z"/><path class="cls-2" d="M13,4v8l2.22,2H19V4Zm5,5H14V8h4Zm0-2H14V6h4Z"/></svg>