<svg id="Layer_1" data-name="Layer 1" xmlns="http://www.w3.org/2000/svg" viewBox="0 0 17 16" width="17" height="16"><defs><style>.cls-1{fill:#00859b;}.cls-2{fill:#fff;}</style></defs><title>m-ico</title><rect class="cls-1" width="17" height="16"/><path class="cls-2" d="M4.34,7.28a3.49,3.49,0,0,0-.13.93V13H6.37V8.47a1.39,1.39,0,0,1,.47-1.22A4,4,0,0,1,4.34,7.28Z"/><path class="cls-2" d="M14.1,6a3.57,3.57,0,0,0-2.29-.68,2.56,2.56,0,0,0-2.18.8,2.11,2.11,0,0,0-.8-.56A3.81,3.81,0,0,1,7.15,7.11a1.2,1.2,0,0,1,.32-.06q1.08,0,1.08,1.42V13h2.16V8.47q0-1.42,1.1-1.42t1.1,1.42V13h2.16V8.21A2.68,2.68,0,0,0,14.1,6Z"/><path class="cls-2" d="M7.92,4.88C8.5,4.46,9.52,3.74,10.36,3c-3.82.41-5.64.82-8.92,2.91h.4a14.53,14.53,0,0,0,0,1.9,4,4,0,0,0,.28,3,10.87,10.87,0,0,0-.24-3L4.6,6c0,.22-.3.58-.18.59,1.83.2,3.19-.25,4-1.49C8.42,5.1,8,5,7.92,4.88Z"/></svg>