<svg id="Layer_1" data-name="Layer 1" xmlns="http://www.w3.org/2000/svg" viewBox="0 0 15 22"><defs><style>.cls-1{fill:#cecece;}.cls-2{fill:#888;}</style></defs><title>Artboard 1</title><polygon class="cls-1" points="11 3 9.5 3 8 3 8 5 9.5 5 11 5 15 5 15 3 11 3"/><path class="cls-2" d="M10.22,16H6.94c0-.07,0-.08-.06-.08a3.81,3.81,0,0,1-2.32-1.21c-.43-.45-.84-.93-1.25-1.4L1.05,10.8A1.29,1.29,0,0,1,.75,9.56a1.24,1.24,0,0,1,.92-.94A1.29,1.29,0,0,1,3,9l1.11,1.21s0,0-.12.08v-.19a52.87,52.87,0,0,0,.21-5.73,1.54,1.54,0,0,1,.2-.79,1.34,1.34,0,0,1,1.93-.37,1.38,1.38,0,0,1,.54,1.15A21.49,21.49,0,0,0,7,7.22v.17a1,1,0,0,1,1-.11,1.34,1.34,0,0,1,.8.77,1.35,1.35,0,0,1,2,.88,1.34,1.34,0,0,1,2,1.18c0,1.07,0,2.14,0,3.21a2.39,2.39,0,0,1-.07.6A2.59,2.59,0,0,1,11,15.75C10.76,15.85,10.48,15.88,10.22,16Z"/><polygon class="cls-1" points="11 0 9.5 0 8 0 4.67 0 4 0 0 0 0 2 4 2 4.67 2 8 2 9.5 2 11 2 15 2 15 0 11 0"/><rect class="cls-1" y="3" width="3" height="2"/><polygon class="cls-1" points="11 17 9.5 17 8 17 4.67 17 4 17 0 17 0 19 4 19 4.67 19 8 19 9.5 19 11 19 15 19 15 17 11 17"/><polygon class="cls-1" points="11 20 9.5 20 8 20 4.67 20 4 20 0 20 0 22 4 22 4.67 22 8 22 9.5 22 11 22 15 22 15 20 11 20"/></svg>