<svg id="Layer_1" data-name="Layer 1" xmlns="http://www.w3.org/2000/svg" viewBox="0 0 23 23"><defs><style>.cls-1{fill:#ff5000;}.cls-2{fill:#fff;}</style></defs><title>Artboard 31</title><rect class="cls-1" width="23" height="23" transform="translate(23 23) rotate(180)"/><rect class="cls-2" x="9" y="10" width="5" height="3" transform="translate(23 0) rotate(90)"/><polygon class="cls-2" points="8 13 11.5 17 15 13 8 13"/><rect class="cls-2" x="6" y="6" width="13" height="1" transform="translate(25 13) rotate(180)"/><rect class="cls-2" x="6" y="4" width="13" height="1" transform="translate(25 9) rotate(180)"/><rect class="cls-2" x="6" y="18" width="13" height="1" transform="translate(25 37) rotate(180)"/><rect class="cls-2" x="6" y="8" width="13" height="1" transform="translate(25 17) rotate(180)"/><rect class="cls-2" x="4" y="4" width="1" height="1"/><rect class="cls-2" x="4" y="6" width="1" height="1"/><rect class="cls-2" x="4" y="8" width="1" height="1"/><rect class="cls-2" x="4" y="18" width="1" height="1"/></svg>