<svg id="Layer_1" data-name="Layer 1" xmlns="http://www.w3.org/2000/svg" viewBox="0 0 23 23"><defs><style>.cls-1{fill:#ff5000;}.cls-2{fill:#fff;}</style></defs><title>Artboard 37</title><rect class="cls-1" width="23" height="23"/><rect class="cls-1" x="10" y="10" width="1" height="1"/><rect class="cls-1" x="10" y="12" width="1" height="1"/><rect class="cls-1" x="12" y="10" width="1" height="1"/><rect class="cls-1" x="12" y="12" width="1" height="1"/><path class="cls-2" d="M9,16V13H8V12H9V11H8V10H9V9H8V8H9V9h1V8h1V9h1V8h1V9h2V4H4L6,6,4,8l2,2L4,12.19,6,14,4,16ZM12,6h1V7H12ZM10,6h1V7H10ZM8,6H9V7H8Z"/><path class="cls-2" d="M10,10v9h9V10Zm8,8H11V11h7Z"/><polygon class="cls-2" points="14.54 17.08 12.19 14.72 12.89 14.02 14.54 15.66 18.06 12.14 18.77 12.85 14.54 17.08"/></svg>