<svg id="Layer_1" data-name="Layer 1" xmlns="http://www.w3.org/2000/svg" viewBox="0 0 23 23"><defs><style>.cls-1{fill:#ff5000;}.cls-2{fill:#fff;}</style></defs><title>Artboard 45</title><rect class="cls-1" width="23" height="23"/><path class="cls-2" d="M4,4V14h6V4ZM9,9H5V8H9ZM9,7H5V6H9Z"/><path class="cls-2" d="M12,4l2,2L12,8l2,2-1.83,2H13l2.22,2H19V4Zm4,5H15V8h1Zm0-2H15V6h1Zm2,2H17V8h1Zm0-2H17V6h1Z"/><rect class="cls-2" x="7" y="15" width="6" height="3"/><polygon class="cls-2" points="12 20 16 16.5 12 13 12 20"/></svg>