<svg id="Layer_1" data-name="Layer 1" xmlns="http://www.w3.org/2000/svg" viewBox="0 0 23 23"><defs><style>.cls-1{fill:#ff5000;}.cls-2{fill:#fff;}</style></defs><title>Artboard 33</title><rect class="cls-1" width="23" height="23"/><path class="cls-2" d="M12,4H11A4,4,0,0,0,7,8V9H8V8a3,3,0,0,1,3-3h1a3,3,0,0,1,3,3V9h1V8A4,4,0,0,0,12,4Z"/><polygon class="cls-2" points="16 12 16 14 14 14 14 19 17 19 17 12 16 12"/><polygon class="cls-2" points="9 14 7 14 7 12 6 12 6 19 9 19 9 14"/><rect class="cls-2" x="8" y="14" width="7" height="3" transform="translate(-4 27) rotate(-90)"/><polygon class="cls-2" points="15 13 11.5 9 8 13 15 13"/></svg>