<svg id="Layer_1" data-name="Layer 1" xmlns="http://www.w3.org/2000/svg" viewBox="0 0 23 23"><defs><style>.cls-1{fill:#ff5000;}.cls-2{fill:#fff;}</style></defs><title>Artboard 19</title><rect class="cls-1" width="23" height="23"/><rect class="cls-2" x="4.37" y="15.35" width="4.29" height="2.27" transform="translate(22.78 23.53) rotate(135)"/><path class="cls-2" d="M12,4a7,7,0,1,0,7,7A7,7,0,0,0,12,4Zm0,12a5,5,0,1,1,5-5A5,5,0,0,1,12,16Z"/><rect class="cls-2" x="11" y="7" width="6" height="1"/><rect class="cls-2" x="6" y="9" width="6" height="1"/><rect class="cls-2" x="6" y="11" width="6" height="1"/><rect class="cls-2" x="9" y="13" width="6" height="1"/><rect class="cls-2" x="13" y="9" width="3" height="1"/><rect class="cls-2" x="13" y="11" width="3" height="1"/></svg>