<svg id="Layer_1" data-name="Layer 1" xmlns="http://www.w3.org/2000/svg" viewBox="0 0 23 23"><defs><style>.cls-1{fill:#ff5000;}.cls-2{fill:#fff;}</style></defs><title>Artboard 46</title><rect class="cls-1" width="23" height="23"/><rect class="cls-2" x="6" y="15" width="2" height="3"/><rect class="cls-2" x="9" y="14" width="2" height="4"/><rect class="cls-2" x="12" y="11" width="2" height="7"/><rect class="cls-2" x="15" y="7" width="2" height="11"/><polygon class="cls-2" points="8.41 5.27 9.48 7.79 12.21 8.03 10.14 9.83 10.76 12.5 8.41 11.09 6.06 12.5 6.68 9.83 4.61 8.03 7.34 7.79 8.41 5.27"/><polygon class="cls-1" points="8.41 7.71 8.79 8.6 9.75 8.69 9.02 9.32 9.24 10.26 8.41 9.77 7.58 10.26 7.8 9.32 7.07 8.69 8.03 8.6 8.41 7.71"/></svg>