<?xml version="1.0" encoding="utf-8"?>
<!-- Generator: Adobe Illustrator 21.0.0, SVG Export Plug-In . SVG Version: 6.00 Build 0)  -->
<svg version="1.1" id="Layer_1" xmlns="http://www.w3.org/2000/svg" xmlns:xlink="http://www.w3.org/1999/xlink" x="0px" y="0px"
	 viewBox="0 0 34 34" style="enable-background:new 0 0 34 34;" xml:space="preserve">
<style type="text/css">
	.st0{fill:#636363;}
</style>
<path class="st0" d="M18,5C11.9,5,7,9.9,7,16s4.9,11,11,11s11-4.9,11-11S24.1,5,18,5z M18,24.4c-4.6,0-8.4-3.8-8.4-8.4
	c0-4.6,3.8-8.4,8.4-8.4s8.4,3.8,8.4,8.4C26.4,20.6,22.6,24.4,18,24.4z"/>
<rect x="13" y="15" class="st0" width="10" height="2"/>
<rect x="13" y="15" transform="matrix(-1.836970e-16 1 -1 -1.836970e-16 34 -2)" class="st0" width="10" height="2"/>
<rect x="4.3" y="23.5" transform="matrix(0.7071 -0.7071 0.7071 0.7071 -15.6881 13.383)" class="st0" width="8" height="4.3"/>
</svg>
