<?xml version="1.0" encoding="utf-8"?>
<!-- Generator: Adobe Illustrator 18.0.0, SVG Export Plug-In . SVG Version: 6.00 Build 0)  -->
<!DOCTYPE svg PUBLIC "-//W3C//DTD SVG 1.1//EN" "http://www.w3.org/Graphics/SVG/1.1/DTD/svg11.dtd">
<svg version="1.1" id="Layer_1" xmlns="http://www.w3.org/2000/svg" xmlns:xlink="http://www.w3.org/1999/xlink" x="0px" y="0px"
	 viewBox="0 0 24 24" enable-background="new 0 0 24 24" xml:space="preserve" width="24" height="24">
<rect fill="#5CA19D" width="24" height="24"/>
<polygon fill="#4F8582" points="6,4.5 0,10.4 0,24 5,24 6.1,24 17.7,24 20.6,21.4 "/>
<path fill="#477976" d="M7.6,7.1L0,14.5V24h6.8c0,0,9.9-9.4,10-9.3L7.6,7.1z"/>
<path fill="#FFFFFF" d="M10.8,2.8c-4.2,0-7.6,3.4-7.6,7.6s3.4,7.6,7.6,7.6s7.6-3.4,7.6-7.6S15,2.8,10.8,2.8z"/>
<path fill="#4F8582" d="M7.5,9.3c0-0.7,0-1.3,0-2c0-0.3,0-0.7,0-1c0-0.2-0.1-0.7,0.1-0.7C8.2,5.6,8.5,6,8.8,6.5
	c0.3,0.5,0.4,1,0.4,1.5c0,1.3,0,2.7,0,4c0,0.7,0.5,0.7,1,0.6c0.7,0,1.4,0,2.2,0c0.1,0,0.2,0,0.3-0.1c0.2-0.2,0.2-0.6,0.2-0.9
	c0-0.5,0-1,0-1.5c0-0.3-0.2-0.4-0.4-0.4c-0.4,0-0.9,0-1.3-0.1C10.4,9.4,9.9,9,9.6,8.5C9.5,8.2,9.3,7.9,9.7,7.9c0.9,0,1.7,0,2.6,0
	c1.2,0,2.2,1,2.2,2.2c0,0.7,0,1.4,0,2.1c0,0.5-0.2,0.9-0.5,1.3c-0.2,0.2-0.4,0.4-0.6,0.5c-0.5,0.3-1.1,0.3-1.6,0.3
	c-0.6,0-1.3,0-1.9,0c-0.7,0-1.3-0.1-1.8-0.6c-0.6-0.6-0.7-1.6-0.7-2.4C7.5,10.6,7.5,9.9,7.5,9.3z"/>
<circle fill="#FFFFFF" cx="18" cy="17.9" r="4.3"/>
<g>
	<path fill="#477976" d="M17.5,18.4v2.1h-1.1v-5.4h1.6c0.7,0,1.3,0.1,1.6,0.4c0.3,0.3,0.5,0.7,0.5,1.2c0,0.3-0.1,0.6-0.3,0.8
		c-0.2,0.2-0.4,0.4-0.7,0.6c0.8,1.2,1.3,2,1.6,2.3h-1.3l-1.3-2.1H17.5z M17.5,17.5h0.4c0.4,0,0.6-0.1,0.8-0.2s0.3-0.3,0.3-0.6
		c0-0.3-0.1-0.4-0.3-0.5s-0.4-0.2-0.8-0.2h-0.3V17.5z"/>
</g>
</svg>
