<svg id="Layer_1" data-name="Layer 1" xmlns="http://www.w3.org/2000/svg" width="24" height="24" viewBox="0 0 24 24"><defs><style>.cls-1{fill:#38bc49;}.cls-2{fill:#30a03e;}.cls-3{fill:#2d913b;}.cls-4{fill:#fff;}</style></defs><title>br_complete</title><rect class="cls-1" width="24" height="24"/><polyline class="cls-2" points="7.08 24 0 24 0 13.43 6.48 6.81 11.25 6.5 14.34 7.36 16.33 8.38 18.5 11.58 18.5 14.29 17.31 17.22 10.58 24 0 24"/><polygon class="cls-3" points="17.75 15.23 8.97 24 0 24 0 17.38 11.58 5.91 16.33 8.38 18.5 11.58 18.5 14.63 17.75 15.23"/><path class="cls-4" d="M8.61,16.46l0,.07h0Z"/><path class="cls-4" d="M8.06,15.49a5.73,5.73,0,0,1-.42-2.05,5.81,5.81,0,0,1,4.6-6.18,4.55,4.55,0,0,1,2.1.11l-3-1.58a4.48,4.48,0,0,0-4.85,1,3.83,3.83,0,0,0-.6,4.82h0Z"/><path class="cls-4" d="M17.61,9.34a5.59,5.59,0,0,0-7.88.3,5.59,5.59,0,0,0-.3,7.88,5.59,5.59,0,0,0,7.88-.3A5.59,5.59,0,0,0,17.61,9.34Zm-7.32.87A4.75,4.75,0,0,1,17,9.95a4.58,4.58,0,0,1,.74,5.28c-.69-1-3.2-4.06-7-4a2.1,2.1,0,0,0-1.55.61A5.25,5.25,0,0,1,10.29,10.21Z"/></svg>