<svg id="Layer_1" data-name="Layer 1" xmlns="http://www.w3.org/2000/svg" viewBox="0 0 50 50"><defs><style>.cls-1{fill:#fff;}</style></defs><title>dock_icon_15</title><path class="cls-1" d="M29.48,25.63c-.66,0-.81.51-.81,2.63s.15,2.65.81,2.65.81-.42.81-2.65S30.16,25.63,29.48,25.63Z"/><path class="cls-1" d="M16,23V33h6V26.5l-1.78,1.09L18.9,25.71l3.6-2.21H25V33h4.48c-2.5,0-3.92-1.73-3.92-4.74s1.42-4.71,3.92-4.71,3.92,1.68,3.92,4.71S32,33,29.48,33H34V23Z"/><path class="cls-1" d="M18,19H17v4H16V19H15V18h3Z"/><path class="cls-1" d="M23,20.49C23,22,22.31,23,21,23s-2-1-2-2.51S19.69,18,21,18,23,18.93,23,20.49Zm-3,0c0,1,.58,1.5,1,1.5s1-.47,1-1.5S21.41,19,21,19,20,19.47,20,20.5Z"/><path class="cls-1" d="M28,23H27V19H25v4H24V18h4Z"/></svg>