<svg id="Layer_1" data-name="Layer 1" xmlns="http://www.w3.org/2000/svg" viewBox="0 0 50 50"><defs><style>.cls-1{fill:#007ac5;}.cls-2{fill:#fff;}</style></defs><title>dock_icon_12</title><rect class="cls-1" x="11" y="22" width="28" height="17"/><path class="cls-1" d="M19,16H17v6H14V16H12V14h7Z"/><path class="cls-1" d="M28,18c0,3-1.38,4-4,4s-4-.9-4-4,1.38-4,4-4S28,14.86,28,18Zm-5.11,0c0,2.05.26,1.83,1.12,1.83S25.12,20,25.12,18s-.29-1.81-1.12-1.81S22.89,15.91,22.89,18Z"/><path class="cls-1" d="M37,22H34V16H32v6H29V14h8Z"/><polygon class="cls-2" points="12 26.53 14.26 29.75 17.31 27.89 17 31.3 17 38 22 38 22 23 18.16 23 12 26.53"/><path class="cls-2" d="M30.1,22.83c-4.28,0-6.7,2.87-6.7,8.06,0,.14,0,.27,0,.41C23.55,36.2,25.95,38,30.1,38s6.56-1.8,6.68-6.69c0-.14,0-.27,0-.41C36.8,25.7,34.38,22.83,30.1,22.83Z"/><rect class="cls-1" x="29" y="26" width="2" height="9" rx="1" ry="1"/></svg>