<svg id="Layer_1" data-name="Layer 1" xmlns="http://www.w3.org/2000/svg" viewBox="0 0 50 50"><defs><style>.cls-1{fill:#a6a6a6;}</style></defs><title>dock_icon_11</title><path class="cls-1" d="M37,24V38H13V24H37m1-1H12V39H38V23Z"/><path class="cls-1" d="M19,17H17v5H14V17H12V15h7Z"/><path class="cls-1" d="M28,19c0,2-1.38,3-4,3s-4-1-4-3c0-3,1.38-4,4-4S28,15.86,28,19Zm-5.11,0c0,2.05.26.83,1.12.83S25.12,21,25.12,19s-.29-1.81-1.12-1.81S22.89,16.91,22.89,19Z"/><path class="cls-1" d="M37,22H34V17H32v5H29V15h8Z"/><polygon class="cls-1" points="14 28.06 15.8 30.85 18.25 29.23 18 32.2 18 37 22 37 22 25 18.93 25 14 28.06"/><path class="cls-1" d="M29.28,24.94c-3.66,0-5.28,3.23-5.26,6,0,.12,0,1.14,0,1.26.44,2.82,1.78,5,5.34,5S35,35,35,32.18c0-.12,0-.23,0-.35C35,27.39,32.93,24.94,29.28,24.94ZM31,33c0,.47-1.06,1.28-1.53,1.28s-1.13-.89-1.47-1.36V29c.33-.47,1-1.33,1.5-1.33S31,28.53,31,29Z"/></svg>