<svg id="Layer_1" data-name="Layer 1" xmlns="http://www.w3.org/2000/svg" viewBox="0 0 50 50"><defs><style>.cls-1{fill:#d1d1d1;}.cls-2{fill:#6d6d6d;}.cls-3{fill:#8e8e8e;}.cls-4{fill:none;}.cls-5{fill:#495257;}.cls-6{fill:#556365;}</style></defs><title>dock_icon_14</title><rect class="cls-1" x="6" y="23" width="32" height="17"/><path class="cls-2" d="M16,15H14v8H11V15H9V13h7Z"/><path class="cls-2" d="M25,18c0,3-1.38,5-4,5s-4-1.9-4-5,1.38-5,4-5S25,14.86,25,18Zm-5.11,0c0,2.05.26,2.83,1.12,2.83S22.12,20,22.12,18s-.29-2.81-1.12-2.81S19.89,15.91,19.89,18Z"/><path class="cls-2" d="M34,23H31V15H29v8H26V13h8Z"/><rect class="cls-3" x="6" y="13" width="3" height="27"/><path class="cls-4" d="M36,35.81c1.3,0,1.6-.79,1.62-4.81H34.35C34.37,34.86,34.7,35.81,36,35.81Z"/><path class="cls-4" d="M36,25.26c-1.32,0-1.62,1-1.62,5.26,0,.17,0,.32,0,.48h3.24c0-.16,0-.31,0-.48C37.59,26,37.32,25.26,36,25.26Z"/><rect class="cls-5" x="21" y="31" width="6" height="9"/><polygon class="cls-6" points="22 21 14.79 25.41 17.43 29.18 21 27 21 31 27 31 27 21 22 21"/><path class="cls-6" d="M34.35,30.52c0-4.24.3-5.26,1.62-5.26s1.62.76,1.62,5.26c0,.17,0,.32,0,.48h6.2c0-.16,0-.32,0-.48,0-6.08-2.83-9.43-7.83-9.43s-7.83,3.35-7.83,9.43c0,.16,0,.32,0,.48h6.2C34.35,30.84,34.35,30.69,34.35,30.52Z"/><path class="cls-5" d="M37.59,31c0,4-.32,4.81-1.62,4.81s-1.6-1-1.62-4.81h-6.2c.15,5.72,3,9,7.82,9s7.67-3.28,7.82-9Z"/></svg>