<svg id="Layer_1" data-name="Layer 1" xmlns="http://www.w3.org/2000/svg" viewBox="0 0 50 50"><defs><style>.cls-1{fill:#fff;}</style></defs><title>dock_icon_04</title><path class="cls-1" d="M36.59,34c0-4.74-.27-5.54-1.62-5.54S33.35,29.55,33.35,34s.3,5.57,1.62,5.57S36.59,38.71,36.59,34Z"/><path class="cls-1" d="M8,23V43H20V30.32l-3.57,2.3-2.64-4L21,24h5V43h5c-2.5-1.48-3.87-4.58-3.87-9,0-6.39,2.83-9.92,7.83-9.92S42.8,27.63,42.8,34c0,4.4-1.37,7.49-3.87,9H44V23Z"/><path class="cls-1" d="M13,15H11v8H8V15H6V13h7Z"/><path class="cls-1" d="M22,18c0,3-1.38,5-4,5s-4-1.9-4-5,1.38-5,4-5S22,14.86,22,18Zm-5.11,0c0,2.05.26,2.83,1.12,2.83S19.12,20,19.12,18s-.29-2.81-1.12-2.81S16.89,15.91,16.89,18Z"/><path class="cls-1" d="M31,23H28V15H26v8H23V13h8Z"/></svg>