<svg id="Layer_1" data-name="Layer 1" xmlns="http://www.w3.org/2000/svg" viewBox="0 0 50 50"><defs><style>.cls-1{fill:#fff;}.cls-2{fill:#00aeb7;}</style></defs><title>dock_icon_05</title><rect class="cls-1" x="8" y="22" width="36" height="20"/><path class="cls-1" d="M13,14H11v8H8V14H6V12h7Z"/><path class="cls-1" d="M22,17c0,3-1.38,5-4,5s-4-1.9-4-5,1.38-5,4-5S22,13.86,22,17Zm-5.11,0c0,2.05.26,2.83,1.12,2.83S19.12,19,19.12,17s-.29-2.81-1.12-2.81S16.89,14.91,16.89,17Z"/><path class="cls-1" d="M31,22H28V14H26v8H23V12h8Z"/><path class="cls-2" d="M26,42H20V29l-3.57,2.18-2.64-3.77L21,23h5Z"/><path class="cls-2" d="M42.8,32.52C42.8,38.54,40,42,35,42s-7.83-3.46-7.83-9.48S30,23.09,35,23.09,42.8,26.44,42.8,32.52Zm-9.45,0c0,4.27.3,5.29,1.62,5.29s1.62-.84,1.62-5.29-.27-5.26-1.62-5.26S33.35,28.28,33.35,32.52Z"/></svg>