<?xml version="1.0" encoding="utf-8"?>
<!-- Generator: Adobe Illustrator 18.0.0, SVG Export Plug-In . SVG Version: 6.00 Build 0)  -->
<!DOCTYPE svg PUBLIC "-//W3C//DTD SVG 1.1//EN" "http://www.w3.org/Graphics/SVG/1.1/DTD/svg11.dtd">
<svg version="1.1" id="Layer_1" xmlns="http://www.w3.org/2000/svg" xmlns:xlink="http://www.w3.org/1999/xlink" x="0px" y="0px"
	 viewBox="0 0 23 23" enable-background="new 0 0 23 23" width="23" height="23" xml:space="preserve">
<g>
	<path fill="#999999" d="M18.8,0H14H9H4.3H0c0,4.1,2.9,7.7,6.5,8c0.9,1.3,2.1,2.3,3.5,2.7v4.4c-1.7,0.3-3,1.1-3,1.9h3h3h3
		c0-0.8-1.3-1.6-3-1.9v-4.4c1.3-0.4,2.5-1.4,3.5-2.7C20.1,7.7,23,4.1,23,0H18.8z M2,1h2.3C4.4,3.2,5,5.2,5.8,6.8C3.6,6.1,2,3.6,2,1z
		 M17.2,6.8C18,5.2,18.6,3.2,18.7,1H21C21,3.6,19.4,6.1,17.2,6.8z"/>
	<rect x="6" y="18" fill="#999999" width="5" height="5"/>
	<rect x="12" y="18" fill="#999999" width="5" height="5"/>
</g>
</svg>
