<svg id="Layer_1" data-name="Layer 1" xmlns="http://www.w3.org/2000/svg" viewBox="0 0 23 23"><defs><style>.cls-1{fill:#fff;}.cls-2{fill:#d64536;}</style></defs><title>completion-auto-n-override</title><rect class="cls-1" width="23" height="23" rx="4" ry="4"/><path class="cls-2" d="M19,0H15V1h4V0ZM13,0H9V1h4V0ZM7,0H4A4,4,0,0,0,3,.12l.25,1A13.63,13.63,0,0,1,7,1V0ZM1.27,1.07A4,4,0,0,0,0,3.57q0,.14,0,.28T0,4H0v.72H1A3.71,3.71,0,0,1,2,1.8l-.68-.73ZM1,6.72H0v4H1v-4Zm0,6H0v4H1v-4Zm0,6H0c0,.15,0,.3,0,.45H0c0,.07,0,.14,0,.21s0,.14,0,.21,0,.14,0,.21l0,.21q0,.15.09.3A4,4,0,0,0,1.61,22.2l.6-.8A3.39,3.39,0,0,1,1,18.72ZM3.57,22l-.14,1,.13,0H7.43V22a25.26,25.26,0,0,1-3.86,0Zm9.86,0h-4v1h4V22Zm5.89,0a34.12,34.12,0,0,1-3.89,0v1a27.31,27.31,0,0,0,4,0l-.11-1ZM23,18.85H22a3.27,3.27,0,0,1-1.29,2.61l.57.82a4,4,0,0,0,1-1.07l.14-.22a4.15,4.15,0,0,0,.48-1.33h0c0-.09,0-.18,0-.27s0-.17,0-.25,0-.2,0-.29Zm0-6H22v4h1v-4Zm0-6H22v4h1v-4ZM21.82,1.17l-.71.71a3.93,3.93,0,0,1,.88,3h1a6.32,6.32,0,0,0,0-1.11c0-.08,0-.16,0-.23s0-.15,0-.23l0-.23c0-.08,0-.15-.06-.22v0h0a4.08,4.08,0,0,0-1-1.6ZM19,0V1a3,3,0,0,1,.84.12l.28-1A4,4,0,0,0,19.28,0H19Z"/></svg>