<svg id="Layer_1" data-name="Layer 1" xmlns="http://www.w3.org/2000/svg" viewBox="0 0 23 23"><defs><style>.cls-1{fill:#fff;}.cls-2{fill:#9b9b9b;}.cls-3{fill:#757575;}</style></defs><title>completion-auto-enabled</title><rect class="cls-1" width="23" height="23" rx="4" ry="4"/><rect class="cls-2" x="3" y="3" width="17" height="17" rx="4" ry="4"/><polygon class="cls-1" points="10.4 16.56 5.36 12.4 6.64 10.85 10.22 13.82 16.27 7.32 17.73 8.68 10.4 16.56"/><path class="cls-3" d="M19,0H15V1h4V0ZM13,0H9V1h4V0ZM7,0H3.83a4,4,0,0,0-.56.06h0L3,.12l.25,1A13.64,13.64,0,0,1,7,1V0ZM1.27,1.07A4,4,0,0,0,0,3.38H0c0,.1,0,.21,0,.31s0,.13,0,.2S0,4,0,4H0v.72H1A3.71,3.71,0,0,1,2,1.8l-.68-.73ZM1,6.72H0v4H1v-4Zm0,6H0v4H1v-4Zm0,6H0a5.31,5.31,0,0,0,0,.66l0,.14H0A4,4,0,0,0,1.61,22.2l.6-.8A3.39,3.39,0,0,1,1,18.72ZM3.57,22l-.14,1a3.38,3.38,0,0,1,.38,0h0C5,23,6.24,23,7.43,23V22a25.22,25.22,0,0,1-3.86,0Zm9.86,0h-4v1h4V22Zm5.89,0a34,34,0,0,1-3.89,0v1a26.85,26.85,0,0,0,4,0h0l-.11-1ZM23,18.85H22a3.27,3.27,0,0,1-1.29,2.61l.57.82a4,4,0,0,0,.92-.88l.17-.24.09-.15c.06-.12.13-.23.18-.35s.1-.23.14-.35l.07-.21c0-.08,0-.17.06-.25l0-.2c0-.07,0-.13,0-.2s0-.14,0-.21,0-.15,0-.22,0-.12,0-.17Zm0-6H22v4h1v-4Zm0-6H22v4h1v-4ZM21.82,1.17l-.71.71a3.93,3.93,0,0,1,.88,3h1a5.66,5.66,0,0,0,0-1.11c0-.08,0-.16,0-.23s0-.15,0-.23,0-.15,0-.22,0-.15-.06-.22a4.23,4.23,0,0,0-1-1.67ZM19,0V1a3,3,0,0,1,.84.12l.28-1A4,4,0,0,0,19.58,0l-.15,0-.28,0Z"/></svg>