<svg id="Layer_1" data-name="Layer 1" xmlns="http://www.w3.org/2000/svg" viewBox="0 0 23 23"><defs><style>.cls-1{fill:#fff;}.cls-2{fill:#21b1c9;}.cls-3{fill:#d64536;}</style></defs><title>completion-manual-y-override</title><rect class="cls-1" width="23" height="23" rx="4" ry="4"/><rect class="cls-2" x="3" y="3" width="17" height="17" rx="4" ry="4"/><polygon class="cls-1" points="10.4 16.56 5.36 12.4 6.64 10.85 10.22 13.82 16.27 7.32 17.73 8.68 10.4 16.56"/><path class="cls-3" d="M19,1a3,3,0,0,1,3,3V19a3,3,0,0,1-3,3H4a3,3,0,0,1-3-3V4A3,3,0,0,1,4,1H19m0-1H4A4,4,0,0,0,0,4V19a4,4,0,0,0,4,4H19a4,4,0,0,0,4-4V4a4,4,0,0,0-4-4Z"/></svg>