<svg id="Layer_1" data-name="Layer 1" xmlns="http://www.w3.org/2000/svg" viewBox="0 0 50 50"><defs><style>.cls-1{fill:#d1d1d1;}.cls-2{fill:#56a000;}.cls-3{fill:#8e8e8e;}.cls-4{fill:#6d6d6d;}</style></defs><title>dock_icon_07</title><rect class="cls-1" x="6" y="11" width="15" height="18"/><polygon class="cls-2" points="6 40 11 35 14 37 19 32 22 35 25 31 34 29 39 23 41 26 44 13 44 40 6 40"/><rect class="cls-3" x="9" y="13" width="1" height="14"/><rect class="cls-3" x="13" y="13" width="1" height="14"/><rect class="cls-3" x="17" y="13" width="1" height="14"/><rect class="cls-2" x="16" y="18" width="3" height="2"/><rect class="cls-2" x="12" y="23" width="3" height="2"/><rect class="cls-2" x="8" y="16" width="3" height="2"/><rect class="cls-1" x="23" y="11" width="15" height="9"/><rect class="cls-4" x="25.5" y="17" width="10" height="1"/><rect class="cls-4" x="25.5" y="15" width="10" height="1"/><rect class="cls-4" x="25.5" y="13" width="10" height="1"/><path class="cls-1" d="M30.5,21a7.47,7.47,0,0,0-2.36.38L31,29l-7.39-3.46A7.5,7.5,0,1,0,30.5,21Z"/><path class="cls-4" d="M25.72,22.72,31,29l-2.86-7.62A7.49,7.49,0,0,0,25.72,22.72Z"/></svg>