<svg id="Layer_1" data-name="Layer 1" xmlns="http://www.w3.org/2000/svg" viewBox="0 0 50 50"><defs><style>.cls-1{fill:#007ac5;}.cls-2{fill:#fff;}</style></defs><title>dock_icon_12</title><polygon class="cls-1" points="11 38 16.89 35.19 20.58 36.59 25.74 32.37 28.68 35.89 30.89 28.85 34 32 39 19 39 38 11 38"/><path class="cls-1" d="M29.5,15a6.48,6.48,0,0,0-2,.33l2.48,6.6-6.4-3a6.5,6.5,0,1,0,6-3.93Z"/><rect class="cls-1" x="11" y="15" width="11" height="18"/><rect class="cls-2" x="14" y="17" width="1" height="14"/><rect class="cls-2" x="18" y="17" width="1" height="14"/><rect class="cls-2" x="17" y="27" width="3" height="2"/><rect class="cls-2" x="13" y="20" width="3" height="2"/></svg>