<svg id="Layer_1" data-name="Layer 1" xmlns="http://www.w3.org/2000/svg" viewBox="0 0 50 50"><defs><style>.cls-1{fill:#a6a6a6;}</style></defs><title>dock_icon_11</title><path class="cls-1" d="M28.5,15a5.48,5.48,0,0,1,1.73.28l-2.09,5.58,5.42-2.54A5.5,5.5,0,1,1,28.5,15Z"/><path class="cls-1" d="M21,16V29H12V16h9m1-1H11V30H22V15Z"/><rect class="cls-1" x="14" y="17" width="1" height="11"/><rect class="cls-1" x="18" y="17" width="1" height="11"/><rect class="cls-1" x="17" y="24" width="3" height="2"/><rect class="cls-1" x="13" y="19" width="3" height="2"/><polygon class="cls-1" points="10.48 38.11 9.73 37.45 14.92 31.47 20.45 33.63 26.35 27.35 29.36 30.24 32.61 26 35.79 28.07 39.98 17.11 40.91 17.47 36.28 29.59 32.84 27.35 29.47 31.73 26.38 28.77 20.72 34.81 15.21 32.66 10.48 38.11"/><polygon class="cls-1" points="41 24 36.59 34 33.28 31 28.86 35 25.26 33.17 19.57 37.29 15.62 36 9 38 41 38 41 24"/></svg>