<svg id="Layer_1" data-name="Layer 1" xmlns="http://www.w3.org/2000/svg" viewBox="0 0 50 50"><defs><style>.cls-1{fill:#d1d1d1;}.cls-2{fill:#6d6d6d;}.cls-3{fill:#fff;}.cls-4{fill:#00aeb7;}.cls-5{fill:#0089a0;}.cls-6{fill:#8e8e8e;}</style></defs><title>dock_icon_08</title><polygon class="cls-1" points="16 13 5 13 5 41 16 41 43 41 43 13 16 13"/><rect class="cls-2" x="11" y="24" width="6" height="6"/><rect class="cls-2" x="11" y="31" width="6" height="6"/><rect class="cls-3" x="12" y="32" width="4" height="4"/><rect class="cls-3" x="12" y="25" width="4" height="4"/><rect class="cls-4" x="12.44" y="26.06" width="1" height="3" transform="translate(-15.7 17.22) rotate(-45)"/><rect class="cls-4" x="13.35" y="25.85" width="4.41" height="1" transform="translate(-14.08 18.72) rotate(-45)"/><rect class="cls-4" x="5" y="13" width="2" height="14"/><rect class="cls-5" x="5" y="27" width="2" height="14"/><rect class="cls-2" x="11" y="17" width="6" height="6"/><rect class="cls-3" x="12" y="18" width="4" height="4"/><rect class="cls-4" x="12.44" y="19.06" width="1" height="3" transform="translate(-10.75 15.17) rotate(-45)"/><rect class="cls-4" x="13.35" y="18.85" width="4.41" height="1" transform="translate(-9.13 16.67) rotate(-45)"/><rect class="cls-6" x="19" y="18" width="20" height="1"/><rect class="cls-6" x="19" y="20" width="20" height="1"/><rect class="cls-6" x="19" y="25" width="20" height="1"/><rect class="cls-6" x="19" y="27" width="20" height="1"/><rect class="cls-6" x="19" y="32" width="20" height="1"/><rect class="cls-6" x="19" y="34" width="20" height="1"/></svg>