<svg id="Layer_1" data-name="Layer 1" xmlns="http://www.w3.org/2000/svg" viewBox="0 0 50 50"><defs><style>.cls-1{fill:#797979;}</style></defs><title>dock_icon_09</title><path class="cls-1" d="M40,13V37H8V13H40m1-1H7V38H41V12Z"/><path class="cls-1" d="M14,15v6h6V15Zm5,5H15V16h4Z"/><rect class="cls-1" x="15.31" y="17.18" width="0.85" height="2.56" transform="translate(-8.44 16.53) rotate(-45)"/><polygon class="cls-1" points="16.94 19.06 21.6 16.4 21 15.79 16.34 18.46 16.94 19.06"/><path class="cls-1" d="M14,22v6h6V22Zm5,5H15V23h4Z"/><path class="cls-1" d="M14,29v6h6V29Zm5,5H15V30h4Z"/><rect class="cls-1" x="23" y="23" width="14" height="1"/><rect class="cls-1" x="23" y="25" width="14" height="1"/><rect class="cls-1" x="23" y="30" width="14" height="1"/><rect class="cls-1" x="23" y="32" width="14" height="1"/><rect class="cls-1" x="23" y="16" width="14" height="1"/><rect class="cls-1" x="23" y="18" width="14" height="1"/><rect class="cls-1" x="7" y="12" width="4" height="26"/></svg>