<svg id="Layer_1" data-name="Layer 1" xmlns="http://www.w3.org/2000/svg" viewBox="0 0 50 50"><defs><style>.cls-1{fill:#007ac5;}.cls-2{fill:#fff;}</style></defs><title>dock_icon_12</title><path class="cls-1" d="M38,13V37H10V13H38m1-1H9V38H39V12Z"/><rect class="cls-1" x="12" y="15" width="6" height="6"/><rect class="cls-2" x="13" y="16" width="4" height="4"/><rect class="cls-1" x="13.31" y="17.18" width="0.85" height="2.56" transform="translate(-9.03 15.12) rotate(-45)"/><polygon class="cls-1" points="14.94 19.06 19.6 16.4 19 15.79 14.34 18.46 14.94 19.06"/><rect class="cls-1" x="12" y="22" width="6" height="6"/><rect class="cls-2" x="13" y="23" width="4" height="4"/><rect class="cls-1" x="12" y="29" width="6" height="6"/><rect class="cls-2" x="13" y="30" width="4" height="4"/><rect class="cls-1" x="21" y="23" width="12" height="1"/><rect class="cls-1" x="21" y="25" width="12" height="1"/><rect class="cls-1" x="21" y="30" width="12" height="1"/><rect class="cls-1" x="21" y="32" width="12" height="1"/><rect class="cls-1" x="21" y="16" width="12" height="1"/><rect class="cls-1" x="21" y="18" width="12" height="1"/><rect class="cls-1" x="36" y="12" width="2" height="26"/></svg>