<svg id="Layer_1" data-name="Layer 1" xmlns="http://www.w3.org/2000/svg" viewBox="0 0 50 50"><defs><style>.cls-1{fill:#fff;}</style></defs><title>dock_icon_10</title><path class="cls-1" d="M11,16v7H36V16Zm24,6H12V17H35Z"/><rect class="cls-1" x="13" y="18" width="1" height="3"/><rect class="cls-1" x="15" y="18" width="1" height="3"/><rect class="cls-1" x="17" y="18" width="1" height="3"/><rect class="cls-1" x="13" y="18" width="3" height="1"/><rect class="cls-1" x="16" y="20" width="2" height="1"/><rect class="cls-1" x="19" y="20" width="1" height="1"/><rect class="cls-1" x="21" y="20" width="1" height="1"/><rect class="cls-1" x="23" y="20" width="1" height="1"/><rect class="cls-1" x="11" y="29" width="5" height="1"/><rect class="cls-1" x="15" y="31" width="6" height="1"/><rect class="cls-1" x="11" y="33" width="10" height="1"/><rect class="cls-1" x="20" y="29" width="4" height="1"/><path class="cls-1" d="M34.5,18A6.5,6.5,0,1,0,41,24.5,6.5,6.5,0,0,0,34.5,18Zm0,12A5.5,5.5,0,1,1,40,24.5,5.5,5.5,0,0,1,34.5,30Z"/><rect class="cls-1" x="22.74" y="30.59" width="8.49" height="2.77" transform="translate(-14.71 28.44) rotate(-45)"/><rect class="cls-1" x="29" y="25" width="9" height="2"/><rect class="cls-1" x="33" y="22" width="8" height="2" transform="translate(60 -14) rotate(90)"/><rect class="cls-1" x="17" y="29" width="2" height="1"/><rect class="cls-1" x="11" y="31" width="3" height="1"/><path class="cls-1" d="M16,13H8V39H43V13ZM42,38H9V14H42Z"/><rect class="cls-1" x="7" y="13" width="2" height="26"/></svg>