<svg id="Layer_1" data-name="Layer 1" xmlns="http://www.w3.org/2000/svg" viewBox="0 0 50 50"><defs><style>.cls-1{fill:#d1d1d1;}.cls-2{fill:#8e8e8e;}.cls-3{fill:#fff;}.cls-4{fill:#0089a0;}.cls-5{fill:#00aeb7;}.cls-6{fill:#6d6d6d;}</style></defs><title>dock_icon_08</title><polygon class="cls-1" points="17 11 6 11 6 39 17 39 44 39 44 11 17 11"/><rect class="cls-2" x="9" y="14" width="28" height="7"/><rect class="cls-3" x="10" y="15" width="26" height="5"/><rect class="cls-4" x="33.5" y="30.5" width="2" height="19" transform="translate(74.5 5.5) rotate(90)"/><rect class="cls-5" x="14.5" y="30.5" width="2" height="19" transform="translate(55.5 24.5) rotate(90)"/><rect class="cls-6" x="11" y="16" width="1" height="3"/><rect class="cls-6" x="13" y="16" width="1" height="3"/><rect class="cls-6" x="15" y="16" width="1" height="3"/><rect class="cls-6" x="11" y="16" width="3" height="1"/><rect class="cls-6" x="14" y="18" width="2" height="1"/><rect class="cls-6" x="17" y="18" width="1" height="1"/><rect class="cls-6" x="19" y="18" width="1" height="1"/><rect class="cls-6" x="21" y="18" width="1" height="1"/><rect class="cls-2" x="9" y="24" width="10" height="1"/><rect class="cls-2" x="9" y="27" width="5" height="1"/><rect class="cls-2" x="40" y="11" width="4" height="28"/><rect class="cls-2" x="13" y="30" width="9" height="1"/><rect class="cls-2" x="9" y="33" width="13" height="1"/><circle class="cls-4" cx="35.5" cy="22.5" r="6.5"/><rect class="cls-2" x="21" y="27" width="5" height="1"/><circle class="cls-3" cx="35.5" cy="22.5" r="5.5"/><rect class="cls-4" x="23.74" y="28.59" width="8.49" height="2.77" transform="translate(-13 28.56) rotate(-45)"/><rect class="cls-2" x="30" y="23" width="9" height="2"/><rect class="cls-2" x="34" y="20" width="8" height="2" transform="translate(59 -17) rotate(90)"/><rect class="cls-2" x="15" y="27" width="5" height="1"/><rect class="cls-2" x="20" y="24" width="5" height="1"/><rect class="cls-2" x="9" y="30" width="3" height="1"/><rect class="cls-2" x="26" y="33" width="6" height="1"/><rect class="cls-2" x="29" y="30" width="8" height="1"/><rect class="cls-6" x="23.59" y="32.17" width="1.63" height="2.77" transform="translate(-16.58 27.08) rotate(-45)"/><rect class="cls-2" x="33" y="33" width="4" height="1"/></svg>