<svg id="Layer_1" data-name="Layer 1" xmlns="http://www.w3.org/2000/svg" viewBox="0 0 50 50"><defs><style>.cls-1{fill:#007ac5;}.cls-2{fill:#fff;}</style></defs><title>dock_icon_12</title><path class="cls-1" d="M36.07,15V33H12.93V15H36.07M37,14H9V34H37V14Z"/><polygon class="cls-1" points="35.85 27.18 33.3 28.35 30.76 27.18 25.67 38.19 28.9 37.69 30.45 40.4 33.3 34.23 36.15 40.4 37.71 37.69 40.93 38.19 35.85 27.18 35.85 27.18"/><circle class="cls-1" cx="33.47" cy="29.53" r="6.53"/><ellipse class="cls-2" cx="33.41" cy="29.42" rx="4.01" ry="3.58"/><rect class="cls-1" x="14" y="17" width="7" height="7"/><circle class="cls-2" cx="17.5" cy="19.5" r="1.5"/><polygon class="cls-2" points="15 23 20 23 19 21 16 21 15 23"/><rect class="cls-1" x="14" y="26" width="11" height="1"/><rect class="cls-1" x="14" y="28" width="11" height="1"/><rect class="cls-1" x="14" y="30" width="11" height="1"/></svg>