<svg id="Layer_1" data-name="Layer 1" xmlns="http://www.w3.org/2000/svg" viewBox="0 0 50 50"><defs><style>.cls-1{fill:#fff;}</style></defs><title>dock_icon_10</title><path class="cls-1" d="M40,15V35H14V15H40m1-1H9V36H41V14Z"/><path class="cls-1" d="M16,17v7h7V17Zm1,6,1-2h1.5A1.5,1.5,0,1,1,21,19.5,1.5,1.5,0,0,1,19.5,21H21l1,2Z"/><rect class="cls-1" x="25" y="18" width="13" height="1"/><rect class="cls-1" x="25" y="20" width="13" height="1"/><rect class="cls-1" x="25" y="22" width="13" height="1"/><polygon class="cls-1" points="34.8 31.61 33 32.44 31.2 31.61 27.6 39.41 29.88 39.05 30.98 40.97 33 36.6 35.02 40.97 36.12 39.05 38.4 39.41 34.8 31.61 34.8 31.61"/><path class="cls-1" d="M33,24a5,5,0,1,0,5,5A5,5,0,0,0,33,24Zm0,8a3,3,0,1,1,3-3A3,3,0,0,1,33,32Z"/></svg>