<svg id="Layer_1" data-name="Layer 1" xmlns="http://www.w3.org/2000/svg" viewBox="0 0 50 50"><defs><style>.cls-1{fill:#d1d1d1;}.cls-2{fill:#8e8e8e;}.cls-3{fill:#00aeb7;}.cls-4{fill:#0089a0;}.cls-5{fill:#e2e2e2;}.cls-6{fill:#6d6d6d;}</style></defs><title>dock_icon_08</title><rect class="cls-1" x="8" y="14" width="36" height="24" transform="translate(52 52) rotate(180)"/><rect class="cls-2" x="6" y="14" width="11" height="24" transform="translate(23 52) rotate(180)"/><polygon class="cls-3" points="37.8 33.61 36 34.44 34.2 33.61 30.6 41.41 32.88 41.05 33.98 42.97 36 38.6 38.02 42.97 39.12 41.05 41.4 41.41 37.8 33.61 37.8 33.61"/><circle class="cls-4" cx="36" cy="31" r="5"/><circle class="cls-2" cx="36" cy="31" r="3"/><rect class="cls-5" x="8" y="17" width="7" height="7"/><rect class="cls-2" x="19" y="21" width="22" height="1"/><rect class="cls-2" x="19" y="23" width="22" height="1"/><rect class="cls-6" x="19" y="17" width="11" height="2"/><circle class="cls-6" cx="11.5" cy="19.5" r="1.5"/><polygon class="cls-6" points="9 23 14 23 13 21 10 21 9 23"/><rect class="cls-3" x="15" y="14" width="2" height="13"/><rect class="cls-6" x="21" y="32" width="1" height="1"/><rect class="cls-6" x="20" y="31" width="3" height="1"/><rect class="cls-6" x="23" y="31" width="1" height="2"/><rect class="cls-6" x="24" y="32" width="2" height="1"/><rect class="cls-6" x="25" y="31" width="1" height="1"/><rect class="cls-6" x="27" y="31" width="1" height="1"/><rect class="cls-6" x="6" y="27" width="9" height="11"/><rect class="cls-4" x="15" y="27" width="2" height="11"/></svg>