<svg id="Layer_1" data-name="Layer 1" xmlns="http://www.w3.org/2000/svg" viewBox="0 0 50 50"><defs><style>.cls-1{fill:#6d6d6d;}</style></defs><title>dock_icon_13</title><circle class="cls-1" cx="14.5" cy="20.5" r="1.5"/><polygon class="cls-1" points="12 24 17 24 16 22 13 22 12 24"/><path class="cls-1" d="M9,15V35H32V15Zm9,17H11V31h7Zm0-2H11V29h7Zm0-2H11V27h7Zm0-3H11V18h7Zm13,9H20V16H31Z"/><path class="cls-1" d="M21,19c0,4.28,3.12,8,7,8s7-3.68,7-8Zm7,7c-2.75,0-5-3-5-6h9.95C32.94,23,30.71,26,28,26Z"/><path class="cls-1" d="M28,19c0,4.28,3.12,8,7,8s7-3.68,7-8Zm7,7c-2.75,0-5-3-5-6h9.95C39.89,23,37.67,26,34.92,26Z"/><path class="cls-1" d="M31.5,29c3.59,0,6.5-4.48,6.5-10H25C25,24.52,27.91,29,31.5,29Z"/><rect class="cls-1" x="30" y="24.96" width="2.93" height="9.95"/><path class="cls-1" d="M31.46,33C29,33,27,34,27,34.91h8.92C35.92,34,33.92,33,31.46,33Z"/><rect class="cls-1" x="27" y="35" width="9" height="2"/><rect class="cls-1" x="21" y="29" width="7" height="1"/><rect class="cls-1" x="21" y="31" width="7" height="1"/></svg>