<svg id="Layer_1" data-name="Layer 1" xmlns="http://www.w3.org/2000/svg" viewBox="0 0 50 50"><defs><style>.cls-1{fill:#a6a6a6;}</style></defs><title>dock_icon_17</title><path class="cls-1" d="M16,18a6.57,6.57,0,0,0,6.37,6.63A6.57,6.57,0,0,0,28.74,18Zm6.37,5.78A4.84,4.84,0,0,1,17.82,19h9.1A4.84,4.84,0,0,1,22.37,23.78Z"/><path class="cls-1" d="M21.62,18A6.69,6.69,0,0,0,35,18Zm6.69,5.78A5,5,0,0,1,23.53,19h9.56A5,5,0,0,1,28.31,23.78Z"/><path class="cls-1" d="M25.5,26c2.7,0,4.89-4,4.89-9H20.61C20.61,22,22.8,26,25.5,26Z"/><rect class="cls-1" x="24" y="21" width="3" height="11"/><path class="cls-1" d="M25.5,29.58c-3.35,0-6.07,1.21-6.07,2.42H31.57C31.57,30.79,28.85,29.58,25.5,29.58Z"/></svg>