<svg id="Layer_1" data-name="Layer 1" xmlns="http://www.w3.org/2000/svg" viewBox="0 0 50 50"><defs><style>.cls-1{fill:#d1d1d1;}.cls-2{fill:#556365;}.cls-3{fill:#e2e2e2;}.cls-4{fill:#6d6d6d;}.cls-5{fill:#8e8e8e;}.cls-6{fill:#495257;}</style></defs><title>dock_icon_14</title><rect class="cls-1" x="6" y="14" width="29" height="24"/><rect class="cls-2" x="8" y="16" width="11" height="11"/><rect class="cls-3" x="10" y="18" width="7" height="7"/><circle class="cls-4" cx="13.5" cy="20.5" r="1.5"/><rect class="cls-5" x="6" y="36" width="29" height="2"/><polygon class="cls-4" points="11 24 16 24 15 22 12 22 11 24"/><path class="cls-4" d="M24,17c0,4.28,3.12,8,7,8s7-3.68,7-8Zm7,7c-2.75,0-5-3-5-6h9.95C35.94,21,33.71,24,31,24Z"/><path class="cls-4" d="M31,17c0,4.28,3.12,8,7,8s7-3.68,7-8Zm7,7c-2.75,0-5-3-5-6h9.95C42.89,21,40.67,24,37.92,24Z"/><path class="cls-4" d="M34.5,27c3.59,0,6.5-4.48,6.5-10H28C28,22.52,30.91,27,34.5,27Z"/><rect class="cls-4" x="33" y="22.96" width="2.93" height="9.95"/><path class="cls-4" d="M34.46,31C32,31,30,32,30,32.91h8.92C38.92,32,36.92,31,34.46,31Z"/><rect class="cls-6" x="8" y="29" width="11" height="2"/><rect class="cls-5" x="8" y="32" width="20" height="1"/><rect class="cls-5" x="8" y="34" width="20" height="1"/><rect class="cls-4" x="30" y="31" width="9" height="4"/><rect class="cls-6" x="21" y="29" width="7" height="2"/></svg>