<svg id="Layer_1" data-name="Layer 1" xmlns="http://www.w3.org/2000/svg" viewBox="0 0 50 50"><defs><style>.cls-1{fill:#00aeb7;}.cls-2{fill:#fff;}</style></defs><title>dock_icon_05</title><path class="cls-1" d="M30.38,23.34c-4.58,0-8.3-4.67-8.3-9.34h16.6C38.68,18.67,35,23.34,30.38,23.34Z"/><path class="cls-1" d="M20.06,23.34c-4.36,0-7.9-4.67-7.9-9.34H28C28,18.67,24.42,23.34,20.06,23.34Z"/><path class="cls-2" d="M9,12c0,7,5,13,11.06,13s11.06-6,11.06-13ZM20.06,23.34c-4.36,0-7.9-4.67-7.9-9.34H28C28,18.67,24.42,23.34,20.06,23.34Z"/><path class="cls-2" d="M18.76,12c0,7,5.2,13,11.62,13S42,19,42,12ZM30.38,23.34c-4.58,0-8.3-4.67-8.3-9.34h16.6C38.68,18.67,35,23.34,30.38,23.34Z"/><path class="cls-2" d="M25.5,27.28C30.19,27.28,34,20,34,11H17C17,20,20.81,27.28,25.5,27.28Z"/><rect class="cls-2" x="23.09" y="20.71" width="4.78" height="16.2"/><path class="cls-2" d="M25.5,33.8c-4.14,0-7.5,1.56-7.5,3.12H33C33,35.36,29.64,33.8,25.5,33.8Z"/><rect class="cls-2" x="18" y="37" width="15" height="3"/></svg>