<svg id="Layer_1" data-name="Layer 1" xmlns="http://www.w3.org/2000/svg" viewBox="0 0 50 50"><defs><style>.cls-1{fill:#fff;}.cls-2{fill:#007ac5;}</style></defs><title>dock_icon_12</title><rect class="cls-1" width="50" height="50"/><path class="cls-2" d="M35.07,16V34H19.93V16H35.07M36,15H9V35H36V15Z"/><rect class="cls-1" x="11" y="18" width="7" height="7"/><circle class="cls-2" cx="14.5" cy="20.5" r="1.5"/><polygon class="cls-2" points="12 24 17 24 16 22 13 22 12 24"/><rect class="cls-1" x="11" y="27" width="9" height="1"/><rect class="cls-1" x="11" y="29" width="9" height="1"/><rect class="cls-1" x="11" y="31" width="9" height="1"/><path class="cls-2" d="M21,19c0,4.28,3.12,8,7,8s7-3.68,7-8Zm7,7c-2.75,0-5-3-5-6h9.95C32.94,23,30.71,26,28,26Z"/><path class="cls-2" d="M28,19c0,4.28,3.12,8,7,8s7-3.68,7-8Zm7,7c-2.75,0-5-3-5-6h9.95C39.89,23,37.67,26,34.92,26Z"/><path class="cls-2" d="M31.5,29c3.59,0,6.5-4.48,6.5-10H25C25,24.52,27.91,29,31.5,29Z"/><rect class="cls-2" x="30" y="24.96" width="2.93" height="9.95"/><path class="cls-2" d="M31.46,33C29,33,27,34,27,34.91h8.92C35.92,34,33.92,33,31.46,33Z"/><rect class="cls-2" x="27" y="34" width="10" height="2"/></svg>