<?xml version="1.0" encoding="utf-8"?>
<!-- Generator: Adobe Illustrator 18.0.0, SVG Export Plug-In . SVG Version: 6.00 Build 0)  -->
<!DOCTYPE svg PUBLIC "-//W3C//DTD SVG 1.1//EN" "http://www.w3.org/Graphics/SVG/1.1/DTD/svg11.dtd">
<svg version="1.1" id="Layer_1" xmlns="http://www.w3.org/2000/svg" xmlns:xlink="http://www.w3.org/1999/xlink" x="0px" y="0px"
	 viewBox="0 0 24 24" enable-background="new 0 0 24 24" width="24" height="24" xml:space="preserve">
<g>
	<g>
		<rect fill="#93A5A5" width="24" height="24"/>
	</g>
	<polygon fill="#768485" points="0,24 0,14.5 9.7,4.3 9.5,7.7 9.5,10.2 11.1,8.5 15.5,8.5 15.5,10.1 16.8,8.9 19.8,15.9 11.4,24 	
		"/>
	<polyline fill="#6E7B7C" points="0,16.9 3.9,12.8 9.7,12.6 11.3,11.2 15.5,12.1 17.7,10.3 17.7,15 11.7,19.2 6.4,24 0,24 0,18.9 	
		"/>
	<g>
		<path fill="#FFFFFF" d="M16.8,8.9l0,3.9c0,0-0.9,4-8.4,7c6.5-0.4,10.7-3.5,11.3-3.9V6.9C19.3,7.4,18.2,8.1,16.8,8.9z"/>
		<path fill="#FFFFFF" d="M6.1,19.8c7.7-3.4,9.5-7.2,9.5-7.7v-1.8V9.9V3.9c-1.2,1.9-3,3.6-4.4,4.6l0,4.6C10.3,16,6.6,19.3,6.1,19.8z
			"/>
		<path fill="#FFFFFF" d="M9.7,12.6V4.3C8.2,9,3.9,12.8,3.9,12.8s0,4.2,0,7C5.5,18.6,9.2,14.9,9.7,12.6z"/>
	</g>
</g>
</svg>
