<svg id="Layer_1" data-name="Layer 1" xmlns="http://www.w3.org/2000/svg" viewBox="0 0 50 50"><defs><style>.cls-1{fill:#fff;}</style></defs><title>dock_icon_04</title><path class="cls-1" d="M32,23.7h-.79v3.61h.91c1.1,0,1.68-.6,1.68-1.89C33.76,24.34,33.25,23.7,32,23.7Z"/><path class="cls-1" d="M44,21,31.63,18.55l-6.13-11-6.13,11L7,21l8.58,9.23-.39,3.23,3.16-6.26L15.08,21h4.17l1.44,3.78L22.29,21h4.1L23,27.06l3.66,7.08H22.46l-1.81-4.51L19,34.14H15.1l-1,8.58L25.5,37.42l11.43,5.31L35.42,30.21ZM31.17,30v4.1H27.28V21H32c3.53,0,5.7,1.47,5.7,4.42S35.57,30,32.46,30Z"/></svg>