<svg id="Layer_1" data-name="Layer 1" xmlns="http://www.w3.org/2000/svg" viewBox="0 0 50 50"><defs><style>.cls-1{fill:#a6a6a6;}</style></defs><title>dock_icon_17</title><path class="cls-1" d="M28.31,24.86h-.4v1.82h.46c.55,0,.85-.31.85-1S29,24.86,28.31,24.86Z"/><path class="cls-1" d="M35,23.26l-6.68-1.31L25,16,21.7,21.95,15,23.26l4.63,5L18.84,35,25,32.13,31.18,35l-.82-6.76ZM23.5,30.14l-.92-2.28-.86,2.28H19.64l1.78-3.52L19.77,23.5h2.11l.73,1.91.81-1.91h2.07l-1.72,3.07,1.85,3.58Zm4.4-2.07v2.07h-2V23.5h2.4c1.79,0,2.88.74,2.88,2.23s-1.09,2.34-2.66,2.34Z"/></svg>