<svg id="Layer_1" data-name="Layer 1" xmlns="http://www.w3.org/2000/svg" viewBox="0 0 50 50"><defs><style>.cls-1{fill:#fff;}.cls-2{fill:#f85f00;}</style></defs><title>dock_icon_03</title><polygon class="cls-1" points="25.5 7.54 31.63 18.55 44 20.98 35.42 30.21 36.93 42.72 25.5 37.42 14.07 42.72 15.58 30.21 7 20.98 19.37 18.55 25.5 7.54"/><path class="cls-2" d="M26.63,33.73H22.71L21,29.5l-1.59,4.23H15.56l3.29-6.53-3.06-5.78H19.7L21,25l1.5-3.54h3.84L23.2,27.09Z"/><path class="cls-2" d="M37,25.56c0,2.88-2,4.33-4.93,4.33h-1.2v3.84H27.22V21.42h4.44C35,21.42,37,22.8,37,25.56Zm-3.71,0c0-1-.48-1.61-1.68-1.61h-.74v3.38h.85C32.74,27.32,33.29,26.76,33.29,25.56Z"/></svg>