<svg id="Layer_1" data-name="Layer 1" xmlns="http://www.w3.org/2000/svg" viewBox="0 0 50 50"><defs><style>.cls-1{fill:#d1d1d1;}.cls-2{fill:#6d6d6d;}.cls-3{fill:#8e8e8e;}.cls-4{fill:#c60021;}.cls-5{fill:#d8414c;}.cls-6{fill:#fff;}</style></defs><title>dock_icon_01</title><polygon class="cls-1" points="17 31 6 31 6 41 17 41 44 41 44 31 17 31"/><rect class="cls-2" x="12" y="36" width="26" height="1"/><rect class="cls-2" x="12" y="38" width="26" height="1"/><rect class="cls-3" x="6" y="17" width="38" height="14"/><rect class="cls-4" x="6" y="16" width="38" height="12"/><polygon class="cls-5" points="44 25 6 25 6 16 25 13 44 16 44 25"/><polygon class="cls-6" points="25 13 27.23 19.88 34.46 19.88 28.61 24.13 30.85 31 25 26.75 19.15 31 21.39 24.13 15.54 19.88 22.77 19.88 25 13"/><rect class="cls-3" x="12" y="33" width="26" height="2"/><rect class="cls-5" x="12" y="33" width="16" height="2"/></svg>