<?xml version="1.0" encoding="utf-8"?>
<!-- Generator: Adobe Illustrator 21.0.0, SVG Export Plug-In . SVG Version: 6.00 Build 0)  -->
<svg version="1.1"
	 id="svg2" inkscape:version="0.48.3.1 r9886" sodipodi:docname="icon.svg" xmlns:cc="http://creativecommons.org/ns#" xmlns:dc="http://purl.org/dc/elements/1.1/" xmlns:inkscape="http://www.inkscape.org/namespaces/inkscape" xmlns:rdf="http://www.w3.org/1999/02/22-rdf-syntax-ns#" xmlns:sodipodi="http://sodipodi.sourceforge.net/DTD/sodipodi-0.dtd" xmlns:svg="http://www.w3.org/2000/svg"
	 xmlns="http://www.w3.org/2000/svg" xmlns:xlink="http://www.w3.org/1999/xlink" x="0px" y="0px" viewBox="0 0 16 16"
	 style="enable-background:new 0 0 16 16;" width="16" height="16" xml:space="preserve">
<style type="text/css">
	.st0{fill:#999999;}
</style>
<sodipodi:namedview  bordercolor="#666666" borderopacity="1" gridtolerance="10" guidetolerance="10" id="namedview4" inkscape:current-layer="svg2" inkscape:cx="8" inkscape:cy="8" inkscape:pageopacity="0" inkscape:pageshadow="2" inkscape:window-height="480" inkscape:window-maximized="0" inkscape:window-width="640" inkscape:window-x="0" inkscape:window-y="24" inkscape:zoom="14.75" objecttolerance="10" pagecolor="#ffffff" showgrid="true">
	<inkscape:grid  empspacing="5" enabled="true" id="grid3033" snapvisiblegridlinesonly="true" type="xygrid" visible="true">
		</inkscape:grid>
</sodipodi:namedview>
<path class="st0" d="M0,7v9h16V7H0z M15,15H1V8h14V15z"/>
<path class="st0" d="M0,0v6h16V0H0z M15,5H1V1h14V5z"/>
<rect x="2" y="2" class="st0" width="2" height="2"/>
<rect x="11" y="2" class="st0" width="3" height="2"/>
<rect x="8" y="2" class="st0" width="2" height="2"/>
<rect x="5" y="2" class="st0" width="2" height="2"/>
<rect x="2" y="12" class="st0" width="2" height="2"/>
<rect x="12" y="12" class="st0" width="2" height="2"/>
<rect x="8" y="12" class="st0" width="2" height="2"/>
<rect x="5" y="12" class="st0" width="3" height="2"/>
<rect x="2" y="9" class="st0" width="2" height="2"/>
<rect x="12" y="9" class="st0" width="2" height="2"/>
<rect x="8" y="9" class="st0" width="3" height="2"/>
<rect x="4" y="9" class="st0" width="3" height="2"/>
</svg>
