<svg id="Layer_1" data-name="Layer 1" xmlns="http://www.w3.org/2000/svg" viewBox="0 0 50 50"><defs><style>.cls-1{fill:#fff;}</style></defs><title>dock_icon_10</title><path class="cls-1" d="M37,14V32H10V14H37m1-1H9V33H38V13Z"/><rect class="cls-1" x="18" y="16" width="7" height="2"/><polygon class="cls-1" points="32.66 27.82 22.8 37.68 20.82 35.7 30.68 25.84 34.5 24 32.66 27.82"/><rect class="cls-1" x="18" y="19" width="16" height="1"/><rect class="cls-1" x="18" y="24" width="7" height="2"/><polygon class="cls-1" points="38 14 41 15.5 38 17 41 18.5 38 20 41 21.5 38 23 38 14"/><rect class="cls-1" x="12" y="16" width="5" height="5"/><rect class="cls-1" x="12" y="24" width="5" height="5"/><rect class="cls-1" x="18" y="27" width="8" height="1"/><rect class="cls-1" x="18" y="21" width="16" height="1"/><rect class="cls-1" x="18" y="29" width="6" height="1"/><polygon class="cls-1" points="38 23 41 24.5 38 26 41 27.5 38 29 41 30.5 38 32 38 23"/></svg>