<svg id="Layer_1" data-name="Layer 1" xmlns="http://www.w3.org/2000/svg" viewBox="0 0 50 50"><defs><style>.cls-1{fill:#007ac5;}</style></defs><title>dock_icon_12</title><path class="cls-1" d="M36,15V36H10V15H36m1-1H9V37H37V14Z"/><rect class="cls-1" x="12" y="20" width="20" height="1"/><polygon class="cls-1" points="30.66 30.82 20.8 40.68 18.82 38.7 28.68 28.84 32.5 27 30.66 30.82"/><rect class="cls-1" x="12" y="22" width="20" height="1"/><rect class="cls-1" x="12" y="24" width="20" height="1"/><rect class="cls-1" x="12" y="17" width="8" height="2"/><rect class="cls-1" x="12" y="27" width="8" height="2"/><rect class="cls-1" x="12" y="30" width="11" height="1"/><rect class="cls-1" x="12" y="32" width="9" height="1"/><polygon class="cls-1" points="34 37 34 14 37 14 40 16 37 18 40 20 37 22 40 24 37 26 40 28 37 30 40 32 37 34 40 36 38.5 37 34 37"/></svg>