<svg id="Layer_1" data-name="Layer 1" xmlns="http://www.w3.org/2000/svg" viewBox="0 0 50 50"><defs><style>.cls-1{fill:#d1d1d1;}.cls-2{fill:#6d6d6d;}.cls-3{fill:#8e8e8e;}.cls-4{fill:#00aeb7;}.cls-5{fill:#0089a0;}.cls-6{fill:#fff;}</style></defs><title>dock_icon_08</title><rect class="cls-1" x="6" y="13" width="38" height="27"/><rect class="cls-2" x="16" y="21" width="23" height="1"/><rect class="cls-2" x="16" y="23" width="23" height="1"/><rect class="cls-2" x="16" y="19" width="23" height="1"/><rect class="cls-3" x="9" y="16" width="5" height="5"/><rect class="cls-4" x="16" y="16" width="10" height="2"/><rect class="cls-5" x="42" y="13" width="2" height="27"/><rect class="cls-2" x="16" y="31" width="16" height="1"/><rect class="cls-2" x="16" y="33" width="14" height="1"/><rect class="cls-2" x="16" y="29" width="18" height="1"/><rect class="cls-3" x="9" y="26" width="5" height="5"/><polygon class="cls-2" points="38.66 31.82 28.8 41.68 26.82 39.7 36.68 29.84 40.5 28 38.66 31.82"/><rect class="cls-4" x="16" y="26" width="10" height="2"/><rect class="cls-6" x="11" y="17" width="1" height="3"/><rect class="cls-6" x="10" y="19" width="3" height="1"/><rect class="cls-6" x="11" y="27" width="1" height="3"/><rect class="cls-6" x="10" y="29" width="3" height="1"/></svg>