<svg id="Layer_1" data-name="Layer 1" xmlns="http://www.w3.org/2000/svg" viewBox="0 0 50 50"><defs><style>.cls-1{fill:#fff;}.cls-2{fill:#c60021;}</style></defs><title>dock_icon_02</title><path class="cls-1" d="M25.28,8.56A16.72,16.72,0,1,0,42,25.28,16.72,16.72,0,0,0,25.28,8.56Z"/><polygon class="cls-2" points="38.66 32.7 36.98 32.7 36.98 31.03 28.63 27.68 26.95 27.68 26.95 31.03 25.28 31.03 21.94 31.03 21.94 29.36 25.28 29.36 25.28 27.68 21.94 27.68 20.27 37.72 13.58 37.72 16.92 27.68 15.25 27.68 15.25 19.32 28.63 19.32 36.98 16.19 36.98 14.31 38.66 14.31 38.66 32.7"/></svg>