<svg id="Layer_1" data-name="Layer 1" xmlns="http://www.w3.org/2000/svg" viewBox="0 0 50 50"><defs><style>.cls-1{fill:#6d6d6d;}</style></defs><title>dock_icon_13</title><path class="cls-1" d="M16,19.56a10,10,0,1,0,10,10A10,10,0,0,0,16,19.56ZM24,34H23V33l-5-2H17v2H14V32h2V31H14l-1,6H9l2-6H10V26h8l5-1.87V23h1Z"/><polygon class="cls-1" points="29.88 32.78 26 29 30 29 29.88 32.78"/><polygon class="cls-1" points="29.88 24.22 26 28 30 28 29.88 24.22"/><path class="cls-1" d="M29,29V40H43V29Zm2,2h6v2H31Zm10,7H31V37H41Zm0-2H31V35H41Zm0-3H38V31h3Z"/><path class="cls-1" d="M29,13V28H43V13ZM41,26H31V25H41Zm0-2H31V23H41Zm0-2H31V21H41Zm0-5.67V17H31V15H41ZM41,20H31V19H41Z"/></svg>