<svg id="Layer_1" data-name="Layer 1" xmlns="http://www.w3.org/2000/svg" viewBox="0 0 50 50"><defs><style>.cls-1{fill:#6d6d6d;}.cls-2{fill:#00aeb7;}.cls-3{fill:#d1d1d1;}.cls-4{fill:#0089a0;}.cls-5{fill:#8e8e8e;}.cls-6{fill:#fff;}</style></defs><title>dock_icon_08</title><rect class="cls-1" x="7" y="24" width="22" height="13"/><circle class="cls-2" cx="18.25" cy="24.13" r="11.13"/><rect class="cls-3" x="29" y="23" width="14" height="17" transform="translate(72 63) rotate(-180)"/><polyline class="cls-3" points="29.82 28.67 24 23 30 23"/><rect class="cls-4" x="31" y="25" width="6" height="2"/><rect class="cls-5" x="31" y="29" width="10" height="1"/><rect class="cls-5" x="31" y="31" width="10" height="1"/><rect class="cls-5" x="31" y="33" width="10" height="1"/><rect class="cls-3" x="29" y="11" width="14" height="11" transform="translate(72 33) rotate(180)"/><polyline class="cls-3" points="29.82 16.33 24 22 30 22"/><polygon class="cls-6" points="24 28 26 28 26 17 24 17 24 27 24 28"/><polygon class="cls-6" points="19 25 19 20 24 18.13 24 27 19 25"/><polygon class="cls-6" points="11 20 11 25 12 25 10 31 14 31 15 25 19 25 19 20 11 20"/><rect class="cls-5" x="31" y="35" width="10" height="1"/><rect class="cls-5" x="31" y="37" width="10" height="1"/><rect class="cls-4" x="31" y="13" width="10" height="2"/><rect class="cls-5" x="31" y="17" width="10" height="1"/><rect class="cls-5" x="31" y="19" width="10" height="1"/><rect class="cls-5" x="7" y="38" width="21" height="2"/><rect class="cls-1" x="25" y="17" width="1" height="11"/><rect class="cls-4" x="38" y="25" width="3" height="2"/><rect class="cls-6" x="17" y="25" width="1" height="2"/><rect class="cls-6" x="15" y="26" width="2" height="1"/></svg>