<svg id="Layer_1" data-name="Layer 1" xmlns="http://www.w3.org/2000/svg" viewBox="0 0 17 17"><defs><style>.cls-1{fill:#7E7E7E;}</style></defs><title>Artboard 1</title><path class="cls-1" d="M11.74.08A5,5,0,0,0,10.94,0,4.94,4.94,0,0,0,8.51.66c.79.84,1.87,1.94,2.62,2.74l1.11-1c.23,1.41.21,3,.44,4.4C11.3,6.46,9.55,6.36,8.16,6c.29-.27.94-.75,1.23-1-.74-.8-1.83-1.9-2.63-2.75A5,5,0,0,0,5.95,5,5,5,0,0,0,6,5.79,5,5,0,1,0,11.74.08Z"/><path class="cls-1" d="M13.41,15.15l-10.2,0C2.52,15.14,2,14.75,2,14a.84.84,0,0,1,.86-.91H13.55c.33,0,.44-.17.44-.49s0-1.17,0-1.83A6.53,6.53,0,0,1,4.49,6a6.52,6.52,0,0,1-.11-1A6.53,6.53,0,0,1,6.54.15H2.73l-.4.11A1.92,1.92,0,0,0,1,2.06c0,3.71,0,8.41,0,12.12a1.93,1.93,0,0,0,1.68,1.95l.08,0H13.69a.49.49,0,0,0,.31-.53C14,15.29,13.86,15.18,13.41,15.15Z"/></svg>