<svg id="Layer_1" data-name="Layer 1" xmlns="http://www.w3.org/2000/svg" viewBox="0 0 24 24" width="24" height="24"><defs><style>.cls-1{fill:#38bc49;}.cls-2{fill:#30a03e;}.cls-3{fill:#2d913b;}.cls-4{fill:#fff;}</style></defs><title>br_complete</title><rect class="cls-1" width="24" height="24"/><polygon class="cls-2" points="6.28 3.89 0 10.09 0 24 13.66 24 18.19 19.54 14.12 14.53 9.94 9.38 6.28 3.89"/><polygon class="cls-3" points="13.04 4.89 0.02 17.74 0 24 7.46 24 18.5 13.39 18.46 6.31 13.04 4.89"/><polygon class="cls-2" points="18.5 18.88 7.96 18.88 6.13 18.19 7.96 3.54 15.17 3.54 18.5 8.48 18.5 18.88"/><path class="cls-4" d="M16.24,3.46a5,5,0,1,0,4.2,4.92A5,5,0,0,0,16.24,3.46Z"/><path class="cls-2" d="M12.66,9.42c.29-.27.94-.75,1.23-1-.81-.86-2-2.1-2.83-3L12.8,3.81c.8.86,2,2.1,2.83,3l1.11-1c.23,1.41.21,3,.44,4.4C15.8,9.84,14,9.74,12.66,9.42Z"/><path class="cls-4" d="M17.91,18.54l-10.2,0c-.7,0-1.25-.39-1.19-1.09a.84.84,0,0,1,.86-.91H18.05c.33,0,.44-.17.44-.49s0-1.17,0-1.83A6.53,6.53,0,0,1,9,9.42a6.52,6.52,0,0,1-.11-1A6.53,6.53,0,0,1,11,3.54H7.23l-.4.11A1.92,1.92,0,0,0,5.5,5.45c0,3.71,0,8.41,0,12.12a1.93,1.93,0,0,0,1.68,1.95l.08,0H18.19A.49.49,0,0,0,18.5,19C18.5,18.67,18.36,18.57,17.91,18.54Z"/></svg>