<svg id="Layer_1" data-name="Layer 1" xmlns="http://www.w3.org/2000/svg" viewBox="0 0 50 50"><defs><style>.cls-1{fill:#797979;}</style></defs><title>dock_icon_09</title><rect class="cls-1" x="6" y="14" width="1" height="26"/><path class="cls-1" d="M9,16v6h8V16Zm3,5H10V17h4Z"/><path class="cls-1" d="M9,24v6h8V24Zm3,5H10V25h4Z"/><path class="cls-1" d="M9,32v6h8V32Zm3,5H10V33h4Z"/><path class="cls-1" d="M19,14V40H44V14ZM42,38H21V32H42Zm0-8H21V24H42Zm0-8H21V16H42Z"/><rect class="cls-1" x="22" y="25" width="7" height="4"/><rect class="cls-1" x="22" y="33" width="15" height="4"/><rect class="cls-1" x="22" y="17" width="19" height="4"/></svg>