<svg id="Layer_1" data-name="Layer 1" xmlns="http://www.w3.org/2000/svg" viewBox="0 0 50 50"><defs><style>.cls-1{fill:#fff;}.cls-2{fill:#c60021;}</style></defs><title>dock_icon_02</title><rect class="cls-1" x="8" y="10" width="34" height="31"/><polygon class="cls-2" points="13 29 10 29 10 22 17 22 13 29"/><rect class="cls-2" x="22" y="24" width="16" height="3"/><polygon class="cls-2" points="13 38 10 38 10 31 17 31 13 38"/><polygon class="cls-2" points="13 20 10 20 10 13 17 13 13 20"/><rect class="cls-2" x="20" y="22" width="20" height="7"/><rect class="cls-1" x="22" y="24" width="16" height="3"/><rect class="cls-2" x="20" y="13" width="20" height="7"/><rect class="cls-1" x="22" y="15" width="11" height="3"/><rect class="cls-2" x="20" y="31" width="20" height="7"/><rect class="cls-1" x="22" y="33" width="5" height="3"/></svg>