<svg id="Layer_1" data-name="Layer 1" xmlns="http://www.w3.org/2000/svg" viewBox="0 0 50 50"><defs><style>.cls-1{fill:#d1d1d1;}.cls-2{fill:#fff;}.cls-3{fill:#8e8e8e;}.cls-4{fill:#c60021;}.cls-5{fill:#d8414c;}.cls-6{fill:#6d6d6d;}</style></defs><title>dock_icon_01</title><polygon class="cls-1" points="17 12 6 12 6 40 17 40 44 40 44 12 17 12"/><rect class="cls-2" x="19" y="15" width="22" height="4"/><rect class="cls-3" x="20" y="16" width="20" height="2"/><rect class="cls-4" x="20" y="16" width="18" height="2"/><rect class="cls-2" x="19" y="21" width="22" height="4"/><rect class="cls-3" x="20" y="22" width="20" height="2"/><rect class="cls-4" x="20" y="22" width="20" height="2"/><rect class="cls-2" x="19" y="27" width="22" height="4"/><rect class="cls-3" x="20" y="28" width="20" height="2"/><rect class="cls-4" x="20" y="28" width="11" height="2"/><rect class="cls-2" x="19" y="33" width="22" height="4"/><rect class="cls-3" x="20" y="34" width="20" height="2"/><rect class="cls-4" x="20" y="34" width="2" height="2"/><rect class="cls-5" x="6" y="12" width="2" height="28"/><rect class="cls-4" x="6" y="26" width="2" height="14"/><rect class="cls-6" x="11" y="15" width="6" height="4"/><polygon class="cls-2" points="15 15 13 19 17 19 17 15 15 15"/><rect class="cls-6" x="11" y="21" width="6" height="4"/><polygon class="cls-2" points="15 21 13 25 17 25 17 21 15 21"/><rect class="cls-6" x="11" y="27" width="6" height="4"/><polygon class="cls-2" points="15 27 13 31 17 31 17 27 15 27"/><rect class="cls-6" x="11" y="33" width="6" height="4"/><polygon class="cls-2" points="15 33 13 37 17 37 17 33 15 33"/></svg>