<svg id="Layer_1" data-name="Layer 1" xmlns="http://www.w3.org/2000/svg" viewBox="0 0 50 50"><defs><style>.cls-1{fill:#fff;}</style></defs><title>dock_icon_04</title><path class="cls-1" d="M41.79,23.18c0-.18-.11-.22-.26-.24l-4.46-.42a.23.23,0,0,1-.23-.19,11.6,11.6,0,0,0-1-2.4.26.26,0,0,1,0-.35l2.85-3.43a.24.24,0,0,0,0-.35A17.51,17.51,0,0,0,34.92,12a.22.22,0,0,0-.32,0l-3.45,2.86a.25.25,0,0,1-.33,0,11.78,11.78,0,0,0-2.3-1c-.29-.09-.29-.09-.32-.39v0c-.14-1.45-.28-2.89-.4-4.34,0-.18-.09-.23-.25-.25-.64-.09-1.29-.16-1.94-.19a17.18,17.18,0,0,0-3.45.2c-.13,0-.19.07-.2.2-.14,1.5-.28,3-.42,4.5a.25.25,0,0,1-.21.26,11.83,11.83,0,0,0-2.33.95c-.29.15-.22.16-.46,0L15.15,12a.24.24,0,0,0-.35,0,18.74,18.74,0,0,0-1.72,1.43A17.54,17.54,0,0,0,11,15.83c-.08.12-.09.19,0,.29a3.36,3.36,0,0,1,.22.26l2.67,3.22a.22.22,0,0,1,0,.29,11.55,11.55,0,0,0-1,2.43.24.24,0,0,1-.25.2c-.34,0-.69.06-1,.1l-3.43.32C8,23,8,23,7.94,23.19a17.27,17.27,0,0,0,0,5.37c0,.14.07.21.22.22l4.48.41a.25.25,0,0,1,.26.21,11.31,11.31,0,0,0,1,2.4.25.25,0,0,1,0,.33L11,35.61a.2.2,0,0,0,0,.29,17.59,17.59,0,0,0,3.79,3.81.26.26,0,0,0,.39,0l3.44-2.85a.28.28,0,0,1,.17-.1l.1,0a12,12,0,0,0,2.49,1,.2.2,0,0,1,.16.21c.14,1.5.28,3,.42,4.5,0,.16.08.22.24.25a17.77,17.77,0,0,0,3.3.2,18.3,18.3,0,0,0,2.11-.2c.13,0,.19-.07.19-.21s0-.43.06-.65c.12-1.28.25-2.56.36-3.84a.26.26,0,0,1,.23-.27,11.33,11.33,0,0,0,2.37-1,.27.27,0,0,1,.36,0l3.44,2.85a.23.23,0,0,0,.34,0,17.62,17.62,0,0,0,3.81-3.82.22.22,0,0,0,0-.32l-2.87-3.46a.23.23,0,0,1,0-.3,11.69,11.69,0,0,0,1-2.43.23.23,0,0,1,.24-.19l4.49-.42a.2.2,0,0,0,.22-.21A17.24,17.24,0,0,0,41.79,23.18ZM24.85,32.39a6.52,6.52,0,1,1,6.54-6.51A6.52,6.52,0,0,1,24.85,32.39Z"/></svg>