<svg id="Layer_1" data-name="Layer 1" xmlns="http://www.w3.org/2000/svg" viewBox="0 0 50 50"><defs><style>.cls-1{fill:#007ac5;}.cls-2{fill:#fff;}</style></defs><title>dock_icon_12</title><path class="cls-1" d="M32.25,12H9V39H32.25C37.08,39,41,34.42,41,29.92V21.08c0-4.5-3.92-9.08-8.75-9.08Z"/><rect class="cls-2" x="10" y="13" width="16" height="25"/><rect class="cls-1" x="13" y="16" width="3" height="19"/><rect class="cls-1" x="20" y="16" width="3" height="19"/><circle class="cls-2" cx="33.5" cy="20.5" r="4.5"/><circle class="cls-2" cx="33.5" cy="30.5" r="4.5" transform="translate(-11.79 29.23) rotate(-40.7)"/><circle class="cls-1" cx="33.5" cy="20.5" r="3.5"/><circle class="cls-1" cx="33.5" cy="30.5" r="3.5" transform="translate(-11.79 29.23) rotate(-40.7)"/><rect class="cls-1" x="33" y="20" width="5" height="1"/><rect class="cls-1" x="32.34" y="28.66" width="5.21" height="1.2" transform="translate(-10.63 29.86) rotate(-40.7)"/><rect class="cls-2" x="14" y="17" width="1" height="17"/><rect class="cls-1" x="12" y="28" width="5" height="2"/><rect class="cls-2" x="21" y="17" width="1" height="17"/><rect class="cls-1" x="19" y="21" width="5" height="2"/></svg>