<svg id="Layer_1" data-name="Layer 1" xmlns="http://www.w3.org/2000/svg" viewBox="0 0 50 50"><defs><style>.cls-1{fill:#fff;}.cls-2{fill:#c60021;}</style></defs><title>dock_icon_02</title><path class="cls-1" d="M18.78,36.76a.28.28,0,0,0-.17.1L15.17,39.7a.26.26,0,0,1-.39,0A17.59,17.59,0,0,1,11,35.9a.2.2,0,0,1,0-.29l2.87-3.46a.25.25,0,0,0,0-.33,11.31,11.31,0,0,1-1-2.4.25.25,0,0,0-.26-.21l-4.48-.41c-.15,0-.2-.08-.22-.22a17.27,17.27,0,0,1,0-5.37c0-.16.08-.24.25-.25l3.43-.32c.34,0,.69-.07,1-.1a.24.24,0,0,0,.25-.2,11.55,11.55,0,0,1,1-2.43.22.22,0,0,0,0-.29l-2.67-3.22a3.35,3.35,0,0,0-.22-.26c-.1-.1-.1-.18,0-.29a17.54,17.54,0,0,1,2.1-2.39A18.75,18.75,0,0,1,14.8,12a.24.24,0,0,1,.35,0l3.39,2.8c.24.2.17.19.46,0a11.83,11.83,0,0,1,2.33-.95.25.25,0,0,0,.21-.26c.14-1.5.28-3,.42-4.5,0-.14.07-.18.2-.2a17.19,17.19,0,0,1,3.45-.2c.65,0,1.29.1,1.94.19.16,0,.23.07.25.25.13,1.45.27,2.89.4,4.34v0c0,.3,0,.3.32.39a11.78,11.78,0,0,1,2.3,1,.25.25,0,0,0,.33,0L34.59,12a.22.22,0,0,1,.32,0,17.51,17.51,0,0,1,3.82,3.81.24.24,0,0,1,0,.35l-2.85,3.43a.26.26,0,0,0,0,.35,11.6,11.6,0,0,1,1,2.4.23.23,0,0,0,.23.19l4.46.42c.16,0,.24.06.26.24a17.24,17.24,0,0,1,0,5.41.2.2,0,0,1-.22.21l-4.49.42a.23.23,0,0,0-.24.19,11.69,11.69,0,0,1-1,2.43.23.23,0,0,0,0,.3l2.87,3.46a.22.22,0,0,1,0,.32,17.61,17.61,0,0,1-3.81,3.82.23.23,0,0,1-.34,0l-3.44-2.85a.27.27,0,0,0-.36,0,11.33,11.33,0,0,1-2.37,1,.26.26,0,0,0-.23.27c-.11,1.28-.24,2.56-.36,3.84,0,.22-.05.43-.06.65s-.06.19-.19.21a18.3,18.3,0,0,1-2.11.2,17.77,17.77,0,0,1-3.3-.2c-.16,0-.22-.08-.24-.25-.13-1.5-.28-3-.42-4.5a.2.2,0,0,0-.16-.21,12,12,0,0,1-2.49-1Zm-.43-10.9a6.52,6.52,0,1,0,6.53-6.52A6.52,6.52,0,0,0,18.35,25.86Z"/><path class="cls-2" d="M18.35,25.86a6.52,6.52,0,1,0,6.53-6.52A6.52,6.52,0,0,0,18.35,25.86Z"/></svg>