<svg id="Layer_1" data-name="Layer 1" xmlns="http://www.w3.org/2000/svg" viewBox="0 0 50 50"><defs><style>.cls-1{fill:#a6a6a6;}</style></defs><title>dock_icon_17</title><path class="cls-1" d="M34.88,24c0-.1-.06-.12-.15-.13l-2.47-.23a.13.13,0,0,1-.13-.11,6.43,6.43,0,0,0-.55-1.33.15.15,0,0,1,0-.19l1.58-1.9a.13.13,0,0,0,0-.19,9.71,9.71,0,0,0-2.12-2.11.12.12,0,0,0-.18,0L29,19.4a.14.14,0,0,1-.18,0,6.53,6.53,0,0,0-1.28-.53c-.16,0-.16,0-.18-.22h0c-.08-.8-.15-1.6-.22-2.41,0-.1-.05-.13-.14-.14-.36-.05-.71-.09-1.07-.11a9.53,9.53,0,0,0-1.91.11c-.07,0-.1,0-.11.11-.08.83-.16,1.66-.23,2.49a.14.14,0,0,1-.12.15,6.56,6.56,0,0,0-1.29.52c-.16.09-.12.09-.25,0l-1.88-1.55a.13.13,0,0,0-.2,0,10.39,10.39,0,0,0-1,.79,9.72,9.72,0,0,0-1.17,1.33c0,.06,0,.11,0,.16l.12.15L19.42,22a.12.12,0,0,1,0,.16,6.4,6.4,0,0,0-.56,1.35.13.13,0,0,1-.14.11l-.57.05-1.9.18c-.1,0-.12,0-.14.14a9.57,9.57,0,0,0,0,3c0,.08,0,.12.12.12l2.48.23a.14.14,0,0,1,.15.12,6.27,6.27,0,0,0,.55,1.33.14.14,0,0,1,0,.18L17.82,30.9a.11.11,0,0,0,0,.16,9.75,9.75,0,0,0,2.1,2.11.15.15,0,0,0,.22,0L22,31.59a.16.16,0,0,1,.09-.05l.06,0a6.67,6.67,0,0,0,1.38.57.11.11,0,0,1,.09.12c.08.83.16,1.66.23,2.49,0,.09,0,.12.13.14a9.85,9.85,0,0,0,1.83.11A10.16,10.16,0,0,0,27,34.88c.07,0,.1,0,.11-.11s0-.24,0-.36c.07-.71.14-1.42.2-2.13a.15.15,0,0,1,.12-.15,6.28,6.28,0,0,0,1.31-.54.15.15,0,0,1,.2,0l1.9,1.58a.13.13,0,0,0,.19,0,9.77,9.77,0,0,0,2.11-2.12.12.12,0,0,0,0-.18L31.6,29a.13.13,0,0,1,0-.17,6.48,6.48,0,0,0,.56-1.35.13.13,0,0,1,.13-.11l2.49-.23a.11.11,0,0,0,.12-.11A9.56,9.56,0,0,0,34.88,24Zm-9.39,5.11a3.62,3.62,0,1,1,3.63-3.61A3.61,3.61,0,0,1,25.49,29.12Z"/></svg>