<svg id="Layer_1" data-name="Layer 1" xmlns="http://www.w3.org/2000/svg" viewBox="0 0 50 50"><defs><style>.cls-1{fill:#a6a6a6;}</style></defs><title>dock_icon_11</title><path class="cls-1" d="M9,12V39H41V12ZM26,38H10V13H26Zm10.43-3.09a4.5,4.5,0,1,1,.48-6.35A4.5,4.5,0,0,1,36.43,34.91ZM33.5,24A4.5,4.5,0,1,1,38,19.5,4.5,4.5,0,0,1,33.5,24Z"/><circle class="cls-1" cx="33.5" cy="19.5" r="2.5"/><circle class="cls-1" cx="33.5" cy="31.5" r="2.5" transform="translate(-12.44 29.47) rotate(-40.7)"/><rect class="cls-1" x="33" y="19" width="5" height="1"/><rect class="cls-1" x="32.34" y="29.66" width="5.21" height="1.2" transform="translate(-11.28 30.11) rotate(-40.7)"/><path class="cls-1" d="M13,15V36h3V15Zm2,19H14V17h1Z"/><rect class="cls-1" x="12" y="28" width="5" height="3"/><path class="cls-1" d="M20,15V36h3V15Zm2,19H21V17h1Z"/><rect class="cls-1" x="19" y="20" width="5" height="3"/></svg>