<svg id="Layer_1" data-name="Layer 1" xmlns="http://www.w3.org/2000/svg" viewBox="0 0 50 50"><defs><style>.cls-1{fill:#d1d1d1;}.cls-2{fill:#8e8e8e;}.cls-3{fill:#495257;}.cls-4{fill:#6d6d6d;}.cls-5{fill:#fff;}.cls-6{fill:#556365;}</style></defs><title>dock_icon_14</title><rect class="cls-1" x="6" y="12" width="38" height="27"/><rect class="cls-1" x="6" y="26" width="38" height="13"/><rect class="cls-2" x="11" y="18" width="2" height="19"/><rect class="cls-2" x="17" y="18" width="2" height="19"/><rect class="cls-2" x="23" y="18" width="2" height="19"/><rect class="cls-3" x="21" y="23" width="6" height="2"/><rect class="cls-3" x="15" y="30" width="6" height="2"/><rect class="cls-3" x="9" y="20" width="6" height="2"/><circle class="cls-4" cx="33.5" cy="19.5" r="4.5"/><rect class="cls-5" x="36" y="19" width="2" height="1"/><circle class="cls-4" cx="33.5" cy="32.5" r="4.5" transform="translate(-13.09 29.71) rotate(-40.7)"/><rect class="cls-5" x="35.15" y="29.72" width="2" height="1" transform="translate(-10.96 30.89) rotate(-40.7)"/><rect class="cls-4" x="39" y="19" width="2" height="1"/><rect class="cls-6" x="39" y="17" width="2" height="1"/><rect class="cls-6" x="39" y="15" width="2" height="1"/><rect class="cls-4" x="39" y="21" width="2" height="1"/><rect class="cls-4" x="39" y="23" width="2" height="1"/><rect class="cls-4" x="39" y="32" width="2" height="1"/><rect class="cls-6" x="39" y="30" width="2" height="1"/><rect class="cls-6" x="39" y="28" width="2" height="1"/><rect class="cls-4" x="39" y="34" width="2" height="1"/><rect class="cls-4" x="39" y="36" width="2" height="1"/><circle class="cls-2" cx="33.5" cy="19.5" r="2.5"/><circle class="cls-2" cx="33.5" cy="32.5" r="2.5" transform="translate(-13.09 29.71) rotate(-40.7)"/><rect class="cls-6" x="6" y="39" width="38" height="2"/><rect class="cls-3" x="6" y="39" width="19" height="2"/><rect class="cls-5" x="11" y="14" width="2" height="2"/><rect class="cls-5" x="17" y="14" width="2" height="2"/><rect class="cls-5" x="23" y="14" width="2" height="2"/></svg>