<svg id="Layer_1" data-name="Layer 1" xmlns="http://www.w3.org/2000/svg" viewBox="0 0 50 50"><defs><style>.cls-1{fill:#fff;}</style></defs><title>dock_icon_10</title><path class="cls-1" d="M40,15V35H9V15H40m1-1H8V36H41V14Z"/><path class="cls-1" d="M9,17V29H21V17ZM20,28H10v-.42a1.59,1.59,0,0,1,.08-.24.82.82,0,0,1,.45-.37c.06,0,2.16-1.16,2.34-1.24a.05.05,0,0,0,0,0,2,2,0,0,1,.12-.6l.06-.16,0,0,.25-.09a.19.19,0,0,0,.14-.18c0-.19,0-.38,0-.57a.74.74,0,0,0,0-.17.65.65,0,0,0-.06-.14c-.07-.15-.15-.3-.21-.45s-.11-.35-.16-.52,0-.1,0-.15-.17-.08-.21-.16a3.84,3.84,0,0,1-.2-.65,1.86,1.86,0,0,1-.06-.43s0-.07,0-.1.06-.15.17-.14,0-.11,0-.16l-.06-.62c0-.2,0-.4-.06-.61a1,1,0,0,1,.13-.53.83.83,0,0,1,.25-.28.39.39,0,0,0,.13-.2,1,1,0,0,1,.22-.38.92.92,0,0,1,.33-.22l.51-.16-.18-.11h0l.21.06.22,0a.57.57,0,0,1-.26-.3,1,1,0,0,0,.57.17l.54,0a2.15,2.15,0,0,1,1,.3,2.19,2.19,0,0,1,.47.38.36.36,0,0,1,.1.22.08.08,0,0,0,.06.08.4.4,0,0,1,.26.25,1.46,1.46,0,0,1,.12.76c0,.14,0,.27,0,.41l-.08.83s0,0,0,.08.16,0,.17.15a1.44,1.44,0,0,1,0,.47c-.05.2-.11.4-.17.59a1,1,0,0,1-.08.18.15.15,0,0,1-.17.1l-.06.25a3.89,3.89,0,0,1-.31.81l-.08.15a.24.24,0,0,0,0,.1c0,.25,0,.5,0,.74,0,.08.07.12.13.14l.26.1a.09.09,0,0,1,0,0,2.16,2.16,0,0,1,.19.75.06.06,0,0,0,0,.06c.16.07,2.3,1.22,2.4,1.27a.78.78,0,0,1,.37.33,1.79,1.79,0,0,1,.08.23Z"/><rect class="cls-1" x="24" y="22" width="13" height="1"/><rect class="cls-1" x="24" y="24" width="13" height="1"/><rect class="cls-1" x="24" y="26" width="13" height="1"/><rect class="cls-1" x="8" y="31" width="33" height="5"/><rect class="cls-1" x="24" y="18" width="9" height="2"/></svg>