<svg id="Layer_1" data-name="Layer 1" xmlns="http://www.w3.org/2000/svg" viewBox="0 0 50 50"><defs><style>.cls-1{fill:#d1d1d1;}.cls-2{fill:#00aeb7;}.cls-3{fill:#0089a0;}.cls-4{fill:#fff;}.cls-5{fill:#6d6d6d;}.cls-6{fill:#8e8e8e;}</style></defs><title>dock_icon_08</title><polygon class="cls-1" points="17 13 6 13 6 41 17 41 44 41 44 13 17 13"/><rect class="cls-2" x="6" y="13" width="2" height="14"/><rect class="cls-3" x="6" y="27" width="2" height="14"/><rect class="cls-2" x="11" y="16" width="16" height="16"/><rect class="cls-4" x="13" y="18" width="12" height="12"/><path class="cls-5" d="M23.54,28c-.1,0-2.24-1.2-2.4-1.27a.06.06,0,0,1,0-.06,2.16,2.16,0,0,0-.19-.75.09.09,0,0,0,0,0l-.26-.1c-.07,0-.13-.06-.13-.14,0-.25,0-.5,0-.74a.24.24,0,0,1,0-.1l.08-.15a3.89,3.89,0,0,0,.31-.81l.06-.25a.15.15,0,0,0,.17-.1,1,1,0,0,0,.08-.18c.06-.2.12-.39.17-.59a1.44,1.44,0,0,0,0-.47c0-.12,0-.15-.17-.15s0-.05,0-.08l.08-.83c0-.14,0-.27,0-.41a1.46,1.46,0,0,0-.12-.76.4.4,0,0,0-.26-.25.08.08,0,0,1-.06-.08.36.36,0,0,0-.1-.22,2.19,2.19,0,0,0-.47-.38,2.15,2.15,0,0,0-1-.3l-.54,0a1,1,0,0,1-.57-.17.58.58,0,0,0,.26.3l-.22,0-.21-.06h0l.18.11-.51.16a.92.92,0,0,0-.33.22,1,1,0,0,0-.22.38.39.39,0,0,1-.13.2.83.83,0,0,0-.25.28,1,1,0,0,0-.13.53c0,.2,0,.4.06.61l.06.62c0,.05,0,.11,0,.16s-.17,0-.17.14,0,.07,0,.1a1.86,1.86,0,0,0,.06.43,3.84,3.84,0,0,0,.2.65c0,.09.08.18.21.16s0,.1,0,.15.1.35.16.52.14.3.21.45a.66.66,0,0,1,.06.14.75.75,0,0,1,0,.17c0,.19,0,.38,0,.57a.19.19,0,0,1-.14.18l-.25.09,0,0-.06.16a2,2,0,0,0-.12.6.05.05,0,0,1,0,0c-.18.08-2.28,1.22-2.34,1.24a.82.82,0,0,0-.45.37,1.59,1.59,0,0,0-.08.24V29H24v-.43a1.8,1.8,0,0,0-.08-.23A.78.78,0,0,0,23.54,28Z"/><rect class="cls-5" x="29" y="19" width="12" height="2"/><rect class="cls-5" x="29" y="23" width="12" height="2"/><rect class="cls-5" x="29" y="27" width="12" height="2"/><rect class="cls-6" x="11" y="35" width="30" height="1"/><rect class="cls-6" x="11" y="37" width="30" height="1"/></svg>