<svg id="Layer_1" data-name="Layer 1" xmlns="http://www.w3.org/2000/svg" viewBox="0 0 50 50"><defs><style>.cls-1{fill:#646c70;}</style></defs><title>dock_icon_16</title><path class="cls-1" d="M25,16a9,9,0,1,0,9,9A9,9,0,0,0,25,16Zm5.19,14.15H19.71v-.44a1.67,1.67,0,0,1,.09-.25.86.86,0,0,1,.47-.38c.06,0,2.27-1.22,2.46-1.3a.05.05,0,0,0,0-.05,2.14,2.14,0,0,1,.13-.63l.07-.17,0,0,.26-.1a.2.2,0,0,0,.14-.19c0-.2,0-.4,0-.6a.79.79,0,0,0,0-.18.69.69,0,0,0-.06-.15c-.07-.16-.15-.31-.22-.47s-.12-.36-.17-.55,0-.1,0-.16-.18-.08-.22-.17a4,4,0,0,1-.21-.69,2,2,0,0,1-.07-.45s0-.07,0-.1.06-.16.18-.15,0-.11,0-.17l-.06-.65c0-.21,0-.42-.06-.64a1,1,0,0,1,.14-.55.86.86,0,0,1,.26-.29.41.41,0,0,0,.13-.21,1.05,1.05,0,0,1,.23-.4,1,1,0,0,1,.35-.23l.54-.17L24,19.49h0l.22.06.23,0a.6.6,0,0,1-.27-.32,1,1,0,0,0,.6.17l.57,0a2.25,2.25,0,0,1,1,.32,2.3,2.3,0,0,1,.49.39.38.38,0,0,1,.1.23.09.09,0,0,0,.07.09.42.42,0,0,1,.27.27,1.53,1.53,0,0,1,.12.8c0,.14,0,.28,0,.43l-.08.87s0,.05,0,.08.17,0,.18.16a1.51,1.51,0,0,1,0,.49c-.05.21-.11.42-.17.62a1.06,1.06,0,0,1-.08.19.16.16,0,0,1-.18.11l-.07.27a4.08,4.08,0,0,1-.32.85l-.08.15a.25.25,0,0,0,0,.1c0,.26,0,.52,0,.78,0,.08.07.12.14.15l.27.1a.09.09,0,0,1,0,0,2.27,2.27,0,0,1,.19.79.06.06,0,0,0,0,.06c.17.08,2.41,1.28,2.52,1.33a.81.81,0,0,1,.39.35,1.87,1.87,0,0,1,.09.25Z"/></svg>