<svg id="Layer_1" data-name="Layer 1" xmlns="http://www.w3.org/2000/svg" viewBox="0 0 50 50"><defs><style>.cls-1{fill:#fff;}</style></defs><title>dock_icon_04</title><path class="cls-1" d="M25,8A17,17,0,1,0,42,25,17,17,0,0,0,25,8Zm9.81,26.73H15V33.9a3.15,3.15,0,0,1,.17-.47,1.63,1.63,0,0,1,.89-.73c.12,0,4.28-2.3,4.64-2.46a.1.1,0,0,0,.07-.1A4,4,0,0,1,21,28.95c0-.11.08-.22.13-.32a.17.17,0,0,1,.08-.08l.5-.19A.37.37,0,0,0,22,28c0-.38,0-.76,0-1.14a1.48,1.48,0,0,0,0-.34,1.3,1.3,0,0,0-.12-.28c-.14-.3-.29-.59-.41-.89s-.22-.69-.32-1c0-.1,0-.2-.07-.3-.25,0-.34-.15-.41-.32a7.61,7.61,0,0,1-.4-1.3,3.7,3.7,0,0,1-.12-.86c0-.07,0-.13,0-.2,0-.22.12-.31.34-.28,0-.11,0-.21,0-.32l-.12-1.23c0-.4-.08-.8-.11-1.2a1.89,1.89,0,0,1,.26-1,1.64,1.64,0,0,1,.49-.56.78.78,0,0,0,.25-.4,2,2,0,0,1,.44-.76,1.82,1.82,0,0,1,.66-.43c.34-.12.7-.22,1-.32L23,14.6v0l.41.12a2.51,2.51,0,0,0,.43.06,1.14,1.14,0,0,1-.51-.6,2,2,0,0,0,1.14.33c.36,0,.72,0,1.07,0a4.26,4.26,0,0,1,2,.6,4.34,4.34,0,0,1,.93.74.72.72,0,0,1,.19.43.16.16,0,0,0,.13.17.79.79,0,0,1,.51.5,2.9,2.9,0,0,1,.24,1.51c0,.27,0,.54-.07.8l-.16,1.64s0,.1,0,.15c.24,0,.32.06.34.29a2.86,2.86,0,0,1-.09.92c-.1.39-.21.79-.33,1.18a2,2,0,0,1-.16.36.3.3,0,0,1-.34.2c0,.17-.08.34-.12.5a7.71,7.71,0,0,1-.61,1.6c-.05.1-.11.19-.15.29a.47.47,0,0,0,0,.19c0,.49,0,1,.06,1.47,0,.16.13.23.26.28l.51.19a.17.17,0,0,1,.08.08,4.28,4.28,0,0,1,.37,1.49.12.12,0,0,0,.08.12c.32.15,4.56,2.42,4.76,2.52a1.54,1.54,0,0,1,.74.66,3.57,3.57,0,0,1,.17.46Z"/></svg>