<svg id="Layer_1" data-name="Layer 1" xmlns="http://www.w3.org/2000/svg" viewBox="0 0 50 50"><defs><style>.cls-1{fill:#fff;}.cls-2{fill:#00aeb7;}</style></defs><title>dock_icon_05</title><circle class="cls-1" cx="25" cy="25" r="17"/><path class="cls-2" d="M33.91,32.76c-.2-.1-4.44-2.37-4.76-2.52a.12.12,0,0,1-.08-.12,4.29,4.29,0,0,0-.37-1.49.17.17,0,0,0-.08-.08l-.51-.19c-.13-.05-.25-.12-.26-.28,0-.49,0-1-.06-1.47a.47.47,0,0,1,0-.19c0-.1.1-.19.15-.29a7.71,7.71,0,0,0,.61-1.6c0-.16.08-.33.12-.5a.3.3,0,0,0,.34-.2,2,2,0,0,0,.16-.36c.12-.39.23-.78.33-1.18a2.86,2.86,0,0,0,.09-.92c0-.23-.1-.3-.34-.29,0-.05,0-.1,0-.15l.16-1.64c0-.27,0-.54.07-.8A2.9,2.9,0,0,0,29.31,17a.79.79,0,0,0-.51-.5.16.16,0,0,1-.13-.17.72.72,0,0,0-.19-.43,4.34,4.34,0,0,0-.93-.74,4.26,4.26,0,0,0-2-.6c-.36,0-.72,0-1.07,0a2,2,0,0,1-1.13-.33,1.14,1.14,0,0,0,.51.6,2.5,2.5,0,0,1-.43-.06L23,14.58v0l.36.22c-.32.1-.68.2-1,.32a1.82,1.82,0,0,0-.66.43,2,2,0,0,0-.44.76.78.78,0,0,1-.25.4,1.63,1.63,0,0,0-.49.56,1.89,1.89,0,0,0-.26,1c0,.4.07.8.11,1.2l.12,1.23c0,.1,0,.21,0,.32-.23,0-.33.05-.34.28,0,.06,0,.13,0,.2a3.69,3.69,0,0,0,.12.86,7.6,7.6,0,0,0,.4,1.3c.07.17.16.35.41.32,0,.1,0,.2.07.3.1.35.2.7.32,1s.27.6.41.89a1.3,1.3,0,0,1,.12.28,1.48,1.48,0,0,1,0,.34c0,.38,0,.76,0,1.14a.37.37,0,0,1-.27.36l-.5.19a.17.17,0,0,0-.08.08c0,.1-.09.21-.13.32a4,4,0,0,0-.25,1.19.1.1,0,0,1-.07.1c-.35.16-4.52,2.41-4.64,2.46a1.63,1.63,0,0,0-.89.73,3.15,3.15,0,0,0-.17.47v.83H34.81v-.85a3.57,3.57,0,0,0-.17-.46A1.54,1.54,0,0,0,33.91,32.76Z"/></svg>