<svg id="Layer_1" data-name="Layer 1" xmlns="http://www.w3.org/2000/svg" viewBox="0 0 50 50"><defs><style>.cls-1{fill:#007ac5;}.cls-2{fill:#fff;}</style></defs><title>dock_icon_12</title><path class="cls-1" d="M40,21.63V37H15.49l4.13-3.94,1.68,1.65,1,1,.61-1.25,2.94-6.05,2,1.8,1,.9.59-1.19L31.8,25l2.47,1.74.73.51.59-.67,4.41-5M41,19l-6.16,6.93-3.42-2.41-2.95,5.93-2.95-2.7L22,34l-2.37-2.33L13,38H41V19Z"/><rect class="cls-1" x="13" y="15" width="10" height="7"/><polygon class="cls-1" points="13 38 18.89 35.19 22.58 36.59 27.74 32.37 30.68 35.89 32.9 28.85 36 32 41 19 41 38 13 38"/><rect class="cls-2" x="15" y="19" width="6" height="1"/><rect class="cls-2" x="15" y="17" width="6" height="1"/><rect class="cls-1" x="13" y="23" width="10" height="7"/><rect class="cls-2" x="15" y="27" width="6" height="1"/><rect class="cls-2" x="15" y="25" width="6" height="1"/><rect class="cls-1" x="24" y="15" width="10" height="7"/><rect class="cls-2" x="26" y="19" width="6" height="1"/><rect class="cls-2" x="26" y="17" width="6" height="1"/></svg>