<svg id="Layer_1" data-name="Layer 1" xmlns="http://www.w3.org/2000/svg" viewBox="0 0 50 50"><defs><style>.cls-1{fill:#a6a6a6;}</style></defs><title>dock_icon_11</title><path class="cls-1" d="M21,16v9H13V16h8m1-1H12V26H22V15Z"/><polygon class="cls-1" points="11.44 38.14 10.7 37.47 15.74 31.91 21.09 33.92 26.8 28.09 29.68 30.73 32.77 25.91 36.02 26.92 40.09 22.18 40.84 22.82 36.35 28.08 33.2 27.09 29.88 32.27 26.84 29.48 21.35 35.08 16.02 33.09 11.44 38.14"/><rect class="cls-1" x="14" y="19" width="6" height="1"/><rect class="cls-1" x="14" y="17" width="6" height="1"/><path class="cls-1" d="M32,16v5H24V16h8m1-1H23v7H33V15Z"/><rect class="cls-1" x="25" y="19" width="6" height="1"/><rect class="cls-1" x="25" y="17" width="6" height="1"/><rect class="cls-1" x="14" y="21" width="6" height="1"/><rect class="cls-1" x="14" y="23" width="6" height="1"/><polygon class="cls-1" points="41 26 36.72 34 33.52 31 29.24 35 25.75 33.17 20.24 37.29 16.41 36 10 38 41 38 41 26"/><polygon class="cls-1" points="11.52 37.74 10.62 37.31 14.54 28.89 20.98 30.9 24.17 24.93 28.6 25.96 32.79 23.02 35.37 22.66 40.05 15.88 40.88 16.45 35.94 23.59 33.17 23.98 28.81 27.04 24.69 26.07 21.47 32.1 15.08 30.11 11.52 37.74"/></svg>