<svg id="Layer_1" data-name="Layer 1" xmlns="http://www.w3.org/2000/svg" viewBox="0 0 50 50"><defs><style>.cls-1{fill:#d1d1d1;}.cls-2{fill:#8e8e8e;}.cls-3{fill:#0089a0;}.cls-4{fill:#6d6d6d;}</style></defs><title>dock_icon_08</title><polygon class="cls-1" points="6 40 15 31 20 32 23 24 27 25 31 18 37 20 44 13 44 40 6 40"/><rect class="cls-1" x="6" y="13" width="12" height="9"/><polygon class="cls-2" points="6 40 14 34 18 36 21 34 25 27 28 31 34 20 37 24 44 13 44 40 6 40"/><polygon class="cls-3" points="6 40 14 36 19 38 26 32 30 37 33 27 39 28 44 13 44 40 6 40"/><rect class="cls-4" x="8" y="19" width="8" height="1"/><rect class="cls-4" x="8" y="17" width="8" height="1"/><rect class="cls-4" x="8" y="15" width="8" height="1"/><rect class="cls-1" x="19" y="13" width="12" height="9"/><rect class="cls-4" x="21" y="19" width="8" height="1"/><rect class="cls-4" x="21" y="17" width="8" height="1"/><rect class="cls-4" x="21" y="15" width="8" height="1"/><rect class="cls-1" x="6" y="23" width="12" height="9"/><rect class="cls-4" x="8" y="29" width="8" height="1"/><rect class="cls-4" x="8" y="27" width="8" height="1"/><rect class="cls-4" x="8" y="25" width="8" height="1"/></svg>