<?xml version="1.0" encoding="utf-8"?>
<!-- Generator: Adobe Illustrator 21.0.0, SVG Export Plug-In . SVG Version: 6.00 Build 0)  -->
<svg version="1.1" id="Layer_1" xmlns="http://www.w3.org/2000/svg" xmlns:xlink="http://www.w3.org/1999/xlink" x="0px" y="0px"
	 viewBox="0 0 16 16" style="enable-background:new 0 0 16 16;" width="16" height="16" xml:space="preserve">
<style type="text/css">
	.st0{fill:#999999;}
</style>
<g>
	<path class="st0" d="M13,3v0.2c-0.1,0-0.2,0-0.3,0.1s-0.1,0.1-0.2,0.2c0,0-0.1,0.3-0.3,0.7L10.3,9h-0.2L8.6,5.2L7,9H6.8l-2-4.8
		C4.6,3.7,4.5,3.4,4.4,3.3C4.3,3.2,4.2,3.2,4,3.2V3h2.3v0.2c0,0-0.2,0-0.2,0.1S5.9,3.4,5.9,3.5c0,0.1,0.1,0.3,0.2,0.7l1.2,2.9
		l0.9-2.3L8,4.2C7.9,3.9,7.7,3.6,7.7,3.5S7.5,3.3,7.4,3.3S7.2,3.2,7,3.2V3h3v0.2c-0.3,0-0.5,0-0.5,0c-0.1,0-0.1,0.1-0.1,0.1
		S9.3,3.5,9.3,3.5c0,0.1,0.1,0.3,0.2,0.6L10.5,7l1-2.6c0.1-0.3,0.2-0.4,0.2-0.5s0-0.2,0-0.3c0-0.1,0-0.2-0.1-0.3s-0.2-0.1-0.1-0.1V3
		H13z"/>
</g>
<path class="st0" d="M15,1v9.6L10.6,15H1V1H15 M16,0H0v16h11l5-5V0L16,0z"/>
<rect x="2" class="st0" width="1" height="16"/>
<rect x="6.5" y="10.5" transform="matrix(-1.836970e-16 1 -1 -1.836970e-16 20.5 6.5)" class="st0" width="1" height="6"/>
<rect x="7.5" y="7.5" transform="matrix(-1.836970e-16 1 -1 -1.836970e-16 19.5 3.5)" class="st0" width="1" height="8"/>
<rect x="8" y="5" transform="matrix(-1.836970e-16 1 -1 -1.836970e-16 18 1)" class="st0" width="1" height="9"/>
</svg>
