<?xml version="1.0" encoding="utf-8"?>
<!-- Generator: Adobe Illustrator 21.0.0, SVG Export Plug-In . SVG Version: 6.00 Build 0)  -->
<svg version="1.1" id="Layer_1" xmlns="http://www.w3.org/2000/svg" xmlns:xlink="http://www.w3.org/1999/xlink" x="0px" y="0px"
	 viewBox="0 0 32 32" style="enable-background:new 0 0 32 32;" width="16" height="16" xml:space="preserve">
<style type="text/css">
	.st0{fill:#999999;}
	.st1{fill:#7A7A7A;}
	.st2{fill:#FFFFFF;}
</style>
<rect y="0" class="st0" width="32" height="32"/>
<polygon class="st1" points="26,26 20,32 0,32 0,16.6 12,6 16,20 "/>
<g>
	<path class="st2" d="M12,20l-6,3.7V26h20v-2.5L20,20c-0.8-0.5-0.7-1.9-0.1-2.5c0,0,2.1-3.5,2.1-5.5c0-4.3-2.7-8-6-8s-6,3.4-6,7.8
		c0,2.2,2.1,5.7,2.1,5.7C12.7,18.3,12.8,19.5,12,20z"/>
</g>
</svg>
