<?xml version="1.0" encoding="utf-8"?>
<!-- Generator: Adobe Illustrator 21.0.0, SVG Export Plug-In . SVG Version: 6.00 Build 0)  -->
<svg version="1.1" id="Layer_1" xmlns="http://www.w3.org/2000/svg" xmlns:xlink="http://www.w3.org/1999/xlink" x="0px" y="0px"
	 viewBox="0 0 32 32" style="enable-background:new 0 0 32 32;" width="16" height="16" xml:space="preserve">
<style type="text/css">
	.st0{fill:#999999;}
	.st1{fill:#7A7A7A;}
	.st2{fill:#FFFFFF;}
</style>
<rect y="0" class="st0" width="32" height="32"/>
<polygon class="st1" points="26,26 20,32 0,32 0,16.6 12,6 19.2,19 "/>
<g>
	<path class="st2" d="M12,20l-6,4v2h6c0,0,7.2-6.7,7.2-7c0-0.5,0.2-1,0.7-1.5c0,0,2.1-3.5,2.1-5.5c0-4.3-2.7-8-6-8s-6,3.4-6,7.8
		c0,2.2,2.1,5.7,2.1,5.7C12.7,18.3,12.8,19.5,12,20z"/>
</g>
<path class="st2" d="M27.8,22.3c0,2.1-1.7,3.8-3.8,3.8c-0.4,0-0.8-0.1-1.1-0.2l-1.6,1.6H20v1.1h-0.9V30h-3v-2.5l4.2-4.5
	c-0.1-0.3-0.1-0.5-0.1-0.8c0-2.1,1.7-3.8,3.8-3.8S27.8,20.1,27.8,22.3z"/>
<circle class="st1" cx="25" cy="21" r="1"/>
</svg>
