<svg id="Layer_1" data-name="Layer 1" xmlns="http://www.w3.org/2000/svg" viewBox="0 0 50 50"><defs><style>.cls-1{fill:#fff;}</style></defs><title>dock_icon_10</title><path class="cls-1" d="M25.75,17,22.5,13H9V38H42V17ZM41,37H10V21H41Z"/><path class="cls-1" d="M16.59,25,19,27.41V35H12V25h4.59M17,24H11V36h9V27l-3-3Z"/><path class="cls-1" d="M26.59,25,29,27.41V35H22V25h4.59M27,24H21V36h9V27l-3-3Z"/><path class="cls-1" d="M36.59,25,39,27.41V35H32V25h4.59M37,24H31V36h9V27l-3-3Z"/><path class="cls-1" d="M25.5,27A3.5,3.5,0,1,0,29,30.5,3.5,3.5,0,0,0,25.5,27Zm-1.09,5.25v-3.5l3.28,1.75Z"/><rect class="cls-1" x="33" y="30" width="5" height="1"/><rect class="cls-1" x="33" y="32" width="5" height="1"/><rect class="cls-1" x="13" y="29" width="5" height="5"/></svg>