<svg id="Layer_1" data-name="Layer 1" xmlns="http://www.w3.org/2000/svg" viewBox="0 0 50 50"><defs><style>.cls-1{fill:#8e8e8e;}.cls-2{fill:#6d6d6d;}.cls-3{fill:#96ba00;}.cls-4{fill:#fff;}.cls-5{fill:#56a000;}.cls-6{fill:#d1d1d1;}</style></defs><title>dock_icon_07</title><rect class="cls-1" x="6" y="17" width="38" height="24"/><rect class="cls-2" x="6" y="28" width="38" height="11"/><polygon class="cls-3" points="10 13 24 13 27 17 10 17 10 13"/><polygon class="cls-1" points="6 13 20 13 23 17 6 17 6 13"/><rect class="cls-4" x="31" y="22" width="10" height="13"/><rect class="cls-4" x="20" y="22" width="10" height="13"/><rect class="cls-4" x="9" y="22" width="10" height="13"/><polygon class="cls-1" points="16 22 19 25 19 22 16 22"/><polygon class="cls-1" points="27 22 30 25 30 22 27 22"/><polygon class="cls-1" points="38 22 41 25 41 22 38 22"/><circle class="cls-5" cx="25" cy="29" r="4"/><polygon class="cls-4" points="23.75 31 23.75 27 27.5 29 23.75 31"/><rect class="cls-2" x="32" y="26" width="8" height="1"/><rect class="cls-1" x="32" y="28" width="8" height="1"/><rect class="cls-1" x="32" y="30" width="8" height="1"/><rect class="cls-1" x="32" y="32" width="8" height="1"/><rect class="cls-6" x="6" y="39" width="38" height="2"/><rect class="cls-2" x="10" y="27" width="8" height="6"/><rect class="cls-4" x="11" y="31" width="6" height="1"/><rect class="cls-4" x="12" y="29" width="1" height="2"/><rect class="cls-4" x="15" y="30" width="1" height="1"/><rect class="cls-4" x="14" y="28" width="1" height="3"/><rect class="cls-4" x="16" y="28" width="1" height="1"/></svg>