<svg id="Layer_1" data-name="Layer 1" xmlns="http://www.w3.org/2000/svg" viewBox="0 0 50 50"><defs><style>.cls-1{fill:#007ac5;}.cls-2{fill:#fff;}</style></defs><title>dock_icon_12</title><path class="cls-1" d="M23.75,17,20.5,13H9V38H42V17ZM41,36H10V20H41Z"/><path class="cls-1" d="M16.59,23,19,25.41V33H12V23h4.59M17,22H11V34h9V25l-3-3Z"/><path class="cls-1" d="M26.59,23,29,25.41V33H22V23h4.59M27,22H21V34h9V25l-3-3Z"/><path class="cls-1" d="M36.59,23,39,25.41V33H32V23h4.59M37,22H31V34h9V25l-3-3Z"/><circle class="cls-1" cx="25.5" cy="28.5" r="3.5"/><polygon class="cls-2" points="24.41 30.25 24.41 26.75 27.69 28.5 24.41 30.25"/><rect class="cls-1" x="33" y="27" width="5" height="1"/><rect class="cls-1" x="33" y="29" width="5" height="1"/><rect class="cls-1" x="33" y="31" width="5" height="1"/><rect class="cls-1" x="12.14" y="26" width="6.86" height="6"/></svg>