<svg id="Layer_1" data-name="Layer 1" xmlns="http://www.w3.org/2000/svg" viewBox="0 0 50 50"><defs><style>.cls-1{fill:#d1d1d1;}.cls-2{fill:#8e8e8e;}.cls-3{fill:#6d6d6d;}.cls-4{fill:#96ba00;}.cls-5{fill:#56a000;}</style></defs><title>dock_icon_07</title><polygon class="cls-1" points="17.42 14 7 14 7 35 17.42 35 43 35 43 14 17.42 14"/><path class="cls-2" d="M36.12,30c-.1,0-2.16-1.15-2.31-1.22a.06.06,0,0,1,0-.06,2.08,2.08,0,0,0-.18-.72.08.08,0,0,0,0,0l-.25-.09c-.06,0-.12-.06-.13-.14,0-.24,0-.48,0-.72a.23.23,0,0,1,0-.09l.07-.14a3.75,3.75,0,0,0,.3-.78l.06-.24a.15.15,0,0,0,.17-.1,1,1,0,0,0,.08-.17c.06-.19.11-.38.16-.57a1.39,1.39,0,0,0,0-.45c0-.11,0-.15-.17-.14s0,0,0-.07l.08-.8c0-.13,0-.26,0-.39a1.41,1.41,0,0,0-.11-.73.39.39,0,0,0-.25-.25.08.08,0,0,1-.06-.08.35.35,0,0,0-.09-.21,2.11,2.11,0,0,0-.45-.36,2.07,2.07,0,0,0-1-.29l-.52,0A1,1,0,0,1,31,21a.55.55,0,0,0,.25.29l-.21,0-.2-.06h0l.17.11-.5.16a.88.88,0,0,0-.32.21,1,1,0,0,0-.22.37.38.38,0,0,1-.12.19.79.79,0,0,0-.24.27.92.92,0,0,0-.12.51c0,.2,0,.39.05.58l.06.6c0,.05,0,.1,0,.15s-.16,0-.17.13,0,.06,0,.09a1.8,1.8,0,0,0,.06.42,3.7,3.7,0,0,0,.19.63c0,.08.08.17.2.16s0,.1,0,.15.1.34.16.5.13.29.2.43a.63.63,0,0,1,.06.14.72.72,0,0,1,0,.16c0,.18,0,.37,0,.55a.18.18,0,0,1-.13.18l-.24.09,0,0-.06.16a2,2,0,0,0-.12.58,0,0,0,0,1,0,0c-.17.08-2.2,1.17-2.26,1.2a.79.79,0,0,0-.43.35,1.53,1.53,0,0,0-.08.23V31h9.63v-.41a1.73,1.73,0,0,0-.08-.23A.75.75,0,0,0,36.12,30Z"/><rect class="cls-3" x="7" y="35" width="36" height="2"/><path class="cls-2" d="M22.12,30c-.1,0-2.16-1.15-2.31-1.22a.06.06,0,0,1,0-.06,2.08,2.08,0,0,0-.18-.72.08.08,0,0,0,0,0l-.25-.09c-.06,0-.12-.06-.13-.14,0-.24,0-.48,0-.72a.23.23,0,0,1,0-.09l.07-.14a3.75,3.75,0,0,0,.3-.78l.06-.24a.15.15,0,0,0,.17-.1,1,1,0,0,0,.08-.17c.06-.19.11-.38.16-.57a1.39,1.39,0,0,0,0-.45c0-.11,0-.15-.17-.14s0,0,0-.07l.08-.8c0-.13,0-.26,0-.39a1.41,1.41,0,0,0-.11-.73.39.39,0,0,0-.25-.25.08.08,0,0,1-.06-.08.35.35,0,0,0-.09-.21,2.11,2.11,0,0,0-.45-.36,2.07,2.07,0,0,0-1-.29l-.52,0A1,1,0,0,1,17,21a.55.55,0,0,0,.25.29l-.21,0-.2-.06h0l.17.11-.5.16a.88.88,0,0,0-.32.21,1,1,0,0,0-.22.37.38.38,0,0,1-.12.19.79.79,0,0,0-.24.27.92.92,0,0,0-.12.51c0,.2,0,.39.05.58l.06.6c0,.05,0,.1,0,.15s-.16,0-.17.13,0,.06,0,.09a1.8,1.8,0,0,0,.06.42,3.7,3.7,0,0,0,.19.63c0,.08.08.17.2.16s0,.1,0,.15.1.34.16.5.13.29.2.43a.63.63,0,0,1,.06.14.72.72,0,0,1,0,.16c0,.18,0,.37,0,.55a.18.18,0,0,1-.13.18l-.24.09,0,0-.06.16a2,2,0,0,0-.12.58,0,0,0,0,1,0,0c-.17.08-2.2,1.17-2.26,1.2a.79.79,0,0,0-.43.35,1.53,1.53,0,0,0-.08.23V31h9.63v-.41a1.73,1.73,0,0,0-.08-.23A.75.75,0,0,0,22.12,30Z"/><path class="cls-4" d="M42.58,39.78c-.34-.53-.78-1-1.17-1.46-.19-.24-.37-.49-.57-.73a4.88,4.88,0,0,0-.73-.83.33.33,0,0,1-.17-.32l.06-.08,0-.14.22-.81.42-1.47L41,32.47A8.13,8.13,0,0,0,41.39,31c.16-.56.27-1.13.38-1.7a2.57,2.57,0,0,0,0-1.23,2.1,2.1,0,0,0-.37-.81,1.77,1.77,0,0,0-.36-.65,32.18,32.18,0,0,0-1.63-2.92c-.55-1-1.11-2-1.73-2.93a7.51,7.51,0,0,0-.66-1.1c0-.16-.16-.23-.21-.36-.54-1-1.16-2-1.76-2.92a4.72,4.72,0,0,0-1-1.32S34,15,34,15a1,1,0,0,0-1,1.38,5,5,0,0,0,.44,1.46c0,.08,0,.16.06.24l.91,2.68L35,22.4l.54-.38A2.54,2.54,0,0,1,37,21.93l.36.31a3.52,3.52,0,0,1,.46,1.46v5.85c0,.13,0,.26,0,.4,0,.61-.27.77-.8.47-.16-.28,0-.58-.09-.87V23.7a1.83,1.83,0,0,1-.06-.24c-.09-.8-.36-1-1.17-.59a.88.88,0,0,0-.14.11,1.43,1.43,0,0,0-.57.72,3.33,3.33,0,0,0-.37,1.46v1.47a3.8,3.8,0,0,1-.22,1.46l-.31.72a2.26,2.26,0,0,0-.42.74A3.26,3.26,0,0,0,33.23,31a6.7,6.7,0,0,0,.07,1.46,9,9,0,0,0,.27,1.47,18.24,18.24,0,0,0,.75,2.92,3.16,3.16,0,0,0,.57,1.47,4.53,4.53,0,0,0,.66,1.1.45.45,0,0,0,.21.36l.09.22h6.93A.52.52,0,0,0,42.58,39.78Z"/><path class="cls-4" d="M7.21,39.78c.34-.53.78-1,1.17-1.46.19-.24.37-.49.57-.73a4.88,4.88,0,0,1,.73-.83.33.33,0,0,0,.17-.32l-.06-.08,0-.14-.22-.81-.42-1.47-.37-1.46A8.13,8.13,0,0,1,8.4,31c-.16-.56-.27-1.13-.38-1.7a2.57,2.57,0,0,1,0-1.23,2.1,2.1,0,0,1,.37-.81,1.77,1.77,0,0,1,.36-.65,32.18,32.18,0,0,1,1.63-2.92c.55-1,1.11-2,1.73-2.93a7.51,7.51,0,0,1,.66-1.1c0-.16.16-.23.21-.36.54-1,1.16-2,1.76-2.92a4.72,4.72,0,0,1,1-1.32s.05-.06.08-.06a1,1,0,0,1,1,1.38,5,5,0,0,1-.44,1.46c0,.08,0,.16-.06.24l-.91,2.68-.55,1.62L14.23,22a2.54,2.54,0,0,0-1.46-.09l-.36.31A3.52,3.52,0,0,0,12,23.7v5.85c0,.13,0,.26,0,.4,0,.61.27.77.8.47.16-.28,0-.58.09-.87V23.7a1.83,1.83,0,0,0,.06-.24c.09-.8.36-1,1.17-.59a.88.88,0,0,1,.14.11,1.43,1.43,0,0,1,.57.72,3.33,3.33,0,0,1,.37,1.46v1.47a3.8,3.8,0,0,0,.22,1.46l.31.72a2.26,2.26,0,0,1,.42.74A3.26,3.26,0,0,1,16.56,31a6.7,6.7,0,0,1-.07,1.46,9,9,0,0,1-.27,1.47,18.24,18.24,0,0,1-.75,2.92,3.16,3.16,0,0,1-.57,1.47,4.53,4.53,0,0,1-.66,1.1.45.45,0,0,1-.21.36l-.09.22H7A.52.52,0,0,1,7.21,39.78Z"/><rect class="cls-4" x="7" y="12" width="18" height="2"/><path class="cls-3" d="M31,31.7c-.13-.06-2.94-1.57-3.15-1.67a.08.08,0,0,1-.05-.08,2.84,2.84,0,0,0-.24-1,.11.11,0,0,0-.05-.06l-.33-.13c-.09,0-.17-.08-.17-.19,0-.32,0-.65,0-1a.31.31,0,0,1,0-.13c0-.07.07-.13.1-.19a5.1,5.1,0,0,0,.41-1.06l.08-.33a.2.2,0,0,0,.22-.13,1.33,1.33,0,0,0,.1-.24c.08-.26.15-.52.22-.78a1.89,1.89,0,0,0,.06-.61c0-.15-.06-.2-.23-.2,0,0,0-.07,0-.1l.1-1.09c0-.18,0-.36,0-.53a1.92,1.92,0,0,0-.16-1,.53.53,0,0,0-.34-.33.11.11,0,0,1-.08-.11.48.48,0,0,0-.13-.28,2.87,2.87,0,0,0-.62-.49,2.82,2.82,0,0,0-1.3-.4c-.24,0-.47,0-.71,0a1.3,1.3,0,0,1-.75-.22.75.75,0,0,0,.34.4l-.29,0-.27-.08h0l.24.15-.67.21a1.2,1.2,0,0,0-.43.28,1.32,1.32,0,0,0-.29.5.52.52,0,0,1-.17.26,1.08,1.08,0,0,0-.32.37,1.25,1.25,0,0,0-.17.69c0,.27,0,.53.07.8l.08.81c0,.07,0,.14,0,.21-.15,0-.22,0-.23.18s0,.09,0,.13a2.45,2.45,0,0,0,.08.57,5,5,0,0,0,.26.86c0,.11.11.23.27.21s0,.13,0,.2c.07.23.13.46.21.68s.18.39.27.59a.86.86,0,0,1,.08.19,1,1,0,0,1,0,.22c0,.25,0,.5,0,.75a.25.25,0,0,1-.18.24l-.33.12a.11.11,0,0,0-.06.05c0,.07-.06.14-.08.21a2.68,2.68,0,0,0-.16.79.07.07,0,0,1,0,.07c-.23.11-3,1.6-3.07,1.63a1.08,1.08,0,0,0-.59.48,2.08,2.08,0,0,0-.11.31V33H31.56v-.56a2.36,2.36,0,0,0-.11-.31A1,1,0,0,0,31,31.7Z"/><rect class="cls-5" x="25" y="12" width="18" height="2"/></svg>