<svg id="Layer_1" data-name="Layer 1" xmlns="http://www.w3.org/2000/svg" viewBox="0 0 50 50"><defs><style>.cls-1{fill:#fff;}.cls-2{fill:#c60021;}</style></defs><title>dock_icon_02</title><rect class="cls-1" x="14" y="10" width="22" height="21"/><polygon class="cls-2" points="33 33.18 25 39 17 33.18 17 13.18 33 13.18 33 33.18"/><path class="cls-1" d="M41.71,41.12c-.69-.45-1.27-1-1.91-1.53-.32-.25-.64-.49-1-.74a6.37,6.37,0,0,1-1.09-.95.43.43,0,0,0-.42-.23l-.1.08-.19,0L36,38.07l-1.91.55-1.9.48a10.6,10.6,0,0,1-1.91.48c-.73.21-1.47.35-2.21.5a3.36,3.36,0,0,1-1.6,0,2.74,2.74,0,0,1-1.05-.48,2.3,2.3,0,0,1-.85-.47A42,42,0,0,1,20.74,37c-1.29-.72-2.58-1.45-3.82-2.26a9.8,9.8,0,0,1-1.44-.86c-.21,0-.3-.21-.47-.28-1.31-.7-2.55-1.51-3.81-2.29a6.16,6.16,0,0,1-1.72-1.25S9.41,30,9.41,30a1.27,1.27,0,0,1,1.8-1.24,6.51,6.51,0,0,1,1.91.57l.31.08,3.5,1.19,2.12.71-.49.71a3.31,3.31,0,0,0-.12,1.91l.4.46a4.59,4.59,0,0,0,1.9.6h7.63l.52,0c.8,0,1-.35.62-1-.36-.21-.76,0-1.14-.11H20.74a2.39,2.39,0,0,0-.31-.08c-1-.12-1.3-.47-.77-1.53A1.15,1.15,0,0,1,19.8,32a1.86,1.86,0,0,1,.94-.75,4.34,4.34,0,0,1,1.9-.48h1.91a5,5,0,0,0,1.9-.29l.95-.4a3,3,0,0,1,1-.55,4.24,4.24,0,0,1,1.91-.57,8.74,8.74,0,0,1,1.9.09,11.79,11.79,0,0,1,1.91.35,23.79,23.79,0,0,1,3.81,1,4.12,4.12,0,0,1,1.91.74,5.91,5.91,0,0,1,1.44.86.59.59,0,0,1,.47.28l.28.12v9A.67.67,0,0,1,41.71,41.12Z"/><path class="cls-1" d="M31,26.7c-.13-.06-2.94-1.57-3.15-1.67a.08.08,0,0,1-.05-.08,2.84,2.84,0,0,0-.24-1,.11.11,0,0,0-.05-.06l-.33-.13c-.09,0-.17-.08-.17-.19,0-.32,0-.65,0-1a.31.31,0,0,1,0-.13c0-.07.07-.13.1-.19a5.1,5.1,0,0,0,.41-1.06l.08-.33a.2.2,0,0,0,.22-.13,1.33,1.33,0,0,0,.1-.24c.08-.26.15-.52.22-.78a1.89,1.89,0,0,0,.06-.61c0-.15-.06-.2-.23-.2,0,0,0-.07,0-.1l.1-1.09c0-.18,0-.36,0-.53a1.92,1.92,0,0,0-.16-1,.53.53,0,0,0-.34-.33.11.11,0,0,1-.08-.11.48.48,0,0,0-.13-.28,2.87,2.87,0,0,0-.62-.49,2.82,2.82,0,0,0-1.3-.4c-.24,0-.47,0-.71,0a1.3,1.3,0,0,1-.75-.22.75.75,0,0,0,.34.4l-.29,0-.27-.08h0l.24.15-.67.21a1.2,1.2,0,0,0-.43.28,1.32,1.32,0,0,0-.29.5.52.52,0,0,1-.17.26,1.08,1.08,0,0,0-.32.37,1.25,1.25,0,0,0-.17.69c0,.27,0,.53.07.8l.08.81c0,.07,0,.14,0,.21-.15,0-.22,0-.23.18s0,.09,0,.13a2.45,2.45,0,0,0,.08.57,5,5,0,0,0,.26.86c0,.11.11.23.27.21s0,.13,0,.2c.07.23.13.46.21.68s.18.39.27.59a.86.86,0,0,1,.08.19,1,1,0,0,1,0,.22c0,.25,0,.5,0,.75a.25.25,0,0,1-.18.24l-.33.12a.11.11,0,0,0-.06.05c0,.07-.06.14-.08.21a2.68,2.68,0,0,0-.16.79.07.07,0,0,1,0,.07c-.23.11-3,1.6-3.07,1.63a1.08,1.08,0,0,0-.59.48,2.08,2.08,0,0,0-.11.31V28H31.56v-.56a2.36,2.36,0,0,0-.11-.31A1,1,0,0,0,31,26.7Z"/></svg>