<svg id="Layer_1" data-name="Layer 1" xmlns="http://www.w3.org/2000/svg" viewBox="0 0 50 50"><defs><style>.cls-1{fill:#a6a6a6;}</style></defs><title>dock_icon_11</title><rect class="cls-1" x="9" y="39" width="32" height="1"/><path class="cls-1" d="M18.26,14H9V38h1.62l.33-.42a4.88,4.88,0,0,1,.73-.83.33.33,0,0,0,.17-.32l-.06-.08,0-.14-.22-.81-.42-1.47-.37-1.46A8.12,8.12,0,0,1,10.4,31c-.16-.56-.27-1.13-.38-1.7a2.57,2.57,0,0,1,0-1.23,2.1,2.1,0,0,1,.37-.81,1.77,1.77,0,0,1,.36-.65,32.19,32.19,0,0,1,1.63-2.92c.55-1,1.11-2,1.73-2.93a7.52,7.52,0,0,1,.66-1.1c0-.16.16-.23.21-.36.54-1,1.16-2,1.76-2.92a4.72,4.72,0,0,1,1-1.32s.05-.06.08-.06a1,1,0,0,1,1,1.38,5,5,0,0,1-.44,1.46c0,.08,0,.16-.06.24l-.91,2.68-.55,1.62L16.23,22a2.54,2.54,0,0,0-1.46-.09l-.36.31A3.52,3.52,0,0,0,14,23.7q0,.73,0,1.46v4.39c0,.13,0,.26,0,.4,0,.61.27.77.8.47.16-.28,0-.58.09-.87q0-.73,0-1.46t0-1.47q0-.73,0-1.46V23.7a1.83,1.83,0,0,0,.06-.24c.09-.8.36-1,1.17-.59a.88.88,0,0,1,.14.11,1.43,1.43,0,0,1,.57.72,3.33,3.33,0,0,1,.37,1.46q0,.73,0,1.47a3.8,3.8,0,0,0,.22,1.46l.31.72a2.26,2.26,0,0,1,.42.74A3.26,3.26,0,0,1,18.56,31a6.7,6.7,0,0,1-.07,1.46,9,9,0,0,1-.27,1.47,18.24,18.24,0,0,1-.75,2.92A4.69,4.69,0,0,1,17.12,38H32.68a4.69,4.69,0,0,1-.35-1.15,18.24,18.24,0,0,1-.75-2.92,9,9,0,0,1-.27-1.47A6.7,6.7,0,0,1,31.23,31a3.26,3.26,0,0,1,.44-1.47,2.26,2.26,0,0,1,.42-.74l.31-.72a3.8,3.8,0,0,0,.22-1.46q0-.73,0-1.47A3.33,3.33,0,0,1,33,23.7a1.43,1.43,0,0,1,.57-.72.88.88,0,0,1,.14-.11c.82-.41,1.08-.21,1.17.59a1.83,1.83,0,0,0,.06.24q0,.73,0,1.47t0,1.46q0,.73,0,1.47t0,1.46c.06.29-.07.59.09.87.53.3.8.14.8-.47,0-.13,0-.26,0-.4V25.16q0-.73,0-1.46a3.52,3.52,0,0,0-.46-1.46L35,21.93a2.54,2.54,0,0,0-1.46.09L33,22.4l-.55-1.62-.91-2.68c0-.08,0-.16-.06-.24a5,5,0,0,1-.44-1.46A1,1,0,0,1,32,15s.05,0,.08.06a4.72,4.72,0,0,1,1,1.32c.59,1,1.22,1.92,1.76,2.92.05.13.21.2.21.36a7.51,7.51,0,0,1,.66,1.1c.62,1,1.18,1.94,1.73,2.93A32.17,32.17,0,0,1,39,26.62a1.77,1.77,0,0,1,.36.65,2.1,2.1,0,0,1,.37.81,2.57,2.57,0,0,1,0,1.23c-.11.57-.22,1.14-.38,1.7A8.13,8.13,0,0,1,39,32.47l-.37,1.46-.42,1.47L38,36.2l0,.14-.06.08a.33.33,0,0,0,.17.32,4.88,4.88,0,0,1,.73.83l.33.42H41V14ZM29,35H21V34h8Zm1-2H20V32H30Zm.56-2H19.44v-.55a2.09,2.09,0,0,1,.11-.31,1.08,1.08,0,0,1,.59-.48c.08,0,1.84-1.52,2.07-1.63a.07.07,0,0,0,0-.07,2.68,2.68,0,0,1,.16-.79c0-.07.05-.14.08-.21a.11.11,0,0,1,.06-.05l.33-.12a.25.25,0,0,0,.18-.24c0-.25,0-.5,0-.75a1,1,0,0,0,0-.22.86.86,0,0,0-.08-.19c-.09-.2-.19-.39-.27-.59s-.15-.45-.21-.68c0-.06,0-.13,0-.2s-.22-.1-.27-.21a5,5,0,0,1-.26-.86,2.45,2.45,0,0,1-.08-.57s0-.09,0-.13.08-.2.23-.18c0-.07,0-.14,0-.21L22,20.94c0-.27-.05-.53-.07-.8a1.25,1.25,0,0,1,.17-.69,1.08,1.08,0,0,1,.32-.37.52.52,0,0,0,.17-.26,1.32,1.32,0,0,1,.29-.5,1.21,1.21,0,0,1,.43-.28l.67-.21-.24-.15h0l.27.08.29,0a.75.75,0,0,1-.34-.4,1.3,1.3,0,0,0,.75.22c.24,0,.47,0,.71,0a2.82,2.82,0,0,1,1.3.4,2.87,2.87,0,0,1,.62.49.48.48,0,0,1,.13.28.11.11,0,0,0,.08.11.53.53,0,0,1,.34.33,1.92,1.92,0,0,1,.16,1c0,.18,0,.36,0,.53l-.1,1.09s0,.07,0,.1c.16,0,.21,0,.23.2a1.89,1.89,0,0,1-.06.61c-.07.26-.14.52-.22.78a1.33,1.33,0,0,1-.1.24.2.2,0,0,1-.22.13l-.08.33A5.11,5.11,0,0,1,27,25.3c0,.06-.07.13-.1.19a.31.31,0,0,0,0,.13c0,.33,0,.65,0,1,0,.1.09.15.17.19l.33.13a.11.11,0,0,1,.05.06,2.84,2.84,0,0,1,.24,1,.08.08,0,0,0,.05.08c.21.1,2,1.6,2.15,1.67a1,1,0,0,1,.49.43,2.37,2.37,0,0,1,.11.31Z"/></svg>