<svg id="Layer_1" data-name="Layer 1" xmlns="http://www.w3.org/2000/svg" viewBox="0 0 50 50"><defs><style>.cls-1{fill:#a6a6a6;}</style></defs><title>dock_icon_17</title><polygon class="cls-1" points="19 16 19 27 21 27 21 18 30 18 30 27 32 27 32 16 19 16"/><path class="cls-1" d="M28.68,25.3,27,24.4a0,0,0,0,1,0,0,1.55,1.55,0,0,0-.13-.53l0,0-.18-.07s-.09,0-.09-.1,0-.35,0-.53a.17.17,0,0,1,0-.07l.05-.1a2.78,2.78,0,0,0,.22-.57l0-.18A.11.11,0,0,0,27,22.1.72.72,0,0,0,27,22c0-.14.08-.28.12-.42a1,1,0,0,0,0-.33c0-.08,0-.11-.12-.11s0,0,0-.05l.05-.59c0-.1,0-.19,0-.29a1,1,0,0,0-.08-.54.28.28,0,0,0-.18-.18.06.06,0,0,1,0-.06.26.26,0,0,0-.07-.15,1.54,1.54,0,0,0-.33-.27,1.49,1.49,0,0,0-.69-.22h-.38a.69.69,0,0,1-.4-.12.41.41,0,0,0,.18.21l-.15,0-.14,0h0l.13.08L24.6,19a.64.64,0,0,0-.23.15.71.71,0,0,0-.16.27.28.28,0,0,1-.09.14.58.58,0,0,0-.17.2.68.68,0,0,0-.09.37c0,.14,0,.29,0,.43l0,.44v.11c-.08,0-.12,0-.12.1s0,0,0,.07a1.33,1.33,0,0,0,0,.31,2.74,2.74,0,0,0,.14.46c0,.06.06.13.14.11s0,.07,0,.11.07.25.11.37.1.21.14.32a.47.47,0,0,1,0,.1.54.54,0,0,1,0,.12c0,.14,0,.27,0,.41a.13.13,0,0,1-.09.13l-.18.07,0,0,0,.11a1.46,1.46,0,0,0-.09.43,0,0,0,0,1,0,0l-1.64.88a.58.58,0,0,0-.31.26,1.13,1.13,0,0,0-.06.17V26h7v-.3a1.28,1.28,0,0,0-.06-.17A.55.55,0,0,0,28.68,25.3Z"/><path class="cls-1" d="M34.83,34.07c-.4-.26-.74-.59-1.11-.89l-.56-.43a3.71,3.71,0,0,1-.63-.55.25.25,0,0,0-.24-.13l-.06,0h-.11l-.61.17-1.11.32-1.11.28a6.18,6.18,0,0,1-1.11.28c-.42.12-.86.21-1.29.29s-.63.26-.94.17A45.57,45.57,0,0,1,21,31.73c-.75-.42-3.25-2.67-4.08-3.25a3.61,3.61,0,0,1-1-.73s0,0,0-.06a.92.92,0,0,1,1.19-.86,3.79,3.79,0,0,1,1.11.33l.18,0,2,.69,1.23.41-.29.41a1.93,1.93,0,0,0-.07,1.11c.08.09.3.41.37.5a2.68,2.68,0,0,0,1.11.35H27.5A.74.74,0,0,0,28,29.61c-.21-.12-.44,0-.66-.07H22.92l-.18,0c-.6-.07-.74-.39-.76-.67,0,0,.06-.07.08-.11a2.44,2.44,0,0,1,.49-.7c1.25-.94,5.21-1.07,5.61-1.07a5.09,5.09,0,0,1,1.11.06,6.87,6.87,0,0,1,1.11.21,13.87,13.87,0,0,1,2.22.57,2.4,2.4,0,0,1,1.11.43,3.45,3.45,0,0,1,.84.5.34.34,0,0,1,.27.16L35,29v5.27A.39.39,0,0,1,34.83,34.07Z"/></svg>