<svg id="Layer_1" data-name="Layer 1" xmlns="http://www.w3.org/2000/svg" viewBox="0 0 50 50"><defs><style>.cls-1{fill:#6d6d6d;}.cls-2{fill:#8e8e8e;}.cls-3{fill:#d1d1d1;}.cls-4{fill:#56a000;}.cls-5{fill:#fff;}.cls-6{fill:#96ba00;}</style></defs><title>dock_icon_07</title><rect class="cls-1" x="17" y="10" width="24" height="25"/><rect class="cls-2" x="13" y="13" width="24" height="25"/><rect class="cls-3" x="9" y="16" width="24" height="25"/><rect class="cls-2" x="16" y="35" width="13" height="1"/><rect class="cls-2" x="16" y="37" width="13" height="1"/><rect class="cls-2" x="16" y="31" width="13" height="1"/><rect class="cls-2" x="16" y="33" width="13" height="1"/><rect class="cls-2" x="16" y="27" width="13" height="1"/><rect class="cls-2" x="16" y="29" width="13" height="1"/><rect class="cls-2" x="16" y="23" width="13" height="1"/><rect class="cls-2" x="16" y="25" width="13" height="1"/><rect class="cls-2" x="16" y="19" width="13" height="1"/><rect class="cls-2" x="16" y="21" width="13" height="1"/><rect class="cls-4" x="9" y="40" width="24" height="1"/><rect class="cls-5" x="13" y="19" width="1" height="1"/><polygon class="cls-1" points="14 19 13 19 13 20 14 20 14 19 14 19"/><rect class="cls-5" x="13" y="21" width="1" height="1"/><polygon class="cls-1" points="14 21 13 21 13 22 14 22 14 21 14 21"/><rect class="cls-5" x="13" y="23" width="1" height="1"/><polygon class="cls-1" points="14 23 13 23 13 24 14 24 14 23 14 23"/><rect class="cls-5" x="13" y="25" width="1" height="1"/><polygon class="cls-1" points="14 25 13 25 13 26 14 26 14 25 14 25"/><rect class="cls-5" x="13" y="27" width="1" height="1"/><polygon class="cls-1" points="14 27 13 27 13 28 14 28 14 27 14 27"/><rect class="cls-5" x="13" y="29" width="1" height="1"/><polygon class="cls-1" points="14 29 13 29 13 30 14 30 14 29 14 29"/><rect class="cls-5" x="13" y="31" width="1" height="1"/><polygon class="cls-1" points="14 31 13 31 13 32 14 32 14 31 14 31"/><rect class="cls-5" x="13" y="33" width="1" height="1"/><polygon class="cls-1" points="14 33 13 33 13 34 14 34 14 33 14 33"/><rect class="cls-5" x="13" y="35" width="1" height="1"/><polygon class="cls-1" points="14 35 13 35 13 36 14 36 14 35 14 35"/><rect class="cls-5" x="13" y="37" width="1" height="1"/><polygon class="cls-1" points="14 37 13 37 13 38 14 38 14 37 14 37"/><rect class="cls-6" x="9" y="10" width="3" height="5"/><rect class="cls-6" x="9" y="10" width="7" height="2"/><rect class="cls-4" x="38" y="36" width="3" height="5"/><rect class="cls-4" x="34" y="39" width="4" height="2"/></svg>