<svg id="Layer_1" data-name="Layer 1" xmlns="http://www.w3.org/2000/svg" viewBox="0 0 50 50"><defs><style>.cls-1{fill:#fff;}</style></defs><title>dock_icon_10</title><path class="cls-1" d="M11,17V40H35V17Zm5,20H15V36h1Zm0-2H15V34h1Zm0-2H15V32h1Zm0-2H15V30h1Zm0-2H15V28h1Zm0-2H15V26h1Zm0-2H15V24h1Zm0-2H15V22h1Zm0-2H15V20h1ZM31,37H18V36H31Zm0-2H18V34H31Zm0-2H18V32H31Zm0-2H18V30H31Zm0-2H18V28H31Zm0-2H18V26H31Zm0-2H18V24H31Zm0-2H18V22H31Zm0-2H18V20H31Z"/><polygon class="cls-1" points="14 15 14 16 36 16 36 37 37 37 37 15 14 15"/><polygon class="cls-1" points="17 13 17 14 38 14 38 34 39 34 39 13 17 13"/></svg>