<svg id="Layer_1" data-name="Layer 1" xmlns="http://www.w3.org/2000/svg" xmlns:xlink="http://www.w3.org/1999/xlink" width="24" height="24" viewBox="0 0 24 24"><defs><style>.cls-1{fill:none;}.cls-2{fill:#38bc49;}.cls-3{fill:#30a03e;}.cls-4{fill:#2d913b;}.cls-5{clip-path:url(#clip-path);}.cls-6{fill:#fff;}</style><clipPath id="clip-path"><path class="cls-1" d="M15.44,10.75l3.09-2.25c.27-.22.48-.17.48.24V15.6c0,.46-.25.4-.48.24l-3.09-2.25ZM5,8.75v5.13A2.1,2.1,0,0,0,7.11,16h7.47a.38.38,0,0,0,.38-.38V10.45a2.1,2.1,0,0,0-2.11-2.09H5.38A.38.38,0,0,0,5,8.75Z"/></clipPath></defs><title>br_complete</title><rect class="cls-2" width="24" height="24"/><path class="cls-3" d="M18.52,8.49l-3.09,2.25H15v-.3a2.1,2.1,0,0,0-2.11-2.09H5.38a.38.38,0,0,0-.28.13h0L0,13.68V24H11.08L19,16V8.73C19,8.32,18.79,8.27,18.52,8.49Z"/><polygon class="cls-4" points="14.87 15.82 6.71 24 0 24 0 19.19 5 14.15 14.87 15.82"/><g class="cls-5"><path class="cls-6" d="M4.41,7.78H19.59v8.78H4.41Z"/></g></svg>