<svg id="Layer_1" data-name="Layer 1" xmlns="http://www.w3.org/2000/svg" viewBox="0 0 50 50"><defs><style>.cls-1{fill:#fff;}</style></defs><title>dock_icon_10</title><path class="cls-1" d="M37,14V38H10V14H37m1-1H9V40H38V13Z"/><rect class="cls-1" x="13" y="16" width="4" height="4"/><rect class="cls-1" x="13" y="21" width="4" height="4"/><rect class="cls-1" x="14" y="26" width="3" height="3"/><rect class="cls-1" x="14" y="30" width="3" height="3"/><rect class="cls-1" x="19" y="22" width="15" height="2"/><rect class="cls-1" x="19" y="17" width="15" height="2"/><rect class="cls-1" x="19" y="27" width="6" height="1"/><rect class="cls-1" x="19" y="31" width="6" height="1"/><path class="cls-1" d="M27,26V40H41V26Zm7.77,11.77-1.85-3.69-3.69-1.85L38,29Z"/><rect class="cls-1" x="14" y="34" width="3" height="3"/><rect class="cls-1" x="19" y="35" width="6" height="1"/></svg>