<svg id="Layer_1" data-name="Layer 1" xmlns="http://www.w3.org/2000/svg" viewBox="0 0 50 50"><defs><style>.cls-1{fill:#d1d1d1;}.cls-2{fill:#c60021;}.cls-3{fill:#6d6d6d;}.cls-4{fill:#8e8e8e;}.cls-5{fill:#d8414c;}.cls-6{fill:#fff;}</style></defs><title>dock_icon_01</title><rect class="cls-1" x="6" y="13" width="36" height="28"/><rect class="cls-2" x="30" y="27" width="14" height="14"/><rect class="cls-2" x="9" y="16" width="4" height="4"/><rect class="cls-2" x="9" y="21" width="4" height="4"/><rect class="cls-3" x="10" y="27" width="3" height="3"/><rect class="cls-3" x="10" y="31" width="3" height="3"/><rect class="cls-4" x="15" y="22" width="22" height="2"/><rect class="cls-4" x="15" y="17" width="22" height="2"/><rect class="cls-4" x="15" y="28" width="9" height="1"/><rect class="cls-4" x="15" y="32" width="9" height="1"/><rect class="cls-3" x="10" y="35" width="3" height="3"/><rect class="cls-4" x="15" y="36" width="9" height="1"/><polygon class="cls-5" points="30 41 44 27 30 27 30 41"/><polygon class="cls-6" points="32.23 33.23 35.92 35.08 37.77 38.77 41 30 32.23 33.23"/></svg>