<svg id="Layer_1" data-name="Layer 1" xmlns="http://www.w3.org/2000/svg" viewBox="0 0 16 16"><defs><style>.cls-1{fill:#fff;}</style></defs><title>Artboard 1</title><path class="cls-1" d="M5.5,0A5.5,5.5,0,1,0,11,5.5,5.5,5.5,0,0,0,5.5,0Zm0,10A4.5,4.5,0,1,1,10,5.5,4.5,4.5,0,0,1,5.5,10Z"/><path class="cls-1" d="M5.45,4.56c.58.05,1.34.86,2.18.15L5.89,2.29,4.46,5.09A1.26,1.26,0,0,1,5.45,4.56Z"/><path class="cls-1" d="M8.71,6.42l-.5-.67c-1.1.89-2.1-.13-2.86-.19a1.65,1.65,0,0,0-1.29.68L3.19,7.87a3.18,3.18,0,0,0,2.31.84A3.24,3.24,0,0,0,8.71,6.42Z"/><rect class="cls-1" x="0.3" y="10.03" width="3.14" height="2.23" transform="translate(-8.56 6.78) rotate(-57.74)"/><path class="cls-1" d="M12.84,7.42a1.4,1.4,0,0,0,1-.34,1.24,1.24,0,0,0,.36-.94,1.24,1.24,0,0,0-.36-.94,1.4,1.4,0,0,0-1-.34,1.4,1.4,0,0,0-1,.34,1.24,1.24,0,0,0-.36.94,1.24,1.24,0,0,0,.36.94A1.4,1.4,0,0,0,12.84,7.42Z"/><polygon class="cls-1" points="12 2 10.97 2 9.38 2 9.38 3 11.5 3 12 3 15 3 15 15 3 15 3 13.23 2 14.82 2 16 16 16 16 2 12 2"/><path class="cls-1" d="M14.2,14l-2-3.69-1.66,1-.66-.74a5.31,5.31,0,0,1-4.84,1.58L4.21,14Z"/></svg>