<svg id="Layer_1" data-name="Layer 1" xmlns="http://www.w3.org/2000/svg" width="24" height="24" viewBox="0 0 24 24"><defs><style>.cls-1{fill:#d64536;}.cls-2{fill:#b93e32;}.cls-3{fill:#a83d31;}.cls-4{fill:#fff;}</style></defs><title>br_fail</title><rect class="cls-1" width="24" height="24"/><polygon class="cls-2" points="3 8.01 0 11.04 0 24 8.96 24 20.85 12 19.08 8 3 8.01"/><polygon class="cls-3" points="13.97 15.96 6 24 0 24 0 19.08 3 16 4.54 12.63 8.23 12.33 9.38 8.01 16.46 8.01 16.46 15.08 13.97 15.96"/><path class="cls-4" d="M3,12V8H5.48v3.44H8.15V8h2l0,.09-.86,3.82a2,2,0,0,0-.07.43s.5.09,1.09.17l1.07.15.16-.19a1.09,1.09,0,0,1,1.69,0,1.08,1.08,0,0,1-1.67,1.38l-.19-.21-1.06.15-1.08.17a2.42,2.42,0,0,0,.34.84,2.53,2.53,0,0,0,1.25,1.07l.27.12L9.62,16H8.15V13H5.48v3H3Z"/><path class="cls-4" d="M14,16a1.1,1.1,0,0,1,.24-.1,2.88,2.88,0,0,0,1.69-2.72,2.38,2.38,0,0,0-.68-1.75,2.53,2.53,0,0,0-1.1-.69,2.48,2.48,0,0,0-1-.11,2.48,2.48,0,0,0-1,.11l-.41.13s-.05,0,0,0,.07-.3.14-.6l.13-.55h3.63V8l1.87,0a9.38,9.38,0,0,1,2.19.1,2,2,0,0,1,1.57,1.42,2.24,2.24,0,0,1,.11.88,3,3,0,0,1-.07.82,2.29,2.29,0,0,1-1.71,1.66,10.49,10.49,0,0,1-2,.14h-.69v3H15.38A12.71,12.71,0,0,1,14,16Zm4.3-4.62a.9.9,0,0,0,.6-.57.87.87,0,0,0-.59-1.08,6.22,6.22,0,0,0-.79-.07l-.65,0v1.86l.61,0a4.55,4.55,0,0,0,.83-.09Z"/></svg>