<svg id="Layer_1" data-name="Layer 1" xmlns="http://www.w3.org/2000/svg" viewBox="0 0 24 24" width="24" height="24"><defs><style>.cls-1{fill:#7aa6bb;}.cls-2{fill:#628798;}.cls-3{fill:#597a88;}.cls-4{fill:#fff;}</style></defs><title>1</title><rect class="cls-1" width="24" height="24"/><polygon class="cls-2" points="6.3 6.39 0.02 12.58 0.02 24 11.21 24 17.81 17.44 6.3 6.39"/><polygon class="cls-3" points="4.82 16.55 0 21.45 0 24 2.92 24 7.46 19.18 4.82 16.55"/><circle class="cls-4" cx="12" cy="12" r="8"/><polygon class="cls-4" points="10 18.33 3.5 20.5 5.67 14 10 18.33"/><polygon class="cls-1" points="7.29 17 9.41 17 9.41 10.7 6.59 10.7 7.29 17"/><path class="cls-1" d="M17.41,13.46c-.15-.09-.15-.13,0-.22a.85.85,0,0,0,0-1.43c-.18-.11-.18-.2,0-.29a.79.79,0,0,0-.21-1.35,6.65,6.65,0,0,0-2.85-.4c-.39,0-.47-.1-.35-.47a4.3,4.3,0,0,0,.64-1.08,3.23,3.23,0,0,0,.16-1.5,1.2,1.2,0,0,0-.75-1,.42.42,0,0,0-.64.3,5.55,5.55,0,0,0-.17.77c-.1.74-.6,1.12-1.13,1.64a4.68,4.68,0,0,0-.88,1.26c-.14.28-.27.56-.4.85a.85.85,0,0,1-.87.53h0L9.51,16a6.55,6.55,0,0,1,1,.1,18.64,18.64,0,0,0,3,.34c1,0,1.35,0,2.33,0,.53,0,1.13-.27,1.06-.88a.87.87,0,0,0-.27-.44c.18-.06.39-.07.54-.14A.88.88,0,0,0,17.41,13.46Z"/></svg>