<svg id="Layer_1" data-name="Layer 1" xmlns="http://www.w3.org/2000/svg" viewBox="0 0 19 20" width="19" height="20"><defs><style>.cls-1{fill:#ccc;}.cls-2{fill:#a8a8a8;}.cls-3{fill:#bababa;}.cls-4{fill:#fff;}.cls-5{fill:#ededed;}.cls-6{fill:#7dbc19;}.cls-7{fill:#74af17;}</style></defs><title>but_3a</title><rect class="cls-1" width="19" height="20"/><rect class="cls-2" width="19" height="1"/><rect class="cls-3" y="1" width="19" height="1"/><rect class="cls-3" x="18" y="1" width="1" height="19"/><rect class="cls-3" y="2" width="18" height="18"/><rect class="cls-4" x="1" y="2" width="16" height="16"/><rect class="cls-2" x="1" y="18" width="16" height="1"/><polygon class="cls-5" points="1 2 1 18 7.83 18 9.97 2 1 2"/><polygon class="cls-6" points="13.04 6.67 8.79 10.91 8.78 10.9 8.28 14.64 8.79 15.16 10.91 13.04 15.16 8.79 13.04 6.67"/><polygon class="cls-7" points="5.96 8.09 3.84 10.21 8.28 14.64 8.78 10.9 5.96 8.09"/></svg>