<svg xmlns="http://www.w3.org/2000/svg" viewBox="0 0 19 20" width="19" height="20"><defs><style>.cls-1{isolation:isolate;}.cls-2{fill:#ccc;}.cls-3{fill:#a8a8a8;}.cls-4{fill:#bababa;}.cls-5{fill:#fff;}.cls-6{fill:#ededed;}.cls-7,.cls-8{fill:#ff9100;}.cls-7{mix-blend-mode:multiply;}.cls-9{fill:#ed8700;}</style></defs><title>but_2a</title><g class="cls-1"><g id="Layer_1" data-name="Layer 1"><rect class="cls-2" width="19" height="20"/><rect class="cls-3" width="19" height="1"/><rect class="cls-4" y="1" width="19" height="1"/><rect class="cls-4" y="2" width="18" height="18"/><rect class="cls-5" x="1" y="2" width="16" height="16"/><rect class="cls-3" x="1" y="18" width="16" height="1"/><polygon class="cls-6" points="1 2 1 18 7.83 18 9.97 2 1 2"/><rect class="cls-7" x="3" y="8" width="3" height="4"/><rect class="cls-7" x="12" y="8" width="3" height="4"/><polygon class="cls-8" points="11 8 9.17 8 8.64 12 11 12 11 8"/><polygon class="cls-6" points="7 8 7 12 8.64 12 9.17 8 7 8"/><polygon class="cls-9" points="7 8 7 12 8.64 12 9.17 8 7 8"/></g></g></svg>