<svg id="Layer_1" data-name="Layer 1" xmlns="http://www.w3.org/2000/svg" viewBox="0 0 19 20" width="19" height="20"><defs><style>.cls-1{fill:#ccc;}.cls-2{fill:#a8a8a8;}.cls-3{fill:#bababa;}.cls-4{fill:#fff;}.cls-5{fill:#ededed;}.cls-6{fill:#ef4c43;}.cls-7{fill:#de473e;}</style></defs><title>but_1a</title><rect class="cls-1" width="19" height="20"/><rect class="cls-2" width="19" height="1"/><rect class="cls-3" y="1" width="19" height="1"/><rect class="cls-3" y="2" width="1" height="18"/><rect class="cls-3" x="1" y="2" width="18" height="18"/><rect class="cls-4" x="2" y="2" width="16" height="16"/><rect class="cls-2" x="2" y="18" width="16" height="1"/><polygon class="cls-5" points="2 2 2 18 8.83 18 10.97 2 2 2"/><polygon class="cls-6" points="14.45 7.67 12.33 5.55 10.22 7.66 9.55 12.67 12.33 15.45 14.45 13.33 11.62 10.5 14.45 7.67"/><polygon class="cls-7" points="9.5 8.38 6.67 5.55 4.55 7.67 7.38 10.5 4.55 13.33 6.67 15.45 9.5 12.62 9.55 12.67 10.22 7.66 9.5 8.38"/></svg>