<svg id="Layer_1" data-name="Layer 1" xmlns="http://www.w3.org/2000/svg" width="24" height="24" viewBox="0 0 24 24"><defs><style>.cls-1{fill:#ff844a;}.cls-2{fill:#df4417;}.cls-3{fill:#af2100;}.cls-4{fill:#fff;}</style></defs><title>br_nonecomplete</title><rect class="cls-1" width="24" height="24"/><polygon class="cls-2" points="0 24 0 15 8 7 9.83 9.4 18.83 9.48 18.81 18.62 20 19 15.13 24 0 24"/><polygon class="cls-3" points="4 14 0.01 17.99 0.01 24 6 24 10 20 10 14 4 14"/><rect class="cls-4" x="10" y="4.27" width="2" height="3.73" rx="1" ry="1"/><rect class="cls-4" x="16" y="4.27" width="2" height="3.73" rx="1" ry="1"/><path class="cls-4" d="M19,7a2,2,0,0,1-4,0H13A2,2,0,0,1,9,7H8v6h7v2H14l-2,2v2h8V7Zm-7,5H10V10h2Zm3,6H13V16h2Zm0-6H13V10h2Zm3,6H16V16h2Zm0-3H16V13h2Zm0-3H16V10h2Z"/><path class="cls-4" d="M4,14v6h6V17l3-3Zm5.31,1.86-2.43,3L5,17.28V15.87l1.78,1.86L8.47,15h.84Z"/></svg>