<svg id="Layer_1" data-name="Layer 1" xmlns="http://www.w3.org/2000/svg" viewBox="0 0 32 32" width="16" height="16"><defs><style>.cls-1{fill:#999;}.cls-2{fill:#7a7a7a;}.cls-3{fill:#fff;}.cls-4{fill:#b7b7b7;}.cls-5{fill:#3ea2ce;}</style></defs><title>Artboard 1</title><rect class="cls-1" width="32" height="32"/><polygon class="cls-2" points="6 8 0 14 0 32 19 32 26 25 6 8"/><polygon class="cls-3" points="26 25 6 25 6 8 19 8 26 15 26 25"/><polygon class="cls-4" points="20 14 20 9 25 14 20 14"/><rect class="cls-4" x="8" y="10" width="4" height="1"/><rect class="cls-4" x="8" y="18" width="9" height="1"/><rect class="cls-5" x="19" y="18" width="5" height="5"/><rect class="cls-4" x="8" y="20" width="9" height="1"/><rect class="cls-4" x="8" y="12" width="4" height="1"/><rect class="cls-4" x="8" y="22" width="9" height="1"/></svg>