<?xml version="1.0" encoding="utf-8"?>
<!-- Generator: Adobe Illustrator 21.0.0, SVG Export Plug-In . SVG Version: 6.00 Build 0)  -->
<svg version="1.1" id="Layer_1" xmlns="http://www.w3.org/2000/svg" xmlns:xlink="http://www.w3.org/1999/xlink" x="0px" y="0px"
	 viewBox="0 0 32 32" style="enable-background:new 0 0 32 32;" width="16" height="16" xml:space="preserve">
<style type="text/css">
	.st0{fill:#999999;}
	.st1{fill:#7A7A7A;}
	.st2{fill:#F4F4F4;}
	.st3{fill:#CC272F;}
	.st4{fill:#FFFFFF;}
</style>
<rect y="0" class="st0" width="32" height="32"/>
<polygon class="st1" points="28,22.7 19.1,32 0,32 0,13.3 9.3,4 "/>
<circle class="st2" cx="16" cy="16" r="14"/>
<circle class="st3" cx="16" cy="16" r="11.7"/>
<g>
	<path class="st4" d="M22,22.9c0,0-3.7,0-6,0c-4,0-6-4.2-6-6.9c0-2,0,0,0-2c0-2.8,2.4-6,6-6c3.8,0,6,3.3,6,6
		C22,15.7,22,22.9,22,22.9z"/>
</g>
</svg>
