<svg id="Layer_1" data-name="Layer 1" xmlns="http://www.w3.org/2000/svg" xmlns:xlink="http://www.w3.org/1999/xlink" viewBox="0 0 16 16" width="16" height="16"><defs><style>.cls-1{fill:#91918d;}.cls-2{fill:#999;}.cls-3{fill:#7a7a7a;}.cls-4{fill:#fff;}.cls-5{fill:#030200;}.cls-6{fill:url(#linear-gradient);}.cls-7{fill:url(#linear-gradient-2);}</style><linearGradient id="linear-gradient" x1="10" y1="14" x2="10" y2="6" gradientTransform="matrix(1, 0, 0, -1, 0, 18)" gradientUnits="userSpaceOnUse"><stop offset="0" stop-color="#0160d1"/><stop offset="1" stop-color="#00479c"/></linearGradient><linearGradient id="linear-gradient-2" x1="4.35" y1="12.86" x2="4.35" y2="7.04" xlink:href="#linear-gradient"/></defs><title>yookassa</title><rect class="cls-1" y="0.5" width="15" height="15"/><rect class="cls-2" width="16" height="16"/><polygon class="cls-3" points="14 11.34 9.53 16 0 16 0 6.67 4.67 2 14 11.34"/><circle class="cls-4" cx="8" cy="8" r="7"/><path class="cls-5" d="M8.18,6.36a.9.9,0,0,1-.68.8A.36.36,0,0,1,7,6.78.9.9,0,0,1,7.75,6a.35.35,0,0,1,.43.36Z"/><path class="cls-6" d="M10,4a4,4,0,1,0,4,4A4,4,0,0,0,10,4Zm0,5.47A1.49,1.49,0,1,1,11.49,8,1.51,1.51,0,0,1,10,9.47Z"/><path class="cls-7" d="M6,5.14V11H4.56L2.73,5.14Z"/></svg>
