<svg id="Layer_1" data-name="Layer 1" xmlns="http://www.w3.org/2000/svg" viewBox="0 0 50 50"><defs><style>.cls-1{fill:#fff;}.cls-2{fill:#56a000;}</style></defs><title>dock_icon_06</title><rect class="cls-1" x="9" y="12" width="32" height="30"/><path class="cls-2" d="M25.37,23.05c0,2.08-1.18,3.55-3.45,4.24,2.16.26,4,1.49,4,4.37S23.6,37,18.87,37a7.91,7.91,0,0,1-6.45-2.83l2.65-2.6a4.66,4.66,0,0,0,3.45,1.62,2,2,0,0,0,2.26-2c0-1.46-.8-2.13-2.49-2.13H16.73l.57-3.39h1.05c1.44,0,2.13-.69,2.13-1.77s-.77-1.62-2-1.62a4.68,4.68,0,0,0-3.29,1.46l-2.49-2.62a8.93,8.93,0,0,1,6.43-2.52C23.21,18.63,25.37,20.54,25.37,23.05Z"/><path class="cls-2" d="M36.69,36.53H31.75V23.88l-3.57,2.18L26,22.75l6.2-3.7h4.53Z"/><rect class="cls-1" x="14" y="7" width="4" height="8"/><rect class="cls-1" x="32" y="7" width="4" height="8"/></svg>