<svg id="Layer_1" data-name="Layer 1" xmlns="http://www.w3.org/2000/svg" viewBox="0 0 50 50"><defs><style>.cls-1{fill:#fff;}</style></defs><title>dock_icon_04</title><path class="cls-1" d="M9,12V42H41V12ZM19,37.09a8.26,8.26,0,0,1-6.76-3l2.93-2.88a4.61,4.61,0,0,0,3.39,1.59c1.05,0,2-.51,2-1.7s-.67-1.9-2.26-1.9H16.65l.64-3.75h1.08c1.39,0,1.93-.62,1.93-1.49s-.69-1.39-1.8-1.39a4.58,4.58,0,0,0-3.21,1.44l-2.78-2.91a9.42,9.42,0,0,1,6.76-2.62c4.24,0,6.48,1.88,6.48,4.45,0,2.06-1.13,3.55-3.47,4.29,2.16.28,4.06,1.47,4.06,4.42C26.35,34.47,24,37.09,19,37.09Zm18.44-.57h-5.5V24.34l-3.5,2.13L26,22.77,32.37,19h5.07Z"/><rect class="cls-1" x="14" y="7" width="4" height="8"/><rect class="cls-1" x="32" y="7" width="4" height="8"/></svg>