<svg id="Layer_1" data-name="Layer 1" xmlns="http://www.w3.org/2000/svg" viewBox="0 0 50 50"><defs><style>.cls-1{fill:#a6a6a6;}</style></defs><title>dock_icon_17</title><path class="cls-1" d="M17,18V33H33V18Zm4.93,12a4,4,0,0,1-3.23-1.41L20,27.31a2.33,2.33,0,0,0,1.72.81,1,1,0,0,0,1.13-1c0-.73-.4-1.07-1.25-1.07h-.77l.28-1.7h.53c.72,0,1.07-.35,1.07-.89s-.39-.81-1-.81a2.34,2.34,0,0,0-1.65.73l-1.25-1.31a4.47,4.47,0,0,1,3.22-1.26c2,0,3.11,1,3.11,2.21a2.14,2.14,0,0,1-1.72,2.12,2.07,2.07,0,0,1,2,2.19C25.48,28.75,24.3,30,21.93,30Zm8.91-.26H28.38V23.43l-1.79,1.09-1.11-1.66L28.58,21h2.26Z"/><rect class="cls-1" x="19" y="15" width="2" height="4"/><rect class="cls-1" x="29" y="15" width="2" height="4"/></svg>