<svg id="Layer_1" data-name="Layer 1" xmlns="http://www.w3.org/2000/svg" viewBox="0 0 50 50"><defs><style>.cls-1{fill:#797979;}</style></defs><title>dock_icon_09</title><polygon class="cls-1" points="28 36 24 36 24 32 28 32 28 36 28 36"/><polygon class="cls-1" points="22 36 18 36 18 32 22 32 22 36 22 36"/><polygon class="cls-1" points="16 36 12 36 12 32 16 32 16 36 16 36"/><polygon class="cls-1" points="28 30 24 30 24 26 28 26 28 30 28 30"/><polygon class="cls-1" points="16 30 12 30 12 26 16 26 16 30 16 30"/><polygon class="cls-1" points="28 24 24 24 24 20 28 20 28 24 28 24"/><polygon class="cls-1" points="22 24 18 24 18 20 22 20 22 24 22 24"/><path class="cls-1" d="M37,15v3H33V15H27v1h4.16V38H10V16h3V15H9V39H41V15Zm1,21H34V32h4Zm0-6H34V26h4Zm0-6H34V20h4Z"/><rect class="cls-1" x="17" y="15" width="6" height="1"/><rect class="cls-1" x="14" y="12" width="2" height="5"/><rect class="cls-1" x="24" y="12" width="2" height="5"/><rect class="cls-1" x="34" y="12" width="2" height="5"/><rect class="cls-1" x="17" y="27.5" width="6" height="1" transform="translate(-13.94 22.34) rotate(-45)"/><rect class="cls-1" x="19.5" y="25" width="1" height="6" transform="translate(-13.94 22.34) rotate(-45)"/></svg>