<svg id="Layer_1" data-name="Layer 1" xmlns="http://www.w3.org/2000/svg" viewBox="0 0 50 50"><defs><style>.cls-1{fill:#007ac5;}.cls-2{fill:#fff;}</style></defs><title>dock_icon_12</title><path class="cls-1" d="M31.16,16V38H11V16H32m8-1H10V39H40V15Z"/><polygon class="cls-2" points="37 35 33 35 33 31 37 31 37 35 37 35"/><polygon class="cls-1" points="29 35 25 35 25 31 29 31 29 35 29 35"/><polygon class="cls-1" points="23 35 19 35 19 31 23 31 23 35 23 35"/><polygon class="cls-1" points="17 35 13 35 13 31 17 31 17 35 17 35"/><polygon class="cls-2" points="37 29 33 29 33 25 37 25 37 29 37 29"/><polygon class="cls-1" points="29 29 25 29 25 25 29 25 29 29 29 29"/><polygon class="cls-1" points="17 29 13 29 13 25 17 25 17 29 17 29"/><polygon class="cls-2" points="37 23 33 23 33 19 37 19 37 23 37 23"/><polygon class="cls-1" points="29 23 25 23 25 19 29 19 29 23 29 23"/><polygon class="cls-1" points="23 23 19 23 19 19 23 19 23 23 23 23"/><rect class="cls-1" x="13" y="15" width="4" height="2"/><rect class="cls-1" x="23" y="15" width="4" height="2"/><rect class="cls-1" x="33" y="15" width="4" height="2"/><rect class="cls-1" x="14" y="12" width="2" height="6"/><rect class="cls-1" x="24" y="12" width="2" height="6"/><rect class="cls-1" x="34" y="12" width="2" height="6"/><rect class="cls-1" x="18" y="26.5" width="6" height="1" transform="translate(-12.94 22.76) rotate(-45)"/><rect class="cls-1" x="20.5" y="24" width="1" height="6" transform="translate(-12.94 22.76) rotate(-45)"/></svg>