<svg id="Layer_1" data-name="Layer 1" xmlns="http://www.w3.org/2000/svg" viewBox="0 0 50 50"><defs><style>.cls-1{fill:#d1d1d1;}.cls-2{fill:#0089a0;}.cls-3{fill:#8e8e8e;}.cls-4{fill:#00aeb7;}.cls-5{fill:#fff;}.cls-6{fill:#6d6d6d;}</style></defs><title>dock_icon_08</title><rect class="cls-1" x="6" y="14" width="36" height="27"/><polygon class="cls-2" points="38 37 34 37 34 33 38 33 38 37 38 37"/><polygon class="cls-3" points="32 37 28 37 28 33 32 33 32 37 32 37"/><polygon class="cls-3" points="26 37 22 37 22 33 26 33 26 37 26 37"/><polygon class="cls-4" points="20 37 16 37 16 33 20 33 20 37 20 37"/><polygon class="cls-3" points="14 37 10 37 10 33 14 33 14 37 14 37"/><polygon class="cls-2" points="38 31 34 31 34 27 38 27 38 31 38 31"/><polygon class="cls-3" points="32 31 28 31 28 27 32 27 32 31 32 31"/><polygon class="cls-4" points="20 31 16 31 16 27 20 27 20 31 20 31"/><polygon class="cls-3" points="14 31 10 31 10 27 14 27 14 31 14 31"/><polygon class="cls-2" points="38 25 34 25 34 21 38 21 38 25 38 25"/><polygon class="cls-4" points="32 25 28 25 28 21 32 21 32 25 32 25"/><polygon class="cls-3" points="26 25 22 25 22 21 26 21 26 25 26 25"/><rect class="cls-5" x="8" y="16" width="4" height="2"/><rect class="cls-5" x="17" y="16" width="4" height="2"/><rect class="cls-5" x="27" y="16" width="4" height="2"/><rect class="cls-5" x="36" y="16" width="4" height="2"/><rect class="cls-6" x="9" y="11" width="2" height="6"/><rect class="cls-6" x="18" y="11" width="2" height="6"/><rect class="cls-6" x="28" y="11" width="2" height="6"/><rect class="cls-6" x="37" y="11" width="2" height="6"/><rect class="cls-4" x="21" y="28.5" width="6" height="1" transform="translate(-13.48 25.46) rotate(-45)"/><rect class="cls-4" x="21" y="28.5" width="6" height="1" transform="translate(27.54 -8.48) rotate(45)"/><rect class="cls-2" x="42" y="27" width="2" height="14"/><rect class="cls-6" x="10" y="20" width="8" height="1"/><rect class="cls-6" x="10" y="22" width="8" height="1"/><rect class="cls-4" x="42" y="14" width="2" height="13"/><rect class="cls-3" x="10" y="24" width="2" height="1"/><rect class="cls-3" x="13" y="24" width="2" height="1"/><rect class="cls-3" x="16" y="24" width="2" height="1"/></svg>