<svg id="Layer_1" data-name="Layer 1" xmlns="http://www.w3.org/2000/svg" viewBox="0 0 50 50"><defs><style>.cls-1{fill:#007ac5;}.cls-2{fill:#fff;}</style></defs><title>dock_icon_12</title><path class="cls-1" d="M40,14V27H10V14H40m1-1H9V39H41V13Z"/><rect class="cls-1" x="12" y="17" width="26" height="7"/><rect class="cls-2" x="13" y="18" width="24" height="5"/><rect class="cls-1" x="14" y="19" width="15" height="3"/><rect class="cls-2" x="11" y="29" width="8" height="8"/><rect class="cls-1" x="12" y="30" width="6" height="6"/><rect class="cls-2" x="13" y="31" width="4" height="4"/><rect class="cls-1" x="13.31" y="32.18" width="0.85" height="2.56" transform="translate(-19.64 19.51) rotate(-45)"/><polygon class="cls-1" points="14.94 34.06 19.6 31.4 19 30.79 14.34 33.46 14.94 34.06"/><rect class="cls-2" x="21" y="29" width="8" height="8"/><rect class="cls-1" x="22" y="30" width="6" height="6"/><rect class="cls-2" x="23" y="31" width="4" height="4"/><rect class="cls-2" x="31" y="29" width="8" height="8"/><rect class="cls-1" x="32" y="30" width="6" height="6"/><rect class="cls-2" x="33" y="31" width="4" height="4"/></svg>