<svg id="Layer_1" data-name="Layer 1" xmlns="http://www.w3.org/2000/svg" viewBox="0 0 50 50"><defs><style>.cls-1{fill:#797979;}</style></defs><title>dock_icon_09</title><path class="cls-1" d="M8,14V39H42V14Zm4,3H38v6H12ZM41,38H9V26H41Z"/><rect class="cls-1" x="13" y="18" width="16" height="4"/><path class="cls-1" d="M12,29v6h6V29Zm5,5H13V30h4Z"/><rect class="cls-1" x="13.31" y="31.18" width="0.85" height="2.56" transform="translate(-18.93 19.22) rotate(-45)"/><polygon class="cls-1" points="14.94 33.06 19.6 30.4 19 29.79 14.34 32.46 14.94 33.06"/><path class="cls-1" d="M22,29v6h6V29Zm5,5H23V30h4Z"/><path class="cls-1" d="M32,29v6h6V29Zm5,5H33V30h4Z"/></svg>