<svg id="Layer_1" data-name="Layer 1" xmlns="http://www.w3.org/2000/svg" viewBox="0 0 50 50"><defs><style>.cls-1{fill:#d1d1d1;}.cls-2{fill:#fff;}.cls-3{fill:#8e8e8e;}.cls-4{fill:#c60021;}.cls-5{fill:#6d6d6d;}.cls-6{fill:#d8414c;}</style></defs><title>dock_icon_01</title><polygon class="cls-1" points="17 13 6 13 6 41 17 41 44 41 44 13 17 13"/><rect class="cls-2" x="12" y="16" width="28" height="7"/><rect class="cls-3" x="13" y="17" width="26" height="5"/><rect class="cls-4" x="13" y="17" width="16" height="5"/><rect class="cls-5" x="13" y="25" width="6" height="6"/><rect class="cls-5" x="13" y="32" width="6" height="6"/><rect class="cls-2" x="14" y="33" width="4" height="4"/><rect class="cls-2" x="14" y="26" width="4" height="4"/><rect class="cls-5" x="23" y="25" width="6" height="6"/><rect class="cls-2" x="24" y="26" width="4" height="4"/><rect class="cls-5" x="23" y="32" width="6" height="6"/><rect class="cls-2" x="24" y="33" width="4" height="4"/><rect class="cls-5" x="33" y="32" width="6" height="6"/><rect class="cls-2" x="34" y="33" width="4" height="4"/><rect class="cls-5" x="33" y="25" width="6" height="6"/><rect class="cls-2" x="34" y="26" width="4" height="4"/><rect class="cls-6" x="14.44" y="27.06" width="1" height="3" transform="translate(-15.82 18.93) rotate(-45)"/><rect class="cls-6" x="15.35" y="26.85" width="4.41" height="1" transform="translate(-14.2 20.43) rotate(-45)"/><rect class="cls-6" x="24.44" y="27.06" width="1" height="3" transform="translate(-12.89 26) rotate(-45)"/><rect class="cls-6" x="25.35" y="26.85" width="4.41" height="1" transform="translate(-11.27 27.5) rotate(-45)"/><rect class="cls-3" x="6" y="13" width="2" height="14"/><rect class="cls-5" x="6" y="27" width="2" height="14"/></svg>