<svg id="Layer_1" data-name="Layer 1" xmlns="http://www.w3.org/2000/svg" viewBox="0 0 23 23"><defs><style>.cls-1{fill:red;}.cls-2{fill:#fff;}</style></defs><title>Artboard 1</title><path class="cls-1" d="M23,0H0V23H23V0Z"/><path class="cls-2" d="M3.56,11.07,4.66,7.65A37,37,0,0,1,10.21,10q-.46-4.35-.48-6h3.49q-.07,2.38-.55,6a41.65,41.65,0,0,1,5.67-2.31l1.11,3.41a29.9,29.9,0,0,1-6,1.35A40.31,40.31,0,0,1,17.59,17l-2.88,2a59.43,59.43,0,0,1-3.29-5.17A38.77,38.77,0,0,1,8.29,19L5.45,17a50,50,0,0,1,4-4.54Q6.34,11.81,3.56,11.07Z"/></svg>