<svg id="Layer_1" data-name="Layer 1" xmlns="http://www.w3.org/2000/svg" viewBox="0 0 50 50"><defs><style>.cls-1{fill:#d1d1d1;}.cls-2{fill:#c60021;}.cls-3{fill:#8e8e8e;}.cls-4{fill:#6d6d6d;}.cls-5{fill:#fff;}.cls-6{fill:#d8414c;}</style></defs><title>dock_icon_01</title><polygon class="cls-1" points="17 18 6 18 6 41 17 41 36 41 36 18 17 18"/><rect class="cls-2" x="10" y="25" width="4" height="4"/><rect class="cls-2" x="10" y="20" width="4" height="4"/><rect class="cls-3" x="16" y="21" width="16" height="2"/><rect class="cls-3" x="16" y="26" width="16" height="2"/><rect class="cls-4" x="25" y="13" width="19" height="17"/><polygon class="cls-5" points="29 22.5 27 22.5 34.5 15 42 22.5 40 22.5 40 28 29 28 29 22.5"/><rect class="cls-4" x="32" y="24" width="5" height="4"/><rect class="cls-1" x="33" y="26" width="3" height="2"/><rect class="cls-2" x="10" y="30" width="4" height="4"/><rect class="cls-2" x="10" y="35" width="4" height="4"/><rect class="cls-3" x="16" y="36" width="16" height="2"/><rect class="cls-3" x="16" y="31" width="16" height="2"/><rect class="cls-4" x="6" y="18" width="2" height="23"/><rect class="cls-6" x="6" y="13" width="18" height="4"/></svg>