<svg id="Layer_1" data-name="Layer 1" xmlns="http://www.w3.org/2000/svg" viewBox="0 0 50 50"><defs><style>.cls-1{fill:#a6a6a6;}</style></defs><title>dock_icon_11</title><rect class="cls-1" x="12" y="22" width="4" height="4"/><rect class="cls-1" x="12" y="27" width="4" height="4"/><rect class="cls-1" x="18" y="28" width="5" height="2"/><rect class="cls-1" x="18" y="23" width="5" height="2"/><rect class="cls-1" x="12" y="32" width="4" height="4"/><rect class="cls-1" x="18" y="33" width="15" height="2"/><path class="cls-1" d="M25,13V30H42V13ZM35,28H32V26h3Zm4-5.5V28H36V24H31v4H28V22.5H26L33.5,15,41,22.5Z"/><rect class="cls-1" x="9" y="14" width="15" height="4"/><polygon class="cls-1" points="36 29 36 38.2 9 38.2 9 19.8 26 19.8 26 19 8 19 8 39 37 39 37 29 36 29"/></svg>