<svg id="Layer_1" data-name="Layer 1" xmlns="http://www.w3.org/2000/svg" viewBox="0 0 50 50"><defs><style>.cls-1{fill:#007ac5;}.cls-2{fill:#fff;}</style></defs><title>dock_icon_12</title><path class="cls-1" d="M37,19.8V38.2H10V19.8H37m1-.8H9V39H38V19Z"/><rect class="cls-1" x="13" y="22" width="4" height="4"/><rect class="cls-1" x="13" y="27" width="4" height="4"/><rect class="cls-1" x="19" y="28" width="15" height="2"/><rect class="cls-1" x="19" y="23" width="6" height="2"/><rect class="cls-1" x="13" y="32" width="4" height="4"/><rect class="cls-1" x="19" y="33" width="15" height="2"/><rect class="cls-1" x="27" y="12" width="15" height="15"/><polygon class="cls-2" points="29.84 19.92 28.18 19.92 34.41 13 40.64 19.92 38.98 19.92 38.98 25 29.84 25 29.84 19.92"/><rect class="cls-1" x="33" y="21" width="3" height="5"/><rect class="cls-1" x="9" y="14" width="17" height="4"/></svg>