<?xml version="1.0" encoding="utf-8"?>
<!-- Generator: Adobe Illustrator 21.0.0, SVG Export Plug-In . SVG Version: 6.00 Build 0)  -->
<svg version="1.1" id="Layer_1" xmlns="http://www.w3.org/2000/svg" xmlns:xlink="http://www.w3.org/1999/xlink" x="0px" y="0px"
	 viewBox="0 0 32 32" style="enable-background:new 0 0 32 32;" width="16" height="16" xml:space="preserve">
<style type="text/css">
	.st0{fill:#999999;}
	.st1{fill:#7A7A7A;}
	.st2{fill:#91CE6A;}
	.st3{fill:#47882A;}
	.st4{fill:#FCFDFB;}
</style>
<rect class="st0" width="32" height="32"/>
<polygon class="st1" points="28,22.7 19.1,32 0,32 0,13.3 9.3,4 "/>
<circle class="st2" cx="16" cy="16" r="14"/>
<circle class="st3" cx="16" cy="16" r="11.7"/>
<g>
	<g>
		<path class="st4" d="M24,15.6c0,4.4-3.6,7.9-8,8c-4.4,0-8-3.5-8-7.8c0-0.6,0-0.6,0.5-0.3c1.2,0.7,2.4,1.4,3.6,2.1
			c0.5,0.3,0.9,0.3,1.4,0c2.9-1.7,5.8-3.3,8.7-5c1-0.5,1-0.5,1.3,0.5C23.9,13.8,24,14.7,24,15.6z"/>
		<path class="st4" d="M8.2,13.9c0-0.4,0.2-0.5,0.5-0.2c1.2,0.7,2.4,1.3,3.5,2.1c0.4,0.3,0.7,0.2,1.1,0c2.8-1.6,5.6-3.3,8.5-4.9
			c0.2-0.1,0.4-0.3,0.6,0c0.2,0.3,0.2,0.4-0.1,0.5c-3.1,1.8-6.1,3.5-9.2,5.3c-0.2,0.1-0.4,0.1-0.7,0c-1.3-0.8-2.7-1.5-4-2.3
			C8.3,14.3,8.1,14.2,8.2,13.9z"/>
		<path class="st4" d="M21.5,9.8c-0.1,0.1-0.2,0.1-0.3,0.2c-2.7,1.6-5.5,3.2-8.2,4.7c-0.2,0.1-0.3,0.1-0.5,0c-1.2-0.7-2.3-1.4-3.5-2
			c-0.3-0.2-0.3-0.3-0.2-0.6c0.2-0.4,0.4-0.1,0.5,0c1,0.6,2,1.1,3,1.7c0.3,0.2,0.5,0.2,0.8,0c2.5-1.4,4.9-2.9,7.4-4.3
			c0.3-0.2,0.5-0.1,0.8,0.1C21.4,9.7,21.5,9.8,21.5,9.8z"/>
		<path class="st4" d="M20.1,8.8c-2.4,1.4-4.7,2.7-7.1,4.1c-0.2,0.1-0.3,0.1-0.5,0c-0.9-0.5-1.8-1.1-2.7-1.6
			c-0.2-0.1-0.4-0.1-0.2-0.4c0.2-0.2,0.3-0.4,0.6-0.2c0.7,0.5,1.5,0.9,2.2,1.3c0.3,0.2,0.5,0.2,0.8,0c1.9-1.1,3.8-2.2,5.7-3.3
			C19.4,8.3,19.7,8.4,20.1,8.8z"/>
	</g>
</g>
</svg>
