<svg id="Layer_1" data-name="Layer 1" xmlns="http://www.w3.org/2000/svg" viewBox="0 0 50 50"><defs><style>.cls-1{fill:#a6a6a6;}</style></defs><title>dock_icon_17</title><rect class="cls-1" x="23" y="15" width="2" height="4"/><rect class="cls-1" x="30" y="15" width="2" height="4"/><path class="cls-1" d="M21,17v7h6v6h7V17Zm6,6H23V19h4Zm5,5H28V24h4Zm0-5H28V19h4Z"/><polygon class="cls-1" points="17.52 27.8 20.66 30.94 26 25.61 26 25 17 25 17 28.32 17.52 27.8"/><polygon class="cls-1" points="17 30.42 17 34 20.58 34 17 30.42"/><polygon class="cls-1" points="22.24 32.51 20.75 34 26 34 26 28.75 22.24 32.51"/></svg>