<svg id="Layer_1" data-name="Layer 1" xmlns="http://www.w3.org/2000/svg" viewBox="0 0 50 50"><defs><style>.cls-1{fill:#fff;}</style></defs><title>dock_icon_10</title><rect class="cls-1" x="29" y="11" width="2" height="5"/><rect class="cls-1" x="36" y="11" width="2" height="5"/><rect class="cls-1" x="11" y="33" width="3" height="3"/><rect class="cls-1" x="11" y="26" width="3" height="3"/><path class="cls-1" d="M12.34,22H8V40H23V22ZM15,37H10V32h5Zm0-7H10V25h5Zm6,6H16V35h5Zm0-2H16V33h5Zm0-5H16V28h5Zm0-2H16V26h5Z"/><path class="cls-1" d="M39,14v3H35V14H32v3H28V14H25v7h3V20h4v4H28l-3,3V40H42V14ZM32,36H28V32h4Zm0-6H28V26h4Zm7,6H35V32h4Zm0-6H35V26h4Zm0-6H35V20h4Z"/><polygon class="cls-1" points="28 22 23 22 23 27 28 22"/></svg>