<svg id="Layer_1" data-name="Layer 1" xmlns="http://www.w3.org/2000/svg" viewBox="0 0 50 50"><defs><style>.cls-1{fill:#d1d1d1;}.cls-2{fill:#495257;}.cls-3{fill:#8e8e8e;}.cls-4{fill:#fff;}.cls-5{fill:#6d6d6d;}.cls-6{fill:#556365;}</style></defs><title>dock_icon_14</title><rect class="cls-1" x="22" y="13" width="20" height="27"/><polygon class="cls-2" points="40 36 36 36 36 32 40 32 40 36 40 36"/><polygon class="cls-3" points="34 36 30 36 30 32 34 32 34 36 34 36"/><polygon class="cls-2" points="40 30 36 30 36 26 40 26 40 30 40 30"/><polygon class="cls-3" points="34 30 30 30 30 26 34 26 34 30 34 30"/><polygon class="cls-2" points="40 24 36 24 36 20 40 20 40 24 40 24"/><polygon class="cls-3" points="34 24 30 24 30 20 34 20 34 24 34 24"/><rect class="cls-4" x="25" y="15" width="4" height="2"/><rect class="cls-4" x="36" y="15" width="4" height="2"/><rect class="cls-5" x="26" y="10" width="2" height="6"/><rect class="cls-5" x="37" y="10" width="2" height="6"/><rect class="cls-2" x="42" y="26" width="2" height="14"/><rect class="cls-6" x="42" y="13" width="2" height="13"/><polygon class="cls-3" points="28 36 24 36 24 32 28 32 28 36 28 36"/><polygon class="cls-3" points="28 30 24 30 24 26 28 26 28 30 28 30"/><polygon class="cls-3" points="28 24 24 24 24 20 28 20 28 24 28 24"/><polygon class="cls-6" points="12.5 18 7 18 7 35 12.5 35 26 35 26 18 12.5 18"/><rect class="cls-4" x="9" y="20" width="6" height="6"/><rect class="cls-4" x="9" y="27" width="6" height="6"/><rect class="cls-6" x="10" y="28" width="4" height="4"/><rect class="cls-6" x="10" y="21" width="4" height="4"/><rect class="cls-4" x="17" y="21" width="6" height="1"/><rect class="cls-4" x="17" y="23" width="6" height="1"/><rect class="cls-4" x="17" y="28" width="6" height="1"/><rect class="cls-4" x="17" y="30" width="6" height="1"/><rect class="cls-5" x="7" y="36" width="14" height="4"/><polygon class="cls-6" points="32 35 26 35 26 29 32 35"/></svg>