<svg id="Layer_1" data-name="Layer 1" xmlns="http://www.w3.org/2000/svg" viewBox="0 0 50 50"><defs><style>.cls-1{fill:#d1d1d1;}.cls-2{fill:#fff;}.cls-3{fill:#8e8e8e;}.cls-4{fill:#6d6d6d;}.cls-5{fill:#556365;}.cls-6{fill:#495257;}</style></defs><title>dock_icon_14</title><rect class="cls-1" x="9" y="10" width="32" height="30"/><rect class="cls-2" x="13" y="12" width="12" height="12"/><path class="cls-3" d="M23.54,22c-.1,0-2.24-1.2-2.4-1.28a.06.06,0,0,1,0-.06,2.19,2.19,0,0,0-.19-.76.09.09,0,0,0,0,0l-.26-.1c-.07,0-.13-.06-.13-.14,0-.25,0-.5,0-.75a.24.24,0,0,1,0-.1l.08-.15a3.93,3.93,0,0,0,.31-.81l.06-.25a.15.15,0,0,0,.17-.1,1,1,0,0,0,.08-.18c.06-.2.12-.4.17-.6a1.46,1.46,0,0,0,0-.47c0-.12,0-.15-.17-.15s0-.05,0-.08l.08-.84c0-.14,0-.27,0-.41a1.48,1.48,0,0,0-.12-.77.4.4,0,0,0-.26-.26.08.08,0,0,1-.06-.08.37.37,0,0,0-.1-.22,2.19,2.19,0,0,0-.47-.38,2.14,2.14,0,0,0-1-.31l-.54,0a1,1,0,0,1-.57-.17.58.58,0,0,0,.26.3l-.22,0-.21-.06h0l.18.11-.51.16a.92.92,0,0,0-.33.22,1,1,0,0,0-.22.39.4.4,0,0,1-.13.2.83.83,0,0,0-.25.28,1,1,0,0,0-.13.53c0,.2,0,.41.06.61l.06.62c0,.05,0,.11,0,.16s-.17,0-.17.14,0,.07,0,.1a1.89,1.89,0,0,0,.06.44,3.88,3.88,0,0,0,.2.66c0,.09.08.18.21.16s0,.1,0,.15.1.35.16.52.14.3.21.45a.66.66,0,0,1,.06.14.76.76,0,0,1,0,.17c0,.19,0,.38,0,.58a.19.19,0,0,1-.14.18l-.25.09,0,0-.06.16a2.07,2.07,0,0,0-.12.61.05.05,0,0,1,0,.05c-.18.08-2.28,1.22-2.34,1.25a.82.82,0,0,0-.45.37,1.61,1.61,0,0,0-.08.24V23H24v-.43a1.82,1.82,0,0,0-.08-.24A.78.78,0,0,0,23.54,22Z"/><rect class="cls-2" x="27" y="26" width="12" height="12"/><rect class="cls-2" x="27" y="12" width="12" height="12"/><path class="cls-4" d="M37.54,22c-.1,0-2.24-1.2-2.4-1.28a.06.06,0,0,1,0-.06,2.19,2.19,0,0,0-.19-.76.09.09,0,0,0,0,0l-.26-.1c-.07,0-.13-.06-.13-.14,0-.25,0-.5,0-.75a.24.24,0,0,1,0-.1l.08-.15a3.93,3.93,0,0,0,.31-.81l.06-.25a.15.15,0,0,0,.17-.1,1,1,0,0,0,.08-.18c.06-.2.12-.4.17-.6a1.46,1.46,0,0,0,0-.47c0-.12,0-.15-.17-.15s0-.05,0-.08l.08-.84c0-.14,0-.27,0-.41a1.48,1.48,0,0,0-.12-.77.4.4,0,0,0-.26-.26.08.08,0,0,1-.06-.08.37.37,0,0,0-.1-.22,2.19,2.19,0,0,0-.47-.38,2.14,2.14,0,0,0-1-.31l-.54,0a1,1,0,0,1-.57-.17.58.58,0,0,0,.26.3l-.22,0-.21-.06h0l.18.11-.51.16a.92.92,0,0,0-.33.22,1,1,0,0,0-.22.39.4.4,0,0,1-.13.2.83.83,0,0,0-.25.28,1,1,0,0,0-.13.53c0,.2,0,.41.06.61l.06.62c0,.05,0,.11,0,.16s-.17,0-.17.14,0,.07,0,.1a1.89,1.89,0,0,0,.06.44,3.88,3.88,0,0,0,.2.66c0,.09.08.18.21.16s0,.1,0,.15.1.35.16.52.14.3.21.45a.66.66,0,0,1,.06.14.76.76,0,0,1,0,.17c0,.19,0,.38,0,.58a.19.19,0,0,1-.14.18l-.25.09,0,0-.06.16a2.07,2.07,0,0,0-.12.61.05.05,0,0,1,0,.05c-.18.08-2.28,1.22-2.34,1.25a.82.82,0,0,0-.45.37,1.61,1.61,0,0,0-.08.24V23H38v-.43a1.82,1.82,0,0,0-.08-.24A.78.78,0,0,0,37.54,22Z"/><path class="cls-3" d="M37.54,36c-.1,0-2.24-1.2-2.4-1.28a.06.06,0,0,1,0-.06,2.19,2.19,0,0,0-.19-.76.09.09,0,0,0,0,0l-.26-.1c-.07,0-.13-.06-.13-.14,0-.25,0-.5,0-.75a.24.24,0,0,1,0-.1l.08-.15a3.93,3.93,0,0,0,.31-.81l.06-.25a.15.15,0,0,0,.17-.1,1,1,0,0,0,.08-.18c.06-.2.12-.4.17-.6a1.46,1.46,0,0,0,0-.47c0-.12,0-.15-.17-.15s0-.05,0-.08l.08-.84c0-.14,0-.27,0-.41a1.48,1.48,0,0,0-.12-.77.4.4,0,0,0-.26-.26.08.08,0,0,1-.06-.08.37.37,0,0,0-.1-.22,2.19,2.19,0,0,0-.47-.38,2.14,2.14,0,0,0-1-.31l-.54,0a1,1,0,0,1-.57-.17.58.58,0,0,0,.26.3l-.22,0-.21-.06h0l.18.11-.51.16a.92.92,0,0,0-.33.22,1,1,0,0,0-.22.39.4.4,0,0,1-.13.2.83.83,0,0,0-.25.28,1,1,0,0,0-.13.53c0,.2,0,.41.06.61l.06.62c0,.05,0,.11,0,.16s-.17,0-.17.14,0,.07,0,.1a1.89,1.89,0,0,0,.06.44,3.88,3.88,0,0,0,.2.66c0,.09.08.18.21.16s0,.1,0,.15.1.35.16.52.14.3.21.45a.66.66,0,0,1,.06.14.76.76,0,0,1,0,.17c0,.19,0,.38,0,.58a.19.19,0,0,1-.14.18l-.25.09,0,0-.06.16a2.07,2.07,0,0,0-.12.61.05.05,0,0,1,0,.05c-.18.08-2.28,1.22-2.34,1.25a.82.82,0,0,0-.45.37,1.61,1.61,0,0,0-.08.24V37H38v-.43a1.82,1.82,0,0,0-.08-.24A.78.78,0,0,0,37.54,36Z"/><rect class="cls-4" x="34" y="19" width="6" height="6"/><rect class="cls-2" x="35" y="20" width="4" height="4"/><rect class="cls-5" x="35.44" y="21.06" width="1" height="3" transform="translate(-5.43 32.02) rotate(-45)"/><rect class="cls-5" x="36.35" y="20.85" width="4.41" height="1" transform="translate(-3.81 33.52) rotate(-45)"/><rect class="cls-2" x="13" y="26" width="12" height="12"/><path class="cls-4" d="M23.54,36c-.1,0-2.24-1.2-2.4-1.28a.06.06,0,0,1,0-.06,2.19,2.19,0,0,0-.19-.76.09.09,0,0,0,0,0l-.26-.1c-.07,0-.13-.06-.13-.14,0-.25,0-.5,0-.75a.24.24,0,0,1,0-.1l.08-.15a3.93,3.93,0,0,0,.31-.81l.06-.25a.15.15,0,0,0,.17-.1,1,1,0,0,0,.08-.18c.06-.2.12-.4.17-.6a1.46,1.46,0,0,0,0-.47c0-.12,0-.15-.17-.15s0-.05,0-.08l.08-.84c0-.14,0-.27,0-.41a1.48,1.48,0,0,0-.12-.77.4.4,0,0,0-.26-.26.08.08,0,0,1-.06-.08.37.37,0,0,0-.1-.22,2.19,2.19,0,0,0-.47-.38,2.14,2.14,0,0,0-1-.31l-.54,0a1,1,0,0,1-.57-.17.58.58,0,0,0,.26.3l-.22,0-.21-.06h0l.18.11-.51.16a.92.92,0,0,0-.33.22,1,1,0,0,0-.22.39.4.4,0,0,1-.13.2.83.83,0,0,0-.25.28,1,1,0,0,0-.13.53c0,.2,0,.41.06.61l.06.62c0,.05,0,.11,0,.16s-.17,0-.17.14,0,.07,0,.1a1.89,1.89,0,0,0,.06.44,3.88,3.88,0,0,0,.2.66c0,.09.08.18.21.16s0,.1,0,.15.1.35.16.52.14.3.21.45a.66.66,0,0,1,.06.14.76.76,0,0,1,0,.17c0,.19,0,.38,0,.58a.19.19,0,0,1-.14.18l-.25.09,0,0-.06.16a2.07,2.07,0,0,0-.12.61.05.05,0,0,1,0,.05c-.18.08-2.28,1.22-2.34,1.25a.82.82,0,0,0-.45.37,1.61,1.61,0,0,0-.08.24V37H24v-.43a1.82,1.82,0,0,0-.08-.24A.78.78,0,0,0,23.54,36Z"/><rect class="cls-4" x="20" y="33" width="6" height="6"/><rect class="cls-2" x="21" y="34" width="4" height="4"/><rect class="cls-5" x="21.44" y="35.06" width="1" height="3" transform="translate(-19.43 26.22) rotate(-45)"/><rect class="cls-5" x="22.35" y="34.85" width="4.41" height="1" transform="translate(-17.81 27.72) rotate(-45)"/><rect class="cls-5" x="9" y="10" width="2" height="30"/><rect class="cls-6" x="9" y="25" width="2" height="15"/></svg>