<svg id="Layer_1" data-name="Layer 1" xmlns="http://www.w3.org/2000/svg" viewBox="0 0 50 50"><defs><style>.cls-1{fill:#fff;}</style></defs><title>dock_icon_10</title><path class="cls-1" d="M12,13V25H24V13ZM23,24H13v-.42a1.61,1.61,0,0,1,.08-.24.82.82,0,0,1,.45-.37c.06,0,2.16-1.17,2.34-1.25a.05.05,0,0,0,0-.05,2.07,2.07,0,0,1,.12-.61l.06-.16,0,0,.25-.09a.19.19,0,0,0,.14-.18c0-.19,0-.38,0-.58a.76.76,0,0,0,0-.17.66.66,0,0,0-.06-.14c-.07-.15-.15-.3-.21-.45s-.11-.35-.16-.52,0-.1,0-.15-.17-.08-.21-.16a3.88,3.88,0,0,1-.2-.66,1.89,1.89,0,0,1-.06-.44s0-.07,0-.1.06-.16.17-.14,0-.11,0-.16l-.06-.62c0-.2,0-.41-.06-.61a1,1,0,0,1,.13-.53.83.83,0,0,1,.25-.28.4.4,0,0,0,.13-.2,1,1,0,0,1,.22-.39.92.92,0,0,1,.33-.22l.51-.16-.18-.11h0l.21.06.22,0a.58.58,0,0,1-.26-.3,1,1,0,0,0,.57.17l.54,0a2.14,2.14,0,0,1,1,.31,2.19,2.19,0,0,1,.47.38.37.37,0,0,1,.1.22.08.08,0,0,0,.06.08.4.4,0,0,1,.26.26,1.48,1.48,0,0,1,.12.77c0,.14,0,.27,0,.41l-.08.84s0,.05,0,.08.16,0,.17.15a1.46,1.46,0,0,1,0,.47c-.05.2-.11.4-.17.6a1,1,0,0,1-.08.18.15.15,0,0,1-.17.1l-.06.25a3.93,3.93,0,0,1-.31.81l-.08.15a.24.24,0,0,0,0,.1c0,.25,0,.5,0,.75,0,.08.07.12.13.14l.26.1a.09.09,0,0,1,0,0,2.19,2.19,0,0,1,.19.76.06.06,0,0,0,0,.06c.16.07,2.3,1.23,2.4,1.28a.78.78,0,0,1,.37.33,1.81,1.81,0,0,1,.08.24Z"/><path class="cls-1" d="M12,27V39H24V27ZM23,38H13v-.42a1.61,1.61,0,0,1,.08-.24.82.82,0,0,1,.45-.37c.06,0,2.16-1.17,2.34-1.25a.05.05,0,0,0,0-.05,2.07,2.07,0,0,1,.12-.61l.06-.16,0,0,.25-.09a.19.19,0,0,0,.14-.18c0-.19,0-.38,0-.58a.76.76,0,0,0,0-.17.66.66,0,0,0-.06-.14c-.07-.15-.15-.3-.21-.45s-.11-.35-.16-.52,0-.1,0-.15-.17-.08-.21-.16a3.88,3.88,0,0,1-.2-.66,1.89,1.89,0,0,1-.06-.44s0-.07,0-.1.06-.16.17-.14,0-.11,0-.16l-.06-.62c0-.2,0-.41-.06-.61a1,1,0,0,1,.13-.53.83.83,0,0,1,.25-.28.4.4,0,0,0,.13-.2,1,1,0,0,1,.22-.39.92.92,0,0,1,.33-.22l.51-.16-.18-.11h0l.21.06.22,0a.58.58,0,0,1-.26-.3,1,1,0,0,0,.57.17l.54,0a2.14,2.14,0,0,1,1,.31,2.19,2.19,0,0,1,.47.38.37.37,0,0,1,.1.22.08.08,0,0,0,.06.08.4.4,0,0,1,.26.26,1.48,1.48,0,0,1,.12.77c0,.14,0,.27,0,.41l-.08.84s0,.05,0,.08.16,0,.17.15a1.46,1.46,0,0,1,0,.47c-.05.2-.11.4-.17.6a1,1,0,0,1-.08.18.15.15,0,0,1-.17.1l-.06.25a3.93,3.93,0,0,1-.31.81l-.08.15a.24.24,0,0,0,0,.1c0,.25,0,.5,0,.75,0,.08.07.12.13.14l.26.1a.09.09,0,0,1,0,0,2.19,2.19,0,0,1,.19.76.06.06,0,0,0,0,.06c.16.07,2.3,1.23,2.4,1.28a.78.78,0,0,1,.37.33,1.81,1.81,0,0,1,.08.24Z"/><rect class="cls-1" x="9" y="13" width="1" height="26"/><path class="cls-1" d="M26,13V25h7V24H27v-.42a1.61,1.61,0,0,1,.08-.24.82.82,0,0,1,.45-.37c.06,0,2.16-1.17,2.34-1.25a.05.05,0,0,0,0-.05,2.07,2.07,0,0,1,.12-.61l.06-.16,0,0,.25-.09a.19.19,0,0,0,.14-.18c0-.19,0-.38,0-.58a.76.76,0,0,0,0-.17.66.66,0,0,0-.06-.14c-.07-.15-.15-.3-.21-.45s-.11-.35-.16-.52,0-.1,0-.15-.17-.08-.21-.16a3.88,3.88,0,0,1-.2-.66,1.89,1.89,0,0,1-.06-.44s0-.07,0-.1.06-.16.17-.14,0-.11,0-.16l-.06-.62c0-.2,0-.41-.06-.61a1,1,0,0,1,.13-.53.83.83,0,0,1,.25-.28.4.4,0,0,0,.13-.2,1,1,0,0,1,.22-.39.92.92,0,0,1,.33-.22l.51-.16-.18-.11h0l.21.06.22,0a.58.58,0,0,1-.26-.3,1,1,0,0,0,.57.17l.54,0a2.14,2.14,0,0,1,1,.31,2.19,2.19,0,0,1,.47.38.37.37,0,0,1,.1.22.08.08,0,0,0,.06.08.4.4,0,0,1,.26.26,1.48,1.48,0,0,1,.12.77c0,.14,0,.27,0,.41l-.08.84s0,.05,0,.08.16,0,.17.15a1.46,1.46,0,0,1,0,.47c-.05.2-.11.4-.17.6a1,1,0,0,1-.08.18.15.15,0,0,1-.17.1l-.06.25c0,.06-.05.12-.07.18H38V13Z"/><path class="cls-1" d="M34,20v6h6V20Zm5,5H35V21h4Z"/><rect class="cls-1" x="35.31" y="22.18" width="0.85" height="2.56" transform="translate(-6.12 32.14) rotate(-45)"/><polygon class="cls-1" points="36.94 24.06 41.6 21.4 41 20.79 36.34 23.46 36.94 24.06"/><path class="cls-1" d="M26,27V39h7V38H27v-.42a1.61,1.61,0,0,1,.08-.24.82.82,0,0,1,.45-.37c.06,0,2.16-1.17,2.34-1.25a.05.05,0,0,0,0-.05,2.07,2.07,0,0,1,.12-.61l.06-.16,0,0,.25-.09a.19.19,0,0,0,.14-.18c0-.19,0-.38,0-.58a.76.76,0,0,0,0-.17.66.66,0,0,0-.06-.14c-.07-.15-.15-.3-.21-.45s-.11-.35-.16-.52,0-.1,0-.15-.17-.08-.21-.16a3.88,3.88,0,0,1-.2-.66,1.89,1.89,0,0,1-.06-.44s0-.07,0-.1.06-.16.17-.14,0-.11,0-.16l-.06-.62c0-.2,0-.41-.06-.61a1,1,0,0,1,.13-.53.83.83,0,0,1,.25-.28.4.4,0,0,0,.13-.2,1,1,0,0,1,.22-.39.92.92,0,0,1,.33-.22l.51-.16-.18-.11h0l.21.06.22,0a.58.58,0,0,1-.26-.3,1,1,0,0,0,.57.17l.54,0a2.14,2.14,0,0,1,1,.31,2.19,2.19,0,0,1,.47.38.37.37,0,0,1,.1.22.08.08,0,0,0,.06.08.4.4,0,0,1,.26.26,1.48,1.48,0,0,1,.12.77c0,.14,0,.27,0,.41l-.08.84s0,.05,0,.08.16,0,.17.15a1.46,1.46,0,0,1,0,.47c-.05.2-.11.4-.17.6a1,1,0,0,1-.08.18.15.15,0,0,1-.17.1l-.06.25c0,.06-.05.12-.07.18H38V27Z"/><path class="cls-1" d="M34,34v6h6V34Zm5,5H35V35h4Z"/><rect class="cls-1" x="35.31" y="36.18" width="0.85" height="2.56" transform="translate(-16.02 36.24) rotate(-45)"/><polygon class="cls-1" points="36.94 38.06 41.6 35.4 41 34.79 36.34 37.46 36.94 38.06"/></svg>