<svg id="Layer_1" data-name="Layer 1" xmlns="http://www.w3.org/2000/svg" viewBox="0 0 50 50"><defs><style>.cls-1{fill:#fff;}</style></defs><title>dock_icon_04</title><path class="cls-1" d="M26,27V41H40V27ZM39,40H27v-.49a1.84,1.84,0,0,1,.1-.28,1,1,0,0,1,.54-.43c.07,0,2.59-1.36,2.81-1.46a.06.06,0,0,0,0-.06,2.35,2.35,0,0,1,.15-.71l.08-.19a.1.1,0,0,1,.05,0l.3-.11a.22.22,0,0,0,.16-.21c0-.22,0-.45,0-.67a.86.86,0,0,0,0-.2.76.76,0,0,0-.07-.17c-.08-.18-.18-.35-.25-.53s-.13-.41-.2-.61,0-.12,0-.18-.2-.09-.25-.19a4.43,4.43,0,0,1-.24-.77,2.14,2.14,0,0,1-.07-.51s0-.08,0-.12.07-.18.21-.16,0-.13,0-.19L30.26,31c0-.24,0-.47-.07-.71a1.1,1.1,0,0,1,.15-.62,1,1,0,0,1,.29-.33.46.46,0,0,0,.15-.23,1.17,1.17,0,0,1,.27-.45,1.1,1.1,0,0,1,.4-.25l.62-.19-.22-.13h0l.25.07.26,0a.68.68,0,0,1-.31-.35,1.21,1.21,0,0,0,.69.19l.65,0a2.66,2.66,0,0,1,1.75.8.42.42,0,0,1,.12.25.1.1,0,0,0,.08.1.48.48,0,0,1,.31.3,1.68,1.68,0,0,1,.14.89c0,.16,0,.32,0,.48l-.09,1s0,.06,0,.09.2,0,.21.17a1.66,1.66,0,0,1-.06.55c-.06.23-.13.47-.2.7a1.17,1.17,0,0,1-.1.21.18.18,0,0,1-.21.12l-.07.3a4.51,4.51,0,0,1-.37,1l-.09.17a.27.27,0,0,0,0,.11c0,.29,0,.58,0,.87,0,.09.08.14.16.17l.31.11a.1.1,0,0,1,0,.05,2.49,2.49,0,0,1,.22.88.07.07,0,0,0,0,.07c.19.09,2.76,1.43,2.88,1.49a.92.92,0,0,1,.45.39,2.08,2.08,0,0,1,.1.27Z"/><path class="cls-1" d="M10,27V41H24V27ZM23,40H11v-.49a1.84,1.84,0,0,1,.1-.28,1,1,0,0,1,.54-.43c.07,0,2.59-1.36,2.81-1.46a.06.06,0,0,0,0-.06,2.35,2.35,0,0,1,.15-.71l.08-.19a.1.1,0,0,1,.05,0l.3-.11a.22.22,0,0,0,.16-.21c0-.22,0-.45,0-.67a.86.86,0,0,0,0-.2.76.76,0,0,0-.07-.17c-.08-.18-.18-.35-.25-.53s-.13-.41-.2-.61,0-.12,0-.18-.2-.09-.25-.19a4.43,4.43,0,0,1-.24-.77,2.14,2.14,0,0,1-.07-.51s0-.08,0-.12.07-.18.21-.16,0-.13,0-.19L14.26,31c0-.24,0-.47-.07-.71a1.1,1.1,0,0,1,.15-.62,1,1,0,0,1,.29-.33.46.46,0,0,0,.15-.23,1.17,1.17,0,0,1,.27-.45,1.1,1.1,0,0,1,.4-.25l.62-.19-.22-.13h0l.25.07.26,0a.68.68,0,0,1-.31-.35,1.21,1.21,0,0,0,.69.19l.65,0a2.66,2.66,0,0,1,1.75.8.42.42,0,0,1,.12.25.1.1,0,0,0,.08.1.48.48,0,0,1,.31.3,1.68,1.68,0,0,1,.14.89c0,.16,0,.32,0,.48l-.09,1s0,.06,0,.09.2,0,.21.17a1.66,1.66,0,0,1-.06.55c-.06.23-.13.47-.2.7a1.17,1.17,0,0,1-.1.21.18.18,0,0,1-.21.12l-.07.3a4.51,4.51,0,0,1-.37,1l-.09.17a.27.27,0,0,0,0,.11c0,.29,0,.58,0,.87,0,.09.08.14.16.17l.31.11a.1.1,0,0,1,0,.05,2.49,2.49,0,0,1,.22.88.07.07,0,0,0,0,.07c.19.09,2.76,1.43,2.88,1.49a.92.92,0,0,1,.45.39,2.08,2.08,0,0,1,.1.27Z"/><path class="cls-1" d="M10,11V25H24V11ZM23,24H11v-.49a1.84,1.84,0,0,1,.1-.28,1,1,0,0,1,.54-.43c.07,0,2.59-1.36,2.81-1.46a.06.06,0,0,0,0-.06,2.35,2.35,0,0,1,.15-.71l.08-.19a.1.1,0,0,1,.05,0l.3-.11a.22.22,0,0,0,.16-.21c0-.22,0-.45,0-.67a.86.86,0,0,0,0-.2.76.76,0,0,0-.07-.17c-.08-.18-.18-.35-.25-.53s-.13-.41-.2-.61,0-.12,0-.18-.2-.09-.25-.19a4.43,4.43,0,0,1-.24-.77,2.14,2.14,0,0,1-.07-.51s0-.08,0-.12.07-.18.21-.16,0-.13,0-.19L14.26,15c0-.24,0-.47-.07-.71a1.1,1.1,0,0,1,.15-.62,1,1,0,0,1,.29-.33.46.46,0,0,0,.15-.23,1.17,1.17,0,0,1,.27-.45,1.1,1.1,0,0,1,.4-.25l.62-.19-.22-.13h0l.25.07.26,0a.68.68,0,0,1-.31-.35,1.21,1.21,0,0,0,.69.19l.65,0a2.66,2.66,0,0,1,1.75.8.42.42,0,0,1,.12.25.1.1,0,0,0,.08.1.48.48,0,0,1,.31.3,1.68,1.68,0,0,1,.14.89c0,.16,0,.32,0,.48l-.09,1s0,.06,0,.09.2,0,.21.17a1.66,1.66,0,0,1-.06.55c-.06.23-.13.47-.2.7a1.17,1.17,0,0,1-.1.21.18.18,0,0,1-.21.12l-.07.3a4.51,4.51,0,0,1-.37,1l-.09.17a.27.27,0,0,0,0,.11c0,.29,0,.58,0,.87,0,.09.08.14.16.17l.31.11a.1.1,0,0,1,0,.05,2.49,2.49,0,0,1,.22.88.07.07,0,0,0,0,.07c.19.09,2.76,1.43,2.88,1.49a.92.92,0,0,1,.45.39,2.08,2.08,0,0,1,.1.27Z"/><path class="cls-1" d="M26,11V25H40V11ZM39,24H27v-.49a1.84,1.84,0,0,1,.1-.28,1,1,0,0,1,.54-.43c.07,0,2.59-1.36,2.81-1.46a.06.06,0,0,0,0-.06,2.35,2.35,0,0,1,.15-.71l.08-.19a.1.1,0,0,1,.05,0l.3-.11a.22.22,0,0,0,.16-.21c0-.22,0-.45,0-.67a.86.86,0,0,0,0-.2.76.76,0,0,0-.07-.17c-.08-.18-.18-.35-.25-.53s-.13-.41-.2-.61,0-.12,0-.18-.2-.09-.25-.19a4.43,4.43,0,0,1-.24-.77,2.14,2.14,0,0,1-.07-.51s0-.08,0-.12.07-.18.21-.16,0-.13,0-.19L30.26,15c0-.24,0-.47-.07-.71a1.1,1.1,0,0,1,.15-.62,1,1,0,0,1,.29-.33.46.46,0,0,0,.15-.23,1.17,1.17,0,0,1,.27-.45,1.1,1.1,0,0,1,.4-.25l.62-.19-.22-.13h0l.25.07.26,0a.68.68,0,0,1-.31-.35,1.21,1.21,0,0,0,.69.19l.65,0a2.66,2.66,0,0,1,1.75.8.42.42,0,0,1,.12.25.1.1,0,0,0,.08.1.48.48,0,0,1,.31.3,1.68,1.68,0,0,1,.14.89c0,.16,0,.32,0,.48l-.09,1s0,.06,0,.09.2,0,.21.17a1.66,1.66,0,0,1-.06.55c-.06.23-.13.47-.2.7a1.17,1.17,0,0,1-.1.21.18.18,0,0,1-.21.12l-.07.3a4.51,4.51,0,0,1-.37,1l-.09.17a.27.27,0,0,0,0,.11c0,.29,0,.58,0,.87,0,.09.08.14.16.17l.31.11a.1.1,0,0,1,0,.05,2.49,2.49,0,0,1,.22.88.07.07,0,0,0,0,.07c.19.09,2.76,1.43,2.88,1.49a.92.92,0,0,1,.45.39,2.08,2.08,0,0,1,.1.27Z"/></svg>