<svg id="Layer_1" data-name="Layer 1" xmlns="http://www.w3.org/2000/svg" viewBox="0 0 50 50"><defs><style>.cls-1{fill:#fff;}</style></defs><title>dock_icon_15</title><path class="cls-1" d="M32,29.22a.66.66,0,0,1-.06.12.11.11,0,0,1-.12.07l0,.17a2.51,2.51,0,0,1-.22.54l-.05.1a.15.15,0,0,0,0,.06c0,.16,0,.33,0,.49s0,.08.09.09l.18.06,0,0a1.38,1.38,0,0,1,.13.5,0,0,0,0,0,0,0l1.68.85a.54.54,0,0,1,.26.22,1.16,1.16,0,0,1,.06.16V26H26v8h8V33H27v-.28a1,1,0,0,1,.06-.16.57.57,0,0,1,.31-.24L29,31.49a0,0,0,0,0,0,0,1.3,1.3,0,0,1,.09-.4l0-.11,0,0,.18-.06a.13.13,0,0,0,.09-.12c0-.13,0-.25,0-.38a.47.47,0,0,0,0-.11.42.42,0,0,0,0-.09c0-.1-.1-.2-.14-.3s-.08-.23-.11-.35,0-.07,0-.1-.12,0-.14-.11a2.46,2.46,0,0,1-.14-.43,1.18,1.18,0,0,1,0-.29s0,0,0-.07,0-.1.12-.09v-.11l0-.41c0-.13,0-.27,0-.4a.61.61,0,0,1,.09-.35.56.56,0,0,1,.17-.19.26.26,0,0,0,.09-.13.66.66,0,0,1,.16-.25.65.65,0,0,1,.23-.14l.36-.11-.13-.07h0l.14,0,.15,0a.39.39,0,0,1-.18-.2.72.72,0,0,0,.4.11h.38a1.56,1.56,0,0,1,.69.2,1.52,1.52,0,0,1,.33.25.24.24,0,0,1,.07.14.05.05,0,0,0,0,.06.27.27,0,0,1,.18.17.93.93,0,0,1,.08.51c0,.09,0,.18,0,.27l-.05.55v.05c.09,0,.11,0,.12.1a.91.91,0,0,1,0,.31C32.11,29,32.07,29.09,32,29.22Z"/><path class="cls-1" d="M17,26v6.72a1,1,0,0,1,.06-.16.57.57,0,0,1,.31-.24L19,31.49a0,0,0,0,0,0,0,1.3,1.3,0,0,1,.09-.4l0-.11,0,0,.18-.06a.13.13,0,0,0,.09-.12c0-.13,0-.25,0-.38a.47.47,0,0,0,0-.11.42.42,0,0,0,0-.09c0-.1-.1-.2-.14-.3s-.08-.23-.11-.35,0-.07,0-.1-.12,0-.14-.11a2.46,2.46,0,0,1-.14-.43,1.18,1.18,0,0,1,0-.29s0,0,0-.07,0-.1.12-.09v-.11l0-.41c0-.13,0-.27,0-.4a.61.61,0,0,1,.09-.35.56.56,0,0,1,.17-.19.26.26,0,0,0,.09-.13.66.66,0,0,1,.16-.25.65.65,0,0,1,.23-.14l.36-.11-.13-.07h0l.14,0,.15,0a.39.39,0,0,1-.18-.2.72.72,0,0,0,.4.11h.38a1.56,1.56,0,0,1,.69.2,1.52,1.52,0,0,1,.33.25.24.24,0,0,1,.07.14.05.05,0,0,0,0,.06.27.27,0,0,1,.18.17.93.93,0,0,1,.08.51c0,.09,0,.18,0,.27l-.05.55v.05c.09,0,.11,0,.12.1a.91.91,0,0,1,0,.31c0,.13-.08.26-.12.4a.66.66,0,0,1-.06.12.11.11,0,0,1-.12.07l0,.17a2.51,2.51,0,0,1-.22.54l-.05.1a.15.15,0,0,0,0,.06c0,.16,0,.33,0,.49s0,.08.09.09l.18.06,0,0a1.38,1.38,0,0,1,.13.5,0,0,0,0,0,0,0l1.68.85a.54.54,0,0,1,.26.22,1.16,1.16,0,0,1,.06.16V33H17v1h8V26Z"/><path class="cls-1" d="M17,17v6.72a1,1,0,0,1,.06-.16.57.57,0,0,1,.31-.24L19,22.49a0,0,0,0,0,0,0,1.3,1.3,0,0,1,.09-.4l0-.11,0,0,.18-.06a.13.13,0,0,0,.09-.12c0-.13,0-.25,0-.38a.47.47,0,0,0,0-.11.42.42,0,0,0,0-.09c0-.1-.1-.2-.14-.3s-.08-.23-.11-.35,0-.07,0-.1-.12,0-.14-.11a2.46,2.46,0,0,1-.14-.43,1.18,1.18,0,0,1,0-.29s0,0,0-.07,0-.1.12-.09v-.11l0-.41c0-.13,0-.27,0-.4a.61.61,0,0,1,.09-.35.56.56,0,0,1,.17-.19.26.26,0,0,0,.09-.13.66.66,0,0,1,.16-.25.65.65,0,0,1,.23-.14l.36-.11-.13-.07h0l.14,0,.15,0a.39.39,0,0,1-.18-.2.72.72,0,0,0,.4.11h.38a1.56,1.56,0,0,1,.69.2,1.52,1.52,0,0,1,.33.25.24.24,0,0,1,.07.14.05.05,0,0,0,0,.06.27.27,0,0,1,.18.17.93.93,0,0,1,.08.51c0,.09,0,.18,0,.27l-.05.55v.05c.09,0,.11,0,.12.1a.91.91,0,0,1,0,.31c0,.13-.08.26-.12.4a.66.66,0,0,1-.06.12.11.11,0,0,1-.12.07l0,.17a2.51,2.51,0,0,1-.22.54l-.05.1a.15.15,0,0,0,0,.06c0,.16,0,.33,0,.49s0,.08.09.09l.18.06,0,0a1.38,1.38,0,0,1,.13.5,0,0,0,0,0,0,0l1.68.85a.54.54,0,0,1,.26.22,1.16,1.16,0,0,1,.06.16V24H17v1h8V17Z"/><path class="cls-1" d="M32,20.22a.66.66,0,0,1-.06.12.11.11,0,0,1-.12.07l0,.17a2.51,2.51,0,0,1-.22.54l-.05.1a.15.15,0,0,0,0,.06c0,.16,0,.33,0,.49s0,.08.09.09l.18.06,0,0a1.38,1.38,0,0,1,.13.5,0,0,0,0,0,0,0l1.68.85a.54.54,0,0,1,.26.22,1.16,1.16,0,0,1,.06.16V17H26v8h8V24H27v-.28a1,1,0,0,1,.06-.16.57.57,0,0,1,.31-.24L29,22.49a0,0,0,0,0,0,0,1.3,1.3,0,0,1,.09-.4l0-.11,0,0,.18-.06a.13.13,0,0,0,.09-.12c0-.13,0-.25,0-.38a.47.47,0,0,0,0-.11.42.42,0,0,0,0-.09c0-.1-.1-.2-.14-.3s-.08-.23-.11-.35,0-.07,0-.1-.12,0-.14-.11a2.46,2.46,0,0,1-.14-.43,1.18,1.18,0,0,1,0-.29s0,0,0-.07,0-.1.12-.09v-.11l0-.41c0-.13,0-.27,0-.4a.61.61,0,0,1,.09-.35.56.56,0,0,1,.17-.19.26.26,0,0,0,.09-.13.66.66,0,0,1,.16-.25.65.65,0,0,1,.23-.14l.36-.11-.13-.07h0l.14,0,.15,0a.39.39,0,0,1-.18-.2.72.72,0,0,0,.4.11h.38a1.56,1.56,0,0,1,.69.2,1.52,1.52,0,0,1,.33.25.24.24,0,0,1,.07.14.05.05,0,0,0,0,.06.27.27,0,0,1,.18.17.93.93,0,0,1,.08.51c0,.09,0,.18,0,.27l-.05.55v.05c.09,0,.11,0,.12.1a.91.91,0,0,1,0,.31C32.11,20,32.07,20.09,32,20.22Z"/></svg>