<svg id="Layer_1" data-name="Layer 1" xmlns="http://www.w3.org/2000/svg" viewBox="0 0 50 50"><defs><style>.cls-1{fill:#fff;}.cls-2{fill:#f85f00;}</style></defs><title>dock_icon_03</title><rect class="cls-1" x="26" y="27" width="14" height="14"/><path class="cls-2" d="M38.45,38.84c-.12-.06-2.69-1.4-2.88-1.49a.07.07,0,0,1,0-.07,2.49,2.49,0,0,0-.22-.88.1.1,0,0,0,0-.05l-.31-.11c-.08,0-.15-.07-.16-.17,0-.29,0-.58,0-.87a.27.27,0,0,1,0-.11l.09-.17a4.51,4.51,0,0,0,.37-1l.07-.3a.18.18,0,0,0,.21-.12,1.17,1.17,0,0,0,.1-.21c.07-.23.14-.46.2-.7a1.66,1.66,0,0,0,.06-.55c0-.14-.06-.18-.21-.17s0-.06,0-.09l.09-1c0-.16,0-.32,0-.48a1.68,1.68,0,0,0-.14-.89.48.48,0,0,0-.31-.3.1.1,0,0,1-.08-.1.42.42,0,0,0-.12-.25,2.66,2.66,0,0,0-1.75-.8l-.65,0a1.21,1.21,0,0,1-.69-.19.68.68,0,0,0,.31.35l-.26,0-.25-.07h0l.22.13-.62.19a1.1,1.1,0,0,0-.4.25,1.17,1.17,0,0,0-.27.45.46.46,0,0,1-.15.23,1,1,0,0,0-.29.33,1.1,1.1,0,0,0-.15.62c0,.24,0,.48.07.71l.07.73c0,.06,0,.12,0,.19s-.2,0-.21.16,0,.08,0,.12a2.14,2.14,0,0,0,.07.51,4.43,4.43,0,0,0,.24.77c0,.1.1.21.25.19s0,.12,0,.18.12.41.2.61.16.35.25.53a.76.76,0,0,1,.07.17.86.86,0,0,1,0,.2c0,.22,0,.45,0,.67a.22.22,0,0,1-.16.21l-.3.11a.1.1,0,0,0-.05,0l-.08.19a2.35,2.35,0,0,0-.15.71.06.06,0,0,1,0,.06c-.21.1-2.74,1.43-2.81,1.46a1,1,0,0,0-.54.43,1.84,1.84,0,0,0-.1.28V40H39v-.5a2.08,2.08,0,0,0-.1-.27A.93.93,0,0,0,38.45,38.84Z"/><rect class="cls-1" x="10" y="27" width="14" height="14"/><path class="cls-2" d="M22.45,38.84c-.12-.06-2.69-1.4-2.88-1.49a.07.07,0,0,1,0-.07,2.49,2.49,0,0,0-.22-.88.1.1,0,0,0,0-.05l-.31-.11c-.08,0-.15-.07-.16-.17,0-.29,0-.58,0-.87a.27.27,0,0,1,0-.11l.09-.17a4.51,4.51,0,0,0,.37-1l.07-.3a.18.18,0,0,0,.21-.12,1.17,1.17,0,0,0,.1-.21c.07-.23.14-.46.2-.7a1.66,1.66,0,0,0,.06-.55c0-.14-.06-.18-.21-.17s0-.06,0-.09l.09-1c0-.16,0-.32,0-.48a1.68,1.68,0,0,0-.14-.89.48.48,0,0,0-.31-.3.1.1,0,0,1-.08-.1.42.42,0,0,0-.12-.25,2.66,2.66,0,0,0-1.75-.8l-.65,0a1.21,1.21,0,0,1-.69-.19.68.68,0,0,0,.31.35l-.26,0-.25-.07h0l.22.13-.62.19a1.1,1.1,0,0,0-.4.25,1.17,1.17,0,0,0-.27.45.46.46,0,0,1-.15.23,1,1,0,0,0-.29.33,1.1,1.1,0,0,0-.15.62c0,.24,0,.48.07.71l.07.73c0,.06,0,.12,0,.19s-.2,0-.21.16,0,.08,0,.12a2.14,2.14,0,0,0,.07.51,4.43,4.43,0,0,0,.24.77c0,.1.1.21.25.19s0,.12,0,.18.12.41.2.61.16.35.25.53a.76.76,0,0,1,.07.17.86.86,0,0,1,0,.2c0,.22,0,.45,0,.67a.22.22,0,0,1-.16.21l-.3.11a.1.1,0,0,0-.05,0l-.08.19a2.35,2.35,0,0,0-.15.71.06.06,0,0,1,0,.06c-.21.1-2.74,1.43-2.81,1.46a1,1,0,0,0-.54.43,1.84,1.84,0,0,0-.1.28V40H23v-.5a2.08,2.08,0,0,0-.1-.27A.93.93,0,0,0,22.45,38.84Z"/><rect class="cls-1" x="10" y="11" width="14" height="14"/><path class="cls-2" d="M22.45,22.84c-.12-.06-2.69-1.4-2.88-1.49a.07.07,0,0,1,0-.07,2.49,2.49,0,0,0-.22-.88.1.1,0,0,0,0-.05l-.31-.11c-.08,0-.15-.07-.16-.17,0-.29,0-.58,0-.87a.27.27,0,0,1,0-.11l.09-.17a4.51,4.51,0,0,0,.37-1l.07-.3a.18.18,0,0,0,.21-.12,1.17,1.17,0,0,0,.1-.21c.07-.23.14-.46.2-.7a1.66,1.66,0,0,0,.06-.55c0-.14-.06-.18-.21-.17s0-.06,0-.09l.09-1c0-.16,0-.32,0-.48a1.68,1.68,0,0,0-.14-.89.48.48,0,0,0-.31-.3.1.1,0,0,1-.08-.1.42.42,0,0,0-.12-.25,2.66,2.66,0,0,0-1.75-.8l-.65,0a1.21,1.21,0,0,1-.69-.19.68.68,0,0,0,.31.35l-.26,0-.25-.07h0l.22.13-.62.19a1.1,1.1,0,0,0-.4.25,1.17,1.17,0,0,0-.27.45.46.46,0,0,1-.15.23,1,1,0,0,0-.29.33,1.1,1.1,0,0,0-.15.62c0,.24,0,.48.07.71l.07.73c0,.06,0,.12,0,.19s-.2,0-.21.16,0,.08,0,.12a2.14,2.14,0,0,0,.07.51,4.43,4.43,0,0,0,.24.77c0,.1.1.21.25.19s0,.12,0,.18.12.41.2.61.16.35.25.53a.76.76,0,0,1,.07.17.86.86,0,0,1,0,.2c0,.22,0,.45,0,.67a.22.22,0,0,1-.16.21l-.3.11a.1.1,0,0,0-.05,0l-.08.19a2.35,2.35,0,0,0-.15.71.06.06,0,0,1,0,.06c-.21.1-2.74,1.43-2.81,1.46a1,1,0,0,0-.54.43,1.84,1.84,0,0,0-.1.28V24H23v-.5a2.08,2.08,0,0,0-.1-.27A.93.93,0,0,0,22.45,22.84Z"/><rect class="cls-1" x="26" y="11" width="14" height="14"/><path class="cls-2" d="M38.45,22.84c-.12-.06-2.69-1.4-2.88-1.49a.07.07,0,0,1,0-.07,2.49,2.49,0,0,0-.22-.88.1.1,0,0,0,0-.05l-.31-.11c-.08,0-.15-.07-.16-.17,0-.29,0-.58,0-.87a.27.27,0,0,1,0-.11l.09-.17a4.51,4.51,0,0,0,.37-1l.07-.3a.18.18,0,0,0,.21-.12,1.17,1.17,0,0,0,.1-.21c.07-.23.14-.46.2-.7a1.66,1.66,0,0,0,.06-.55c0-.14-.06-.18-.21-.17s0-.06,0-.09l.09-1c0-.16,0-.32,0-.48a1.68,1.68,0,0,0-.14-.89.48.48,0,0,0-.31-.3.1.1,0,0,1-.08-.1.42.42,0,0,0-.12-.25,2.66,2.66,0,0,0-1.75-.8l-.65,0a1.21,1.21,0,0,1-.69-.19.68.68,0,0,0,.31.35l-.26,0-.25-.07h0l.22.13-.62.19a1.1,1.1,0,0,0-.4.25,1.17,1.17,0,0,0-.27.45.46.46,0,0,1-.15.23,1,1,0,0,0-.29.33,1.1,1.1,0,0,0-.15.62c0,.24,0,.48.07.71l.07.73c0,.06,0,.12,0,.19s-.2,0-.21.16,0,.08,0,.12a2.14,2.14,0,0,0,.07.51,4.43,4.43,0,0,0,.24.77c0,.1.1.21.25.19s0,.12,0,.18.12.41.2.61.16.35.25.53a.76.76,0,0,1,.07.17.86.86,0,0,1,0,.2c0,.22,0,.45,0,.67a.22.22,0,0,1-.16.21l-.3.11a.1.1,0,0,0-.05,0l-.08.19a2.35,2.35,0,0,0-.15.71.06.06,0,0,1,0,.06c-.21.1-2.74,1.43-2.81,1.46a1,1,0,0,0-.54.43,1.84,1.84,0,0,0-.1.28V24H39v-.5a2.08,2.08,0,0,0-.1-.27A.93.93,0,0,0,38.45,22.84Z"/></svg>