<svg id="Layer_1" data-name="Layer 1" xmlns="http://www.w3.org/2000/svg" viewBox="0 0 50 50"><defs><style>.cls-1{fill:#a6a6a6;}</style></defs><title>dock_icon_11</title><path class="cls-1" d="M14,32v8H24V32Zm8,6H16V34h6Z"/><rect class="cls-1" x="20" y="35" width="10" height="2"/><path class="cls-1" d="M26,32v8H36V32Zm8,6H28V34h6Z"/><rect class="cls-1" x="8" y="35" width="10" height="2"/><rect class="cls-1" x="32" y="35" width="10" height="2"/><polyline class="cls-1" points="18.33 25.18 24 31 24 25"/><path class="cls-1" d="M26,14V28H40V14Zm10.2,2.86H34.62c-.13,0-.21.09-.33.14a.68.68,0,0,0-.44.46,1.16,1.16,0,0,0-.06.34c0,.5,0,1,0,1.5,0,0,0-.09,0-.07h2.4c0,.07-.52,2.25-.55,2.32H33.8v5.57H31.51s0-3.7,0-5.53v0H30.09c-.16,0-.44,0-.6,0s0-2.37,0-2.37h2s0,.06,0,0c0-.47,0-.93,0-1.4,0-.17,0-.34,0-.51a3,3,0,0,1,.18-.83A2.38,2.38,0,0,1,33,15.14a3.16,3.16,0,0,1,1.26-.25c.38,0,.81,0,1.18,0l.53,0,.26,0C36.22,15,36.2,16.86,36.2,16.86Z"/><path class="cls-1" d="M8,12V28H24V12Zm12,8.8s0,0,0,0,0,.09.07.13l0,.06a4.74,4.74,0,0,0,.36.37c.11.11.23.2.33.31l.17.16.18.18.22.23a2.74,2.74,0,0,1,.2.22c.08.1.16.2.24.31a2.66,2.66,0,0,1,.22.36.48.48,0,0,1,.05.32.31.31,0,0,1-.06.13.41.41,0,0,1-.15.12l-.17.06a1,1,0,0,1-.36,0H19.74a2.25,2.25,0,0,1-.45-.08.55.55,0,0,1-.15-.06L19,23.59l-.18-.14-.2-.19L18.31,23l-.2-.23L18,22.59l-.18-.18a1.41,1.41,0,0,0-.29-.22.48.48,0,0,0-.16-.06.3.3,0,0,0-.21.05.84.84,0,0,0-.14.13l0,0a2,2,0,0,0-.1.22,1.24,1.24,0,0,0-.07.24c0,.1,0,.2,0,.31s0,.17,0,.25a.59.59,0,0,1-.06.25.28.28,0,0,1-.16.15l-.12.05a.32.32,0,0,1-.15,0h-1l-.28,0a1.55,1.55,0,0,0-.24,0h-.06l-.22-.06-.2-.06L14,23.54l-.25-.11a2.53,2.53,0,0,1-.33-.17l-.06,0a2.65,2.65,0,0,1-.3-.19,4.19,4.19,0,0,1-.42-.32l-.26-.24-.23-.24c-.1-.1-.19-.22-.28-.33l-.13-.16-.16-.21-.11-.16L11.25,21l-.12-.18c-.1-.14-.18-.29-.27-.43s-.11-.2-.18-.3-.09-.16-.14-.24-.16-.28-.23-.42l-.21-.37L10,18.86l-.06-.11-.08-.16a.74.74,0,0,0-.07-.13.67.67,0,0,1-.06-.11L9.55,18l-.11-.25c-.07-.15-.14-.3-.2-.44A.55.55,0,0,1,9.17,17c0-.07-.05,0,0-.06a.51.51,0,0,1,.28-.08h1.84a.35.35,0,0,1,.13,0,.91.91,0,0,1,.16.06c.08,0,.22,0,.26.1s.09.21.14.31.06.15.09.22l.11.23.05.12c0,.09.09.18.13.27s.12.22.18.34.11.19.17.28l.16.27.11.16c.08.12.16.25.25.36l.19.22a1.09,1.09,0,0,0,.26.21.28.28,0,0,0,.3,0,.24.24,0,0,0,.08-.08l.07-.12a1.57,1.57,0,0,0,.07-.25s.16-.07.17-.1a5.19,5.19,0,0,0,0-1s0-.09,0-.13,0-.32,0-.48,0-.09,0-.14-.18-.21-.21-.32a.66.66,0,0,0-.27-.38,1.32,1.32,0,0,0-.29-.13h-.12a0,0,0,0,1,0,0,.21.21,0,0,1,0-.09.91.91,0,0,1,.18-.16,1.1,1.1,0,0,1,.22-.1,2.74,2.74,0,0,1,.33-.07s.1,0,.15,0l.4,0h.85c.16,0,.58,0,.63,0s.29,0,.37.09a.53.53,0,0,1,.13.2,1.21,1.21,0,0,1,0,.27,3.21,3.21,0,0,1,0,.45c0,.09,0,.17,0,.26s0,.35,0,.52,0,.39,0,.58,0,.2,0,.3a2.25,2.25,0,0,0,0,.4c0,.06-.06.17,0,.23a.93.93,0,0,0,0,.09l.09.1a.19.19,0,0,0,.18,0,.47.47,0,0,0,.22-.12,2.42,2.42,0,0,0,.41-.46l0,0c.1-.13.19-.28.28-.42s.15-.25.23-.37l.12-.2.1-.19c0-.09.09-.17.13-.26s.07-.13.1-.2.11-.24.16-.36l.07-.17.07-.16c0-.1.09-.12.18-.19l0,0a.59.59,0,0,1,.16-.05h2.34l.14,0a.33.33,0,0,1,.19.11.22.22,0,0,1,.05.13c0,.13,0,.16-.08.28s-.11.23-.16.35l-.08.15c-.05.08-.09.16-.15.24l-.23.35-.15.22-.31.41-.15.2-.17.22c-.08.12-.18.22-.26.34l-.17.23a1.35,1.35,0,0,0-.19.33A.5.5,0,0,0,20,20.8Z"/><polyline class="cls-1" points="26 26 31.06 26.08 26 31.28 26 26"/></svg>