<svg id="Layer_1" data-name="Layer 1" xmlns="http://www.w3.org/2000/svg" viewBox="0 0 50 50"><defs><style>.cls-1{fill:#a6a6a6;}</style></defs><title>dock_icon_17</title><path class="cls-1" d="M26,19v9h9V19Zm6.56,1.84h-1c-.08,0-.14.06-.21.09a.44.44,0,0,0-.28.29.74.74,0,0,0,0,.22c0,.32,0,.64,0,1,0,0,0-.06,0,0h1.54s-.34,1.45-.35,1.49H31v3.58H29.54s0-2.38,0-3.55v0h-.91l-.38,0s0-1.52,0-1.52h1.27s0,0,0,0c0-.3,0-.6,0-.9,0-.11,0-.22,0-.33a1.93,1.93,0,0,1,.11-.53,1.53,1.53,0,0,1,.81-.89,2,2,0,0,1,.81-.16c.24,0,.52,0,.76,0l.34,0,.17,0C32.57,19.65,32.56,20.84,32.56,20.84Z"/><path class="cls-1" d="M16,19v9h9V19Zm6.76,5s0,.05,0,.07l0,0,.2.21.19.18.1.09.1.1.12.13.11.12.13.17a1.49,1.49,0,0,1,.12.2.27.27,0,0,1,0,.18.17.17,0,0,1,0,.07.23.23,0,0,1-.09.07l-.1,0a.56.56,0,0,1-.2,0H22.6l-.26,0-.09,0-.1-.06-.1-.08-.11-.11-.15-.16L21.68,25,21.6,25l-.1-.1a.8.8,0,0,0-.16-.12l-.09,0a.17.17,0,0,0-.12,0l-.08.07,0,0-.06.12a.7.7,0,0,0,0,.14q0,.09,0,.17s0,.1,0,.14a.33.33,0,0,1,0,.14.16.16,0,0,1-.09.08l-.07,0-.08,0h-.57l-.16,0-.13,0h0l-.13,0-.11,0-.11,0-.14-.06-.19-.1,0,0-.17-.11L18.63,25l-.15-.13-.13-.13-.16-.18-.07-.09L18,24.37,18,24.29l-.14-.21-.07-.1-.15-.24-.1-.17-.08-.14-.13-.23L17.18,23l-.06-.13,0-.06,0-.09,0-.07,0-.06-.1-.21-.06-.14L16.69,22a.31.31,0,0,1,0-.14s0,0,0,0a.29.29,0,0,1,.16,0h1.11l.09,0s.13,0,.15.05.05.12.08.17l.05.12.06.13,0,.07.08.15.1.19c0,.05.06.1.09.16l.09.15.06.09.14.2.1.13a.61.61,0,0,0,.14.12.16.16,0,0,0,.17,0l0,0,0-.07a.88.88,0,0,0,0-.14s.09,0,.09-.05a2.92,2.92,0,0,0,0-.53s0,0,0-.07,0-.18,0-.27,0-.05,0-.08-.1-.12-.12-.18a.37.37,0,0,0-.15-.21l-.16-.07H19.1a0,0,0,0,1,0,0,.12.12,0,0,1,0,0l.1-.09.12-.05a1.55,1.55,0,0,1,.18,0s.06,0,.09,0h1.06c.06,0,.16,0,.21.05a.3.3,0,0,1,.07.11.68.68,0,0,1,0,.15,1.81,1.81,0,0,1,0,.25s0,.1,0,.15,0,.2,0,.29,0,.22,0,.33,0,.11,0,.17a1.26,1.26,0,0,0,0,.23s0,.1,0,.13l0,0,.05.05a.11.11,0,0,0,.1,0,.27.27,0,0,0,.12-.07,1.36,1.36,0,0,0,.23-.26l0,0c.06-.07.11-.16.16-.23l.13-.21.07-.11.06-.11.07-.15.05-.11.09-.2,0-.09,0-.09c0-.06.05-.07.1-.11h0a.33.33,0,0,1,.09,0h1.32l.08,0a.19.19,0,0,1,.11.06.12.12,0,0,1,0,.08c0,.07,0,.09,0,.16s-.06.13-.09.19l0,.08-.08.13-.13.19-.09.12-.17.23-.08.11-.1.13-.15.19-.09.13a.76.76,0,0,0-.1.19.28.28,0,0,0,0,.19Z"/><path class="cls-1" d="M19,29v5h5V29Zm4,4H20V30h3Z"/><rect class="cls-1" x="22" y="31" width="7" height="1"/><path class="cls-1" d="M27,29v5h5V29Zm4,4H28V30h3Z"/><rect class="cls-1" x="16" y="31" width="5" height="1"/><rect class="cls-1" x="30" y="31" width="5" height="1"/></svg>