<svg id="Layer_1" data-name="Layer 1" xmlns="http://www.w3.org/2000/svg" viewBox="0 0 50 50"><defs><style>.cls-1{fill:#d1d1d1;}.cls-2{fill:#495257;}.cls-3{fill:#6d6d6d;}.cls-4{fill:#556365;}.cls-5{fill:#fff;}</style></defs><title>dock_icon_14</title><rect class="cls-1" x="10" y="21" width="31" height="19"/><rect class="cls-2" x="27" y="13" width="16" height="16"/><polygon class="cls-2" points="32.06 27.08 27 32.28 27 27 32.06 27.08"/><path class="cls-3" d="M16,33v5h8V33Zm7,4H17V34h6Z"/><rect class="cls-3" x="21" y="35" width="9" height="1"/><path class="cls-3" d="M27,33v5h8V33Zm7,4H28V34h6Z"/><rect class="cls-3" x="12" y="35" width="7" height="1"/><rect class="cls-3" x="32" y="35" width="7" height="1"/><rect class="cls-4" x="7" y="11" width="17" height="17"/><polygon class="cls-4" points="24 27 24 33 18.33 27.18 24 27"/><path class="cls-5" d="M33.29,28s0-4.23,0-6.32a.16.16,0,0,0,0,0H31.67c-.18,0-.51.05-.68.05C31,21.6,31,19,31,19h2.26s0,.06,0,0c0-.53,0-1.07,0-1.6,0-.19,0-.39,0-.58a3.42,3.42,0,0,1,.2-.94A2.72,2.72,0,0,1,35,14.3,3.61,3.61,0,0,1,36.4,14c.43,0,.92,0,1.35,0l.6,0,.3,0c0,.13,0,2.26,0,2.26h-1.8c-.15,0-.24.1-.38.16a.78.78,0,0,0-.5.52,1.32,1.32,0,0,0-.07.39c0,.57,0,1.14,0,1.71,0,0,0-.1,0-.08h2.75c0,.08-.6,2.57-.63,2.65H35.91V28Z"/><path class="cls-5" d="M20.31,23.59h-.84A2.4,2.4,0,0,1,19,23.5a.58.58,0,0,1-.16-.07l-.19-.12-.19-.15a2.92,2.92,0,0,1-.21-.21l-.28-.31-.21-.25-.15-.16-.19-.2a1.49,1.49,0,0,0-.31-.24.51.51,0,0,0-.17-.06.32.32,0,0,0-.23.06.89.89,0,0,0-.15.13l0,0a2.08,2.08,0,0,0-.11.23,1.32,1.32,0,0,0-.07.26c0,.11,0,.22,0,.33s0,.18,0,.27a.63.63,0,0,1-.06.27.29.29,0,0,1-.17.16l-.12.05a.34.34,0,0,1-.16,0H14.68l-.29,0a1.65,1.65,0,0,0-.25,0h-.07l-.24-.07-.22-.07-.2-.07-.26-.12a2.69,2.69,0,0,1-.36-.18l-.06,0a2.82,2.82,0,0,1-.32-.2,4.46,4.46,0,0,1-.45-.34l-.28-.25-.24-.25c-.11-.11-.2-.23-.3-.35L11,21.37l-.17-.22L10.73,21c-.09-.13-.19-.26-.27-.39l-.13-.19c-.1-.15-.19-.31-.29-.46s-.12-.21-.19-.31-.1-.17-.15-.26-.17-.3-.25-.44l-.22-.4-.12-.24L9,18.17,9,18a.78.78,0,0,0-.07-.14.72.72,0,0,1-.06-.11l-.19-.39-.12-.27c-.08-.15-.15-.31-.22-.47a.58.58,0,0,1-.06-.27c0-.07-.06,0,0-.07a.54.54,0,0,1,.3-.09h2a.37.37,0,0,1,.14,0,1,1,0,0,1,.17.06c.08.05.24,0,.28.1s.1.22.15.33.06.16.1.23l.12.24.06.13c.05.09.09.19.14.29s.13.24.19.36.12.2.18.3l.17.29.11.17c.08.13.17.26.27.39l.2.24a1.16,1.16,0,0,0,.27.23.3.3,0,0,0,.32,0,.26.26,0,0,0,.09-.09l.07-.13a1.68,1.68,0,0,0,.08-.26s.17-.07.18-.1a5.52,5.52,0,0,0,.05-1s0-.09,0-.14,0-.34,0-.51,0-.09,0-.14-.19-.23-.22-.34a.7.7,0,0,0-.29-.4,1.4,1.4,0,0,0-.31-.13h-.12a0,0,0,0,1,0-.05.22.22,0,0,1,0-.09,1,1,0,0,1,.19-.17,1.17,1.17,0,0,1,.23-.1,2.91,2.91,0,0,1,.35-.07c.05,0,.11,0,.16,0l.43,0h.9c.16,0,.61,0,.67,0s.31,0,.39.1a.57.57,0,0,1,.14.22,1.28,1.28,0,0,1,.05.29,3.41,3.41,0,0,1,0,.48c0,.09,0,.18,0,.28s0,.37,0,.55,0,.41,0,.62,0,.21,0,.31a2.39,2.39,0,0,0,0,.43c0,.07-.06.18,0,.24a1,1,0,0,0,0,.09l.09.1a.21.21,0,0,0,.19.05.5.5,0,0,0,.23-.13,2.57,2.57,0,0,0,.44-.48l0-.05c.11-.14.2-.3.3-.44s.16-.26.24-.39l.13-.21.11-.2c0-.09.1-.18.14-.28s.07-.14.1-.21.12-.25.17-.38l.07-.18.07-.17c0-.11.09-.12.19-.2l0,0a.63.63,0,0,1,.17-.05h2.49l.15,0a.35.35,0,0,1,.2.11.24.24,0,0,1,.06.14c0,.14,0,.17-.09.29s-.11.25-.17.37l-.09.16c-.05.08-.1.17-.15.25l-.25.37-.16.23-.32.43-.16.21-.18.24c-.09.12-.19.23-.27.36l-.18.24a1.43,1.43,0,0,0-.2.35.53.53,0,0,0,0,.36s0,0,0,0,0,.1.08.14l0,.06a5,5,0,0,0,.38.39c.12.11.24.21.36.33l.18.17.19.19c.08.08.15.17.23.25a2.92,2.92,0,0,1,.21.23c.09.11.17.22.25.33a2.83,2.83,0,0,1,.23.39.51.51,0,0,1,.06.33.33.33,0,0,1-.06.14.43.43,0,0,1-.16.13l-.18.06a1.06,1.06,0,0,1-.38,0h-.89Z"/><rect class="cls-3" x="24" y="21" width="3" height="2"/></svg>