<svg id="Layer_1" data-name="Layer 1" xmlns="http://www.w3.org/2000/svg" viewBox="0 0 50 50"><defs><style>.cls-1{fill:#fff;}</style></defs><title>dock_icon_04</title><path class="cls-1" d="M26,13V31H44V13Zm13.12,3.68h-2c-.17,0-.27.12-.43.17a.88.88,0,0,0-.56.59,1.49,1.49,0,0,0-.07.44c0,.64,0,1.29,0,1.93,0,0,0-.12,0-.08h3.09c0,.09-.67,2.9-.71,3H36.62c-.2,0-.4,0-.6,0v7.16H33.08s0-4.75,0-7.11a.19.19,0,0,0,0,0H31.26c-.2,0-.57.06-.77.06,0-.1,0-3,0-3H33s.05.07.05,0c0-.6,0-1.2,0-1.8,0-.22,0-.44,0-.65a3.85,3.85,0,0,1,.23-1.06A3.06,3.06,0,0,1,35,14.46a4.06,4.06,0,0,1,1.63-.32c.49,0,1,0,1.52,0l.68.06s.31-.06.34-.06S39.12,16.68,39.12,16.68Z"/><path class="cls-1" d="M6,13V31H24V13Zm13.51,9.9s0,0,0,0,0,.1.08.15l.05.07a5.33,5.33,0,0,0,.4.42c.12.12.26.23.38.35l.19.18.2.2c.09.08.16.18.25.26a3.1,3.1,0,0,1,.22.25c.09.11.19.23.27.35a3,3,0,0,1,.24.41.54.54,0,0,1,.06.35.34.34,0,0,1-.07.14.46.46,0,0,1-.17.14l-.19.07a1.13,1.13,0,0,1-.4,0H19.2a2.54,2.54,0,0,1-.51-.09.62.62,0,0,1-.17-.07l-.2-.12-.2-.16a3.11,3.11,0,0,1-.23-.22l-.3-.32-.22-.26-.16-.17L17,24.7a1.58,1.58,0,0,0-.33-.25.54.54,0,0,0-.18-.06.34.34,0,0,0-.24.06.94.94,0,0,0-.16.14l0,0a2.21,2.21,0,0,0-.11.24,1.4,1.4,0,0,0-.08.27c0,.11,0,.23,0,.35s0,.19,0,.29a.67.67,0,0,1-.07.28.31.31,0,0,1-.18.17l-.13.06a.36.36,0,0,1-.17,0H14.13l-.31,0a1.75,1.75,0,0,0-.26,0l-.07,0-.25-.07L13,26.06,12.79,26l-.28-.12a2.85,2.85,0,0,1-.38-.19l-.07,0a3,3,0,0,1-.34-.21,4.71,4.71,0,0,1-.47-.36L11,24.79l-.25-.26c-.11-.12-.21-.25-.32-.37L10.25,24l-.18-.23-.13-.18c-.1-.14-.2-.27-.29-.41L9.52,23c-.11-.16-.2-.33-.31-.49s-.13-.23-.2-.33-.1-.18-.16-.27-.18-.31-.26-.47L8.36,21l-.12-.25-.07-.12-.09-.18A.84.84,0,0,0,8,20.26a.75.75,0,0,1-.06-.12l-.2-.41-.13-.28c-.08-.16-.15-.33-.23-.5a.61.61,0,0,1-.06-.28c0-.07-.06,0,0-.07a.58.58,0,0,1,.31-.09H9.71a.4.4,0,0,1,.15,0,1,1,0,0,1,.18.07c.08.05.25,0,.3.11s.11.23.16.35.06.17.1.25l.13.26.06.14c.05.1.1.21.15.31s.14.25.2.38.12.21.19.31l.18.3.12.18c.09.14.18.28.29.41l.21.25a1.23,1.23,0,0,0,.29.24.32.32,0,0,0,.34,0,.27.27,0,0,0,.09-.09l.08-.14a1.77,1.77,0,0,0,.08-.28s.18-.07.19-.11a5.85,5.85,0,0,0,.05-1.07s0-.1,0-.14,0-.36,0-.54,0-.1,0-.15-.2-.24-.24-.36a.74.74,0,0,0-.3-.42,1.48,1.48,0,0,0-.32-.14H12.2a0,0,0,0,1,0-.05.23.23,0,0,1,0-.1,1,1,0,0,1,.2-.18,1.24,1.24,0,0,1,.24-.11A3.07,3.07,0,0,1,13,18.1c.06,0,.11,0,.17,0s.3,0,.45,0h1c.17,0,.65,0,.71,0s.33,0,.41.1a.6.6,0,0,1,.14.23,1.36,1.36,0,0,1,.06.3,3.61,3.61,0,0,1,0,.5c0,.1,0,.19,0,.29s0,.39,0,.58,0,.44,0,.65,0,.22,0,.33a2.53,2.53,0,0,0,0,.45c0,.07-.06.19,0,.26a1,1,0,0,0,0,.1l.1.11a.22.22,0,0,0,.21.05A.53.53,0,0,0,16.5,22a2.72,2.72,0,0,0,.46-.51l0-.05c.12-.15.21-.31.32-.47s.17-.28.26-.41l.13-.23.11-.21c.05-.1.1-.19.14-.29s.08-.14.11-.22.13-.27.18-.4l.08-.19.08-.18c0-.12.1-.13.2-.21l0,0a.67.67,0,0,1,.18-.06h2.63l.16,0a.37.37,0,0,1,.21.12.25.25,0,0,1,.06.15c0,.14,0,.18-.09.31s-.12.26-.18.39l-.09.17c-.06.09-.1.18-.16.27s-.17.26-.26.39l-.17.25-.34.46-.17.22-.19.25c-.09.13-.2.25-.29.38l-.19.25a1.52,1.52,0,0,0-.21.37A.57.57,0,0,0,19.51,22.9Z"/><path class="cls-1" d="M13,33v8H23V33Zm8,6H15V35h6Z"/><rect class="cls-1" x="19" y="36" width="12" height="2"/><path class="cls-1" d="M27,33v8H37V33Zm8,6H29V35h6Z"/><rect class="cls-1" x="8" y="36" width="9" height="2"/><rect class="cls-1" x="33" y="36" width="9" height="2"/></svg>